Cr-Udom-Regular.ufo
<glyph name="parenright" format="2">
  <advance width="365"/>
  <unicode hex="0029"/>
  <outline>
    <contour>
      <point x="221" y="183" type="line" smooth="yes"/>
      <point x="220" y="156" type="line" smooth="yes"/>
      <point x="218" y="141" type="line" smooth="yes"/>
      <point x="214" y="119" type="line" smooth="yes"/>
      <point x="210" y="106" type="line" smooth="yes"/>
      <point x="206" y="96" type="line" smooth="yes"/>
      <point x="195" y="73" type="line" smooth="yes"/>
      <point x="181" y="49" type="line" smooth="yes"/>
      <point x="163" y="27" type="line" smooth="yes"/>
      <point x="152" y="17" type="line" smooth="yes"/>
      <point x="140" y="5" type="line" smooth="yes"/>
      <point x="121" y="-8" type="line" smooth="yes"/>
      <point x="100" y="-24" type="line" smooth="yes"/>
      <point x="75" y="-35" type="line" smooth="yes"/>
      <point x="51" y="-42" type="line" smooth="yes"/>
      <point x="27" y="-48" type="line" smooth="yes"/>
      <point x="-2" y="-52" type="line" smooth="yes"/>
      <point x="-30" y="-53" type="line" smooth="yes"/>
      <point x="-36" y="-53" type="line" smooth="yes"/>
      <point x="-43" y="-53" type="line" smooth="yes"/>
      <point x="-20" y="-46" type="line" smooth="yes"/>
      <point x="5" y="-39" type="line" smooth="yes"/>
      <point x="26" y="-31"/>
      <point x="40" y="-25"/>
      <point x="48" y="-21" type="curve" smooth="yes"/>
      <point x="62" y="-15"/>
      <point x="72" y="-11"/>
      <point x="78" y="-7" type="curve" smooth="yes"/>
      <point x="102" y="5"/>
      <point x="120" y="18"/>
      <point x="132" y="32" type="curve" smooth="yes"/>
      <point x="147" y="49"/>
      <point x="159" y="70"/>
      <point x="169" y="96" type="curve" smooth="yes"/>
      <point x="177" y="123"/>
      <point x="181" y="150"/>
      <point x="182" y="179" type="curve" smooth="yes"/>
      <point x="182" y="208"/>
      <point x="179" y="234"/>
      <point x="172" y="259" type="curve" smooth="yes"/>
      <point x="166" y="284"/>
      <point x="156" y="306"/>
      <point x="140" y="325" type="curve" smooth="yes"/>
      <point x="131" y="335"/>
      <point x="118" y="346"/>
      <point x="101" y="359" type="curve" smooth="yes"/>
      <point x="85" y="371"/>
      <point x="67" y="381"/>
      <point x="47" y="390" type="curve" smooth="yes"/>
      <point x="21" y="402"/>
      <point x="3" y="408"/>
      <point x="-7" y="408" type="curve" smooth="yes"/>
      <point x="-43" y="419" type="line" smooth="yes"/>
      <point x="-2" y="418" type="line" smooth="yes"/>
      <point x="32" y="414" type="line" smooth="yes"/>
      <point x="58" y="408" type="line" smooth="yes"/>
      <point x="94" y="393" type="line" smooth="yes"/>
      <point x="109" y="385" type="line" smooth="yes"/>
      <point x="128" y="371" type="line" smooth="yes"/>
      <point x="161" y="341" type="line" smooth="yes"/>
      <point x="181" y="316" type="line" smooth="yes"/>
      <point x="202" y="277" type="line" smooth="yes"/>
      <point x="211" y="250" type="line" smooth="yes"/>
      <point x="218" y="217" type="line" smooth="yes"/>
    </contour>
  </outline>
</glyph>
<glyph name="comma" format="2">
  <advance width="228"/>
  <unicode hex="002C"/>
  <outline>
    <contour>
      <point x="64" y="8" type="line" smooth="yes"/>
      <point x="51" y="4" type="line" smooth="yes"/>
      <point x="36" y="1" type="line" smooth="yes"/>
      <point x="26" y="1"/>
      <point x="19" y="4"/>
      <point x="13" y="12" type="curve" smooth="yes"/>
      <point x="6" y="36" type="line" smooth="yes"/>
      <point x="6" y="40"/>
      <point x="10" y="47"/>
      <point x="18" y="58" type="curve" smooth="yes"/>
      <point x="22" y="62"/>
      <point x="30" y="65"/>
      <point x="43" y="69" type="curve" smooth="yes"/>
      <point x="53" y="69"/>
      <point x="61" y="67"/>
      <point x="68" y="61" type="curve" smooth="yes"/>
      <point x="75" y="57"/>
      <point x="80" y="51"/>
      <point x="83" y="43" type="curve" smooth="yes"/>
      <point x="87" y="20" type="line" smooth="yes"/>
      <point x="87" y="13" type="line" smooth="yes"/>
      <point x="85" y="4" type="line" smooth="yes"/>
      <point x="80" y="-15" type="line" smooth="yes"/>
      <point x="76" y="-30"/>
      <point x="65" y="-47"/>
      <point x="46" y="-68" type="curve" smooth="yes"/>
      <point x="33" y="-82"/>
      <point x="24" y="-89"/>
      <point x="17" y="-89" type="curve" smooth="yes"/>
      <point x="19" y="-83" type="line" smooth="yes"/>
      <point x="35" y="-63"/>
      <point x="47" y="-45"/>
      <point x="56" y="-27" type="curve" smooth="yes"/>
      <point x="61" y="-10" type="line" smooth="yes"/>
      <point x="64" y="0" type="line" smooth="yes"/>
    </contour>
  </outline>
</glyph>
<glyph name="colon" format="2">
  <advance width="296"/>
  <unicode hex="003A"/>
  <outline>
    <contour>
      <point x="144" y="125" type="curve" smooth="yes"/>
      <point x="154" y="125"/>
      <point x="163" y="121"/>
      <point x="173" y="111" type="curve" smooth="yes"/>
      <point x="182" y="98" type="line" smooth="yes"/>
      <point x="186" y="84" type="line" smooth="yes"/>
      <point x="186" y="78"/>
      <point x="182" y="68"/>
      <point x="173" y="54" type="curve" smooth="yes"/>
      <point x="165" y="46"/>
      <point x="156" y="42"/>
      <point x="144" y="42" type="curve" smooth="yes"/>
      <point x="135" y="42"/>
      <point x="126" y="46"/>
      <point x="116" y="54" type="curve" smooth="yes"/>
      <point x="108" y="63" type="line" smooth="yes"/>
      <point x="104" y="69"/>
      <point x="102" y="76"/>
      <point x="102" y="84" type="curve" smooth="yes"/>
      <point x="102" y="91"/>
      <point x="106" y="99"/>
      <point x="114" y="110" type="curve" smooth="yes"/>
      <point x="122" y="120"/>
      <point x="132" y="125"/>
    </contour>
    <contour>
      <point x="144" y="313" type="curve" smooth="yes"/>
      <point x="154" y="313"/>
      <point x="163" y="309"/>
      <point x="173" y="300" type="curve" smooth="yes"/>
      <point x="181" y="294"/>
      <point x="185" y="285"/>
      <point x="186" y="271" type="curve" smooth="yes"/>
      <point x="186" y="263"/>
      <point x="182" y="255"/>
      <point x="173" y="246" type="curve" smooth="yes"/>
      <point x="165" y="238"/>
      <point x="156" y="233"/>
      <point x="144" y="229" type="curve" smooth="yes"/>
      <point x="138" y="229"/>
      <point x="129" y="233"/>
      <point x="115" y="243" type="curve" smooth="yes"/>
      <point x="108" y="251"/>
      <point x="104" y="260"/>
      <point x="102" y="271" type="curve" smooth="yes"/>
      <point x="102" y="280"/>
      <point x="106" y="289"/>
      <point x="114" y="299" type="curve" smooth="yes"/>
      <point x="122" y="308"/>
      <point x="132" y="312"/>
    </contour>
  </outline>
</glyph>
<glyph name="u1A24" format="2">
  <advance width="582"/>
  <unicode hex="1A24"/>
  <anchor x="303.5" y="0" name="L"/>
  <anchor x="530" y="0" name="LR"/>
  <anchor x="273.5" y="416" name="U"/>
  <anchor x="526" y="416" name="UR"/>
  <outline>
    <contour>
      <point x="542" y="588" type="curve" smooth="yes"/>
      <point x="463" y="630" type="line" smooth="yes"/>
      <point x="447" y="636"/>
      <point x="425" y="641"/>
      <point x="397" y="646" type="curve" smooth="yes"/>
      <point x="370" y="650"/>
      <point x="338" y="652"/>
      <point x="299" y="652" type="curve" smooth="yes"/>
      <point x="223" y="652"/>
      <point x="168" y="640"/>
      <point x="133" y="614" type="curve" smooth="yes"/>
      <point x="99" y="589"/>
      <point x="82" y="549"/>
      <point x="82" y="494" type="curve" smooth="yes"/>
      <point x="81" y="132" type="line" smooth="yes"/>
      <point x="81" y="127"/>
      <point x="78" y="124"/>
      <point x="72" y="122" type="curve" smooth="yes"/>
      <point x="59" y="122"/>
      <point x="50" y="136"/>
      <point x="44" y="164" type="curve" smooth="yes"/>
      <point x="44" y="490" type="line" smooth="yes"/>
      <point x="44" y="546"/>
      <point x="59" y="589"/>
      <point x="91" y="621" type="curve" smooth="yes"/>
      <point x="131" y="660"/>
      <point x="198" y="679"/>
      <point x="292" y="680" type="curve" smooth="yes"/>
      <point x="363" y="680"/>
      <point x="422" y="670"/>
      <point x="470" y="650" type="curve" smooth="yes"/>
      <point x="512" y="632"/>
      <point x="536" y="612"/>
    </contour>
    <contour>
      <point x="501" y="129" type="line" smooth="yes"/>
      <point x="503" y="151" type="line" smooth="yes"/>
      <point x="503" y="161"/>
      <point x="502" y="169"/>
      <point x="499" y="175" type="curve" smooth="yes"/>
      <point x="485" y="211"/>
      <point x="454" y="245"/>
      <point x="405" y="278" type="curve" smooth="yes"/>
      <point x="382" y="294"/>
      <point x="359" y="306"/>
      <point x="336" y="314" type="curve" smooth="yes"/>
      <point x="314" y="322"/>
      <point x="294" y="326"/>
      <point x="274" y="327" type="curve" smooth="yes"/>
      <point x="228" y="327"/>
      <point x="184" y="307"/>
      <point x="142" y="266" type="curve" smooth="yes"/>
      <point x="101" y="226"/>
      <point x="81" y="181"/>
      <point x="80" y="131" type="curve" smooth="yes"/>
      <point x="80" y="117"/>
      <point x="83" y="102"/>
      <point x="91" y="84" type="curve" smooth="yes"/>
      <point x="99" y="68"/>
      <point x="108" y="55"/>
      <point x="119" y="44" type="curve" smooth="yes"/>
      <point x="122" y="56"/>
      <point x="128" y="68"/>
      <point x="139" y="80" type="curve" smooth="yes"/>
      <point x="149" y="92"/>
      <point x="159" y="99"/>
      <point x="169" y="102" type="curve" smooth="yes"/>
      <point x="185" y="104"/>
      <point x="197" y="101"/>
      <point x="207" y="91" type="curve" smooth="yes"/>
      <point x="216" y="82"/>
      <point x="220" y="68"/>
      <point x="221" y="49" type="curve" smooth="yes"/>
      <point x="221" y="41"/>
      <point x="214" y="31"/>
      <point x="200" y="18" type="curve" smooth="yes"/>
      <point x="187" y="7"/>
      <point x="174" y="2"/>
      <point x="159" y="1" type="curve" smooth="yes"/>
      <point x="119" y="1"/>
      <point x="89" y="19"/>
      <point x="68" y="56" type="curve" smooth="yes"/>
      <point x="55" y="80"/>
      <point x="49" y="106"/>
      <point x="48" y="134" type="curve" smooth="yes"/>
      <point x="48" y="174"/>
      <point x="73" y="220"/>
      <point x="124" y="273" type="curve" smooth="yes"/>
      <point x="177" y="328"/>
      <point x="227" y="355"/>
      <point x="274" y="356" type="curve" smooth="yes"/>
      <point x="348" y="356"/>
      <point x="411" y="334"/>
      <point x="463" y="288" type="curve" smooth="yes"/>
      <point x="507" y="249"/>
      <point x="529" y="211"/>
      <point x="530" y="172" type="curve" smooth="yes"/>
      <point x="531" y="143" type="line" smooth="yes"/>
      <point x="531" y="135"/>
      <point x="530" y="127"/>
      <point x="528" y="117" type="curve" smooth="yes"/>
      <point x="526" y="109"/>
      <point x="523" y="101"/>
      <point x="517" y="91" type="curve" smooth="yes"/>
      <point x="509" y="76"/>
      <point x="498" y="62"/>
      <point x="484" y="48" type="curve" smooth="yes"/>
      <point x="478" y="42"/>
      <point x="471" y="37"/>
      <point x="461" y="33" type="curve" smooth="yes"/>
      <point x="453" y="30"/>
      <point x="444" y="28"/>
      <point x="433" y="26" type="curve" smooth="yes"/>
      <point x="420" y="31" type="line" smooth="yes"/>
      <point x="420" y="26" type="line" smooth="yes"/>
      <point x="425" y="18" type="line" smooth="yes"/>
      <point x="453" y="27" type="line" smooth="yes"/>
      <point x="471" y="33"/>
      <point x="482" y="38"/>
      <point x="487" y="43" type="curve" smooth="yes"/>
      <point x="504" y="61" type="line" smooth="yes"/>
      <point x="512" y="65" type="line" smooth="yes"/>
      <point x="500" y="45"/>
      <point x="486" y="29"/>
      <point x="469" y="17" type="curve" smooth="yes"/>
      <point x="456" y="8"/>
      <point x="442" y="2"/>
      <point x="425" y="-1" type="curve" smooth="yes"/>
      <point x="419" y="-2"/>
      <point x="412" y="-1"/>
      <point x="402" y="3" type="curve" smooth="yes"/>
      <point x="394" y="7"/>
      <point x="387" y="14"/>
      <point x="379" y="25" type="curve" smooth="yes"/>
      <point x="389" y="48" type="line" smooth="yes"/>
      <point x="391" y="53"/>
      <point x="394" y="56"/>
      <point x="398" y="59" type="curve" smooth="yes"/>
      <point x="409" y="57" type="line" smooth="yes"/>
      <point x="422" y="54" type="line" smooth="yes"/>
      <point x="439" y="57" type="line" smooth="yes"/>
      <point x="462" y="65"/>
      <point x="477" y="74"/>
      <point x="486" y="84" type="curve" smooth="yes"/>
    </contour>
    <contour>
      <point x="132" y="40" type="line" smooth="yes"/>
      <point x="142" y="32" type="line" smooth="yes"/>
      <point x="150" y="26"/>
      <point x="156" y="23"/>
      <point x="161" y="23" type="curve" smooth="yes"/>
      <point x="168" y="23"/>
      <point x="174" y="25"/>
      <point x="180" y="31" type="curve" smooth="yes"/>
      <point x="186" y="36"/>
      <point x="188" y="41"/>
      <point x="188" y="48" type="curve" smooth="yes"/>
      <point x="183" y="66" type="line" smooth="yes"/>
      <point x="179" y="74"/>
      <point x="174" y="78"/>
      <point x="166" y="80" type="curve" smooth="yes"/>
      <point x="160" y="80"/>
      <point x="153" y="74"/>
      <point x="143" y="60" type="curve" smooth="yes"/>
    </contour>
  </outline>
</glyph>
<glyph name="u1A25" format="2">
  <advance width="760"/>
  <unicode hex="1A25"/>
  <anchor x="390.5" y="0" name="L"/>
  <anchor x="718" y="0" name="LR"/>
  <anchor x="391.5" y="416" name="U"/>
  <anchor x="718" y="416" name="UR"/>
  <outline>
    <contour>
      <point x="522" y="110" type="line" smooth="yes"/>
      <point x="562" y="57" type="line" smooth="yes"/>
      <point x="580" y="37"/>
      <point x="596" y="27"/>
      <point x="612" y="26" type="curve" smooth="yes"/>
      <point x="647" y="26"/>
      <point x="667" y="43"/>
      <point x="672" y="79" type="curve" smooth="yes"/>
      <point x="674" y="93"/>
      <point x="675" y="121"/>
      <point x="675" y="165" type="curve" smooth="yes"/>
      <point x="675" y="193"/>
      <point x="666" y="222"/>
      <point x="647" y="252" type="curve" smooth="yes"/>
      <point x="629" y="282"/>
      <point x="613" y="298"/>
      <point x="598" y="300" type="curve" smooth="yes"/>
      <point x="602" y="313" type="line" smooth="yes"/>
      <point x="640" y="347" type="line" smooth="yes"/>
      <point x="644" y="351"/>
      <point x="647" y="353"/>
      <point x="651" y="353" type="curve" smooth="yes"/>
      <point x="658" y="350" type="line" smooth="yes"/>
      <point x="666" y="346" type="line" smooth="yes"/>
      <point x="680" y="340"/>
      <point x="691" y="328"/>
      <point x="699" y="309" type="curve" smooth="yes"/>
      <point x="707" y="291"/>
      <point x="710" y="279"/>
      <point x="708" y="271" type="curve" smooth="yes"/>
      <point x="695" y="283" type="line" smooth="yes"/>
      <point x="672" y="316" type="line" smooth="yes"/>
      <point x="671" y="318"/>
      <point x="668" y="319"/>
      <point x="663" y="321" type="curve" smooth="yes"/>
      <point x="659" y="321"/>
      <point x="656" y="319"/>
      <point x="654" y="315" type="curve" smooth="yes"/>
      <point x="664" y="304" type="line" smooth="yes"/>
      <point x="679" y="289" type="line" smooth="yes"/>
      <point x="692" y="272" type="line" smooth="yes"/>
      <point x="704" y="254"/>
      <point x="712" y="235"/>
      <point x="716" y="215" type="curve" smooth="yes"/>
      <point x="722" y="165" type="line" smooth="yes"/>
      <point x="722" y="122"/>
      <point x="714" y="86"/>
      <point x="696" y="55" type="curve" smooth="yes"/>
      <point x="675" y="19"/>
      <point x="645" y="1"/>
      <point x="606" y="0" type="curve" smooth="yes"/>
      <point x="578" y="0"/>
      <point x="555" y="8"/>
      <point x="535" y="26" type="curve" smooth="yes"/>
      <point x="496" y="70" type="line" smooth="yes"/>
    </contour>
    <contour>
      <point x="262" y="70" type="curve" smooth="yes"/>
      <point x="246" y="70"/>
      <point x="228" y="58"/>
      <point x="208" y="34" type="curve" smooth="yes"/>
      <point x="190" y="11"/>
      <point x="171" y="0"/>
      <point x="151" y="-1" type="curve" smooth="yes"/>
      <point x="125" y="-1"/>
      <point x="102" y="5"/>
      <point x="81" y="19" type="curve" smooth="yes"/>
      <point x="62" y="32"/>
      <point x="53" y="49"/>
      <point x="52" y="72" type="curve" smooth="yes"/>
      <point x="52" y="91"/>
      <point x="57" y="109"/>
      <point x="68" y="128" type="curve" smooth="yes"/>
      <point x="79" y="146"/>
      <point x="93" y="158"/>
      <point x="112" y="165" type="curve" smooth="yes"/>
      <point x="171" y="178" type="line" smooth="yes"/>
      <point x="276" y="201" type="line" smooth="yes"/>
      <point x="308" y="213" type="line" smooth="yes"/>
      <point x="323" y="221"/>
      <point x="330" y="232"/>
      <point x="331" y="247" type="curve" smooth="yes"/>
      <point x="331" y="266" type="line" smooth="yes"/>
      <point x="331" y="282"/>
      <point x="328" y="295"/>
      <point x="320" y="307" type="curve" smooth="yes"/>
      <point x="313" y="317"/>
      <point x="305" y="322"/>
      <point x="294" y="324" type="curve" smooth="yes"/>
      <point x="283" y="324"/>
      <point x="272" y="318"/>
      <point x="259" y="306" type="curve" smooth="yes"/>
      <point x="236" y="281"/>
      <point x="222" y="268"/>
      <point x="217" y="266" type="curve" smooth="yes"/>
      <point x="208" y="266"/>
      <point x="195" y="275"/>
      <point x="177" y="293" type="curve" smooth="yes"/>
      <point x="163" y="310"/>
      <point x="153" y="319"/>
      <point x="147" y="322" type="curve" smooth="yes"/>
      <point x="132" y="324" type="line" smooth="yes"/>
      <point x="114" y="324"/>
      <point x="102" y="317"/>
      <point x="95" y="301" type="curve" smooth="yes"/>
      <point x="93" y="291" type="line" smooth="yes"/>
      <point x="93" y="280" type="line" smooth="yes"/>
      <point x="100" y="283" type="line" smooth="yes"/>
      <point x="125" y="290" type="line" smooth="yes"/>
      <point x="137" y="290"/>
      <point x="145" y="287"/>
      <point x="151" y="279" type="curve" smooth="yes"/>
      <point x="156" y="273"/>
      <point x="158" y="262"/>
      <point x="159" y="246" type="curve" smooth="yes"/>
      <point x="159" y="234"/>
      <point x="149" y="222"/>
      <point x="129" y="210" type="curve" smooth="yes"/>
      <point x="116" y="202"/>
      <point x="105" y="198"/>
      <point x="95" y="197" type="curve" smooth="yes"/>
      <point x="93" y="197"/>
      <point x="90" y="197"/>
      <point x="85" y="199" type="curve" smooth="yes"/>
      <point x="75" y="203"/>
      <point x="67" y="211"/>
      <point x="60" y="224" type="curve" smooth="yes"/>
      <point x="55" y="236"/>
      <point x="53" y="249"/>
      <point x="52" y="265" type="curve" smooth="yes"/>
      <point x="54" y="286" type="line" smooth="yes"/>
      <point x="58" y="307"/>
      <point x="68" y="324"/>
      <point x="85" y="337" type="curve" smooth="yes"/>
      <point x="101" y="349"/>
      <point x="121" y="355"/>
      <point x="145" y="356" type="curve" smooth="yes"/>
      <point x="159" y="356"/>
      <point x="174" y="347"/>
      <point x="191" y="327" type="curve" smooth="yes"/>
      <point x="208" y="309"/>
      <point x="219" y="300"/>
      <point x="226" y="300" type="curve" smooth="yes"/>
      <point x="232" y="301"/>
      <point x="242" y="310"/>
      <point x="256" y="329" type="curve" smooth="yes"/>
      <point x="270" y="347"/>
      <point x="284" y="356"/>
      <point x="299" y="356" type="curve" smooth="yes"/>
      <point x="320" y="356"/>
      <point x="337" y="349"/>
      <point x="350" y="333" type="curve" smooth="yes"/>
      <point x="363" y="319"/>
      <point x="369" y="300"/>
      <point x="370" y="275" type="curve" smooth="yes"/>
      <point x="370" y="250" type="line" smooth="yes"/>
      <point x="370" y="226"/>
      <point x="362" y="208"/>
      <point x="344" y="196" type="curve" smooth="yes"/>
      <point x="337" y="192"/>
      <point x="317" y="185"/>
      <point x="284" y="173" type="curve" smooth="yes"/>
      <point x="142" y="144" type="line" smooth="yes"/>
      <point x="128" y="141"/>
      <point x="116" y="136"/>
      <point x="104" y="127" type="curve" smooth="yes"/>
      <point x="87" y="115"/>
      <point x="79" y="100"/>
      <point x="78" y="80" type="curve" smooth="yes"/>
      <point x="78" y="66"/>
      <point x="85" y="54"/>
      <point x="100" y="42" type="curve" smooth="yes"/>
      <point x="113" y="34"/>
      <point x="129" y="30"/>
      <point x="149" y="30" type="curve" smooth="yes"/>
      <point x="169" y="32"/>
      <point x="190" y="44"/>
      <point x="213" y="68" type="curve" smooth="yes"/>
      <point x="235" y="92"/>
      <point x="257" y="104"/>
      <point x="280" y="104" type="curve" smooth="yes"/>
      <point x="292" y="103" type="line" smooth="yes"/>
      <point x="311" y="101"/>
      <point x="333" y="85"/>
      <point x="359" y="53" type="curve" smooth="yes"/>
      <point x="370" y="39"/>
      <point x="381" y="32"/>
      <point x="392" y="32" type="curve" smooth="yes"/>
      <point x="430" y="32"/>
      <point x="457" y="46"/>
      <point x="473" y="75" type="curve" smooth="yes"/>
      <point x="485" y="98"/>
      <point x="491" y="128"/>
      <point x="492" y="165" type="curve" smooth="yes"/>
      <point x="492" y="185"/>
      <point x="481" y="212"/>
      <point x="459" y="246" type="curve" smooth="yes"/>
      <point x="437" y="280"/>
      <point x="420" y="298"/>
      <point x="406" y="300" type="curve" smooth="yes"/>
      <point x="410" y="313" type="line" smooth="yes"/>
      <point x="449" y="348" type="line" smooth="yes"/>
      <point x="453" y="352"/>
      <point x="457" y="354"/>
      <point x="463" y="355" type="curve" smooth="yes"/>
      <point x="467" y="355"/>
      <point x="471" y="353"/>
      <point x="475" y="348" type="curve" smooth="yes"/>
      <point x="504" y="302" type="line" smooth="yes"/>
      <point x="514" y="286"/>
      <point x="518" y="276"/>
      <point x="516" y="271" type="curve" smooth="yes"/>
      <point x="500" y="283" type="line" smooth="yes"/>
      <point x="475" y="316" type="line" smooth="yes"/>
      <point x="474" y="318"/>
      <point x="472" y="319"/>
      <point x="468" y="321" type="curve" smooth="yes"/>
      <point x="465" y="319"/>
      <point x="463" y="317"/>
      <point x="462" y="315" type="curve" smooth="yes"/>
      <point x="472" y="304" type="line" smooth="yes"/>
      <point x="487" y="289" type="line" smooth="yes"/>
      <point x="500" y="272" type="line" smooth="yes"/>
      <point x="512" y="254"/>
      <point x="520" y="235"/>
      <point x="524" y="215" type="curve" smooth="yes"/>
      <point x="530" y="165" type="line" smooth="yes"/>
      <point x="530" y="125"/>
      <point x="518" y="89"/>
      <point x="493" y="56" type="curve" smooth="yes"/>
      <point x="466" y="20"/>
      <point x="432" y="2"/>
      <point x="390" y="2" type="curve" smooth="yes"/>
      <point x="365" y="2"/>
      <point x="338" y="17"/>
      <point x="307" y="48" type="curve" smooth="yes"/>
      <point x="293" y="62"/>
      <point x="278" y="69"/>
    </contour>
    <contour>
      <point x="101" y="254" type="curve" smooth="yes"/>
      <point x="101" y="249"/>
      <point x="103" y="245"/>
      <point x="107" y="240" type="curve" smooth="yes"/>
      <point x="111" y="236"/>
      <point x="115" y="234"/>
      <point x="120" y="232" type="curve" smooth="yes"/>
      <point x="126" y="232"/>
      <point x="131" y="238"/>
      <point x="135" y="250" type="curve" smooth="yes"/>
      <point x="136" y="254"/>
      <point x="135" y="258"/>
      <point x="131" y="262" type="curve" smooth="yes"/>
      <point x="127" y="266"/>
      <point x="123" y="268"/>
      <point x="117" y="270" type="curve" smooth="yes"/>
      <point x="111" y="270"/>
      <point x="107" y="270"/>
      <point x="105" y="268" type="curve" smooth="yes"/>
      <point x="104" y="267"/>
      <point x="103" y="266"/>
      <point x="102" y="263" type="curve" smooth="yes"/>
      <point x="102" y="261"/>
      <point x="102" y="258"/>
    </contour>
  </outline>
</glyph>
<glyph name="u1A3A" format="2">
  <advance width="540"/>
  <unicode hex="1A3A"/>
  <anchor x="285.5" y="1" name="L"/>
  <anchor x="534" y="0" name="LR"/>
  <anchor x="289.5" y="496" name="U"/>
  <anchor x="473" y="526" name="UR"/>
  <outline>
    <contour>
      <point x="440" y="386" type="line" smooth="yes"/>
      <point x="464" y="310" type="line" smooth="yes"/>
      <point x="471" y="284"/>
      <point x="477" y="258"/>
      <point x="482" y="231" type="curve" smooth="yes"/>
      <point x="486" y="206"/>
      <point x="488" y="186"/>
      <point x="489" y="169" type="curve" smooth="yes"/>
      <point x="489" y="121"/>
      <point x="482" y="83"/>
      <point x="466" y="54" type="curve" smooth="yes"/>
      <point x="448" y="18"/>
      <point x="420" y="0"/>
      <point x="380" y="0" type="curve" smooth="yes"/>
      <point x="352" y="0"/>
      <point x="327" y="9"/>
      <point x="305" y="27" type="curve" smooth="yes"/>
      <point x="283" y="54" type="line" smooth="yes"/>
      <point x="269" y="42"/>
      <point x="258" y="33"/>
      <point x="248" y="27" type="curve" smooth="yes"/>
      <point x="216" y="9"/>
      <point x="184" y="0"/>
      <point x="150" y="-1" type="curve" smooth="yes"/>
      <point x="122" y="-1"/>
      <point x="100" y="6"/>
      <point x="84" y="22" type="curve" smooth="yes"/>
      <point x="66" y="39"/>
      <point x="57" y="62"/>
      <point x="56" y="93" type="curve" smooth="yes"/>
      <point x="56" y="113"/>
      <point x="64" y="130"/>
      <point x="82" y="146" type="curve" smooth="yes"/>
      <point x="105" y="165" type="line" smooth="yes"/>
      <point x="69" y="187"/>
      <point x="51" y="218"/>
      <point x="51" y="260" type="curve" smooth="yes"/>
      <point x="51" y="287"/>
      <point x="60" y="309"/>
      <point x="78" y="328" type="curve" smooth="yes"/>
      <point x="96" y="346"/>
      <point x="121" y="355"/>
      <point x="154" y="356" type="curve" smooth="yes"/>
      <point x="174" y="356"/>
      <point x="191" y="348"/>
      <point x="205" y="331" type="curve" smooth="yes"/>
      <point x="219" y="315"/>
      <point x="226" y="296"/>
      <point x="227" y="272" type="curve" smooth="yes"/>
      <point x="227" y="258"/>
      <point x="218" y="244"/>
      <point x="198" y="230" type="curve" smooth="yes"/>
      <point x="180" y="217"/>
      <point x="163" y="211"/>
      <point x="145" y="210" type="curve" smooth="yes"/>
      <point x="133" y="210"/>
      <point x="125" y="214"/>
      <point x="120" y="223" type="curve" smooth="yes"/>
      <point x="116" y="245" type="line" smooth="yes"/>
      <point x="116" y="259"/>
      <point x="121" y="272"/>
      <point x="132" y="285" type="curve" smooth="yes"/>
      <point x="138" y="291"/>
      <point x="144" y="295"/>
      <point x="150" y="297" type="curve" smooth="yes"/>
      <point x="169" y="301" type="line" smooth="yes"/>
      <point x="185" y="301" type="line" smooth="yes"/>
      <point x="172" y="316" type="line" smooth="yes"/>
      <point x="161" y="325"/>
      <point x="150" y="330"/>
      <point x="138" y="332" type="curve" smooth="yes"/>
      <point x="120" y="332"/>
      <point x="105" y="326"/>
      <point x="92" y="313" type="curve" smooth="yes"/>
      <point x="81" y="301"/>
      <point x="76" y="286"/>
      <point x="75" y="268" type="curve" smooth="yes"/>
      <point x="75" y="257"/>
      <point x="78" y="246"/>
      <point x="84" y="234" type="curve" smooth="yes"/>
      <point x="93" y="217"/>
      <point x="108" y="200"/>
      <point x="130" y="181" type="curve" smooth="yes"/>
      <point x="158" y="161" type="line" smooth="yes"/>
      <point x="141" y="153"/>
      <point x="127" y="144"/>
      <point x="115" y="134" type="curve" smooth="yes"/>
      <point x="99" y="120"/>
      <point x="91" y="106"/>
      <point x="91" y="91" type="curve" smooth="yes"/>
      <point x="94" y="73" type="line" smooth="yes"/>
      <point x="96" y="65"/>
      <point x="103" y="57"/>
      <point x="116" y="47" type="curve" smooth="yes"/>
      <point x="124" y="41"/>
      <point x="137" y="36"/>
      <point x="157" y="31" type="curve" smooth="yes"/>
      <point x="171" y="29" type="line" smooth="yes"/>
      <point x="193" y="29"/>
      <point x="218" y="39"/>
      <point x="246" y="61" type="curve" smooth="yes"/>
      <point x="254" y="66"/>
      <point x="266" y="77"/>
      <point x="283" y="94" type="curve" smooth="yes"/>
      <point x="312" y="61" type="line" smooth="yes"/>
      <point x="338" y="39"/>
      <point x="360" y="28"/>
      <point x="378" y="27" type="curve" smooth="yes"/>
      <point x="406" y="27"/>
      <point x="428" y="43"/>
      <point x="444" y="75" type="curve" smooth="yes"/>
      <point x="456" y="101"/>
      <point x="462" y="133"/>
      <point x="462" y="172" type="curve" smooth="yes"/>
      <point x="462" y="192"/>
      <point x="457" y="222"/>
      <point x="447" y="263" type="curve" smooth="yes"/>
      <point x="412" y="384" type="line" smooth="yes"/>
      <point x="362" y="377" type="line" smooth="yes"/>
      <point x="340" y="375"/>
      <point x="321" y="373"/>
      <point x="303" y="371" type="curve" smooth="yes"/>
      <point x="287" y="370"/>
      <point x="270" y="370"/>
      <point x="252" y="369" type="curve" smooth="yes"/>
      <point x="230" y="369" type="line" smooth="yes"/>
      <point x="207" y="371" type="line" smooth="yes"/>
      <point x="191" y="371"/>
      <point x="178" y="371"/>
      <point x="166" y="373" type="curve" smooth="yes"/>
      <point x="155" y="375"/>
      <point x="144" y="377"/>
      <point x="133" y="381" type="curve" smooth="yes"/>
      <point x="99" y="389"/>
      <point x="74" y="403"/>
      <point x="56" y="425" type="curve" smooth="yes"/>
      <point x="42" y="442"/>
      <point x="32" y="460"/>
      <point x="26" y="480" type="curve" smooth="yes"/>
      <point x="20" y="499"/>
      <point x="17" y="518"/>
      <point x="17" y="538" type="curve" smooth="yes"/>
      <point x="18" y="562" type="line" smooth="yes"/>
      <point x="24" y="591" type="line" smooth="yes"/>
      <point x="34" y="624" type="line" smooth="yes"/>
      <point x="56" y="676"/>
      <point x="94" y="711"/>
      <point x="150" y="729" type="curve" smooth="yes"/>
      <point x="172" y="736"/>
      <point x="193" y="741"/>
      <point x="215" y="744" type="curve" smooth="yes"/>
      <point x="283" y="748" type="line" smooth="yes"/>
      <point x="295" y="748"/>
      <point x="307" y="748"/>
      <point x="321" y="748" type="curve" smooth="yes"/>
      <point x="332" y="746"/>
      <point x="344" y="745"/>
      <point x="358" y="743" type="curve" smooth="yes"/>
      <point x="371" y="742"/>
      <point x="389" y="739"/>
      <point x="412" y="732" type="curve" smooth="yes"/>
      <point x="435" y="728"/>
      <point x="459" y="717"/>
      <point x="484" y="697" type="curve" smooth="yes"/>
      <point x="505" y="681"/>
      <point x="516" y="669"/>
      <point x="518" y="661" type="curve" smooth="yes"/>
      <point x="499" y="669" type="line" smooth="yes"/>
      <point x="463" y="694"/>
      <point x="430" y="709"/>
      <point x="400" y="716" type="curve" smooth="yes"/>
      <point x="345" y="723" type="line" smooth="yes"/>
      <point x="286" y="726" type="line" smooth="yes"/>
      <point x="272" y="726"/>
      <point x="259" y="726"/>
      <point x="246" y="725" type="curve" smooth="yes"/>
      <point x="234" y="725"/>
      <point x="219" y="724"/>
      <point x="201" y="720" type="curve" smooth="yes"/>
      <point x="184" y="718"/>
      <point x="166" y="713"/>
      <point x="146" y="704" type="curve" smooth="yes"/>
      <point x="128" y="696"/>
      <point x="109" y="680"/>
      <point x="88" y="655" type="curve" smooth="yes"/>
      <point x="69" y="632"/>
      <point x="57" y="608"/>
      <point x="50" y="581" type="curve" smooth="yes"/>
      <point x="47" y="552" type="line" smooth="yes"/>
      <point x="47" y="518"/>
      <point x="58" y="487"/>
      <point x="80" y="459" type="curve" smooth="yes"/>
      <point x="105" y="428"/>
      <point x="142" y="409"/>
      <point x="192" y="400" type="curve" smooth="yes"/>
      <point x="245" y="397" type="line" smooth="yes"/>
      <point x="276" y="397"/>
      <point x="311" y="399"/>
      <point x="351" y="403" type="curve" smooth="yes"/>
      <point x="404" y="410" type="line" smooth="yes"/>
      <point x="404" y="432"/>
      <point x="407" y="450"/>
      <point x="414" y="465" type="curve" smooth="yes"/>
      <point x="420" y="480"/>
      <point x="434" y="492"/>
      <point x="458" y="501" type="curve" smooth="yes"/>
      <point x="481" y="505" type="line" smooth="yes"/>
      <point x="493" y="505"/>
      <point x="504" y="502"/>
      <point x="514" y="495" type="curve" smooth="yes"/>
      <point x="523" y="490"/>
      <point x="528" y="484"/>
      <point x="531" y="475" type="curve" smooth="yes"/>
      <point x="533" y="458" type="line" smooth="yes"/>
      <point x="533" y="446"/>
      <point x="529" y="435"/>
      <point x="521" y="425" type="curve" smooth="yes"/>
      <point x="499" y="406" type="line" smooth="yes"/>
      <point x="495" y="404"/>
      <point x="490" y="401"/>
      <point x="482" y="397" type="curve" smooth="yes"/>
      <point x="475" y="395"/>
      <point x="468" y="393"/>
      <point x="460" y="389" type="curve" smooth="yes"/>
    </contour>
    <contour>
      <point x="191" y="276" type="line" smooth="yes"/>
      <point x="176" y="276" type="line" smooth="yes"/>
      <point x="172" y="276"/>
      <point x="168" y="275"/>
      <point x="164" y="272" type="curve" smooth="yes"/>
      <point x="161" y="270"/>
      <point x="158" y="266"/>
      <point x="153" y="260" type="curve" smooth="yes"/>
      <point x="149" y="255"/>
      <point x="147" y="250"/>
      <point x="147" y="245" type="curve" smooth="yes"/>
      <point x="147" y="241"/>
      <point x="148" y="238"/>
      <point x="151" y="236" type="curve" smooth="yes"/>
      <point x="159" y="233" type="line" smooth="yes"/>
      <point x="163" y="233"/>
      <point x="171" y="237"/>
      <point x="183" y="246" type="curve" smooth="yes"/>
      <point x="189" y="250"/>
      <point x="192" y="256"/>
      <point x="194" y="265" type="curve" smooth="yes"/>
    </contour>
    <contour>
      <point x="502" y="464" type="curve" smooth="yes"/>
      <point x="499" y="470"/>
      <point x="493" y="473"/>
      <point x="483" y="473" type="curve" smooth="yes"/>
      <point x="473" y="473"/>
      <point x="464" y="471"/>
      <point x="456" y="465" type="curve" smooth="yes"/>
      <point x="448" y="461"/>
      <point x="442" y="455"/>
      <point x="438" y="447" type="curve" smooth="yes"/>
      <point x="434" y="429" type="line" smooth="yes"/>
      <point x="434" y="421" type="line" smooth="yes"/>
      <point x="435" y="418" type="line" smooth="yes"/>
      <point x="453" y="418"/>
      <point x="469" y="423"/>
      <point x="485" y="434" type="curve" smooth="yes"/>
      <point x="499" y="449" type="line" smooth="yes"/>
      <point x="503" y="455"/>
      <point x="504" y="460"/>
    </contour>
  </outline>
</glyph>
<glyph name="u1A3B" format="2">
  <advance width="538"/>
  <unicode hex="1A3B"/>
  <anchor x="299.5" y="0" name="L"/>
  <anchor x="499" y="0" name="LR"/>
  <anchor x="279.5" y="416" name="U"/>
  <anchor x="499" y="416" name="UR"/>
  <outline>
    <contour>
      <point x="189" y="110" type="curve" smooth="yes"/>
      <point x="206" y="112"/>
      <point x="220" y="107"/>
      <point x="233" y="95" type="curve" smooth="yes"/>
      <point x="243" y="83"/>
      <point x="248" y="68"/>
      <point x="249" y="48" type="curve" smooth="yes"/>
      <point x="249" y="36"/>
      <point x="241" y="25"/>
      <point x="223" y="14" type="curve" smooth="yes"/>
      <point x="207" y="4"/>
      <point x="192" y="-1"/>
      <point x="176" y="-2" type="curve" smooth="yes"/>
      <point x="134" y="-2"/>
      <point x="103" y="16"/>
      <point x="81" y="54" type="curve" smooth="yes"/>
      <point x="65" y="85"/>
      <point x="57" y="126"/>
      <point x="56" y="178" type="curve" smooth="yes"/>
      <point x="56" y="217"/>
      <point x="69" y="256"/>
      <point x="96" y="296" type="curve" smooth="yes"/>
      <point x="123" y="336"/>
      <point x="156" y="356"/>
      <point x="195" y="356" type="curve" smooth="yes"/>
      <point x="206" y="356"/>
      <point x="219" y="352"/>
      <point x="235" y="344" type="curve" smooth="yes"/>
      <point x="276" y="317" type="line" smooth="yes"/>
      <point x="289" y="327"/>
      <point x="303" y="336"/>
      <point x="319" y="344" type="curve" smooth="yes"/>
      <point x="334" y="352"/>
      <point x="348" y="356"/>
      <point x="361" y="356" type="curve" smooth="yes"/>
      <point x="403" y="356"/>
      <point x="437" y="340"/>
      <point x="463" y="307" type="curve" smooth="yes"/>
      <point x="489" y="275"/>
      <point x="502" y="233"/>
      <point x="502" y="179" type="curve" smooth="yes"/>
      <point x="502" y="146"/>
      <point x="499" y="119"/>
      <point x="493" y="98" type="curve" smooth="yes"/>
      <point x="488" y="78"/>
      <point x="479" y="61"/>
      <point x="465" y="45" type="curve" smooth="yes"/>
      <point x="462" y="42"/>
      <point x="455" y="38"/>
      <point x="443" y="32" type="curve" smooth="yes"/>
      <point x="414" y="20" type="line" smooth="yes"/>
      <point x="406" y="16" type="line" smooth="yes"/>
      <point x="398" y="15" type="line" smooth="yes"/>
      <point x="433" y="28" type="line" smooth="yes"/>
      <point x="458" y="35" type="line" smooth="yes"/>
      <point x="477" y="37" type="line" smooth="yes"/>
      <point x="454" y="13" type="line" smooth="yes"/>
      <point x="442" y="3"/>
      <point x="426" y="-2"/>
      <point x="405" y="-2" type="curve" smooth="yes"/>
      <point x="391" y="-2"/>
      <point x="381" y="-1"/>
      <point x="375" y="3" type="curve" smooth="yes"/>
      <point x="370" y="6"/>
      <point x="363" y="15"/>
      <point x="354" y="30" type="curve" smooth="yes"/>
      <point x="358" y="40"/>
      <point x="362" y="46"/>
      <point x="367" y="48" type="curve" smooth="yes"/>
      <point x="372" y="50"/>
      <point x="380" y="52"/>
      <point x="391" y="54" type="curve" smooth="yes"/>
      <point x="402" y="54"/>
      <point x="410" y="55"/>
      <point x="417" y="57" type="curve" smooth="yes"/>
      <point x="431" y="63"/>
      <point x="442" y="72"/>
      <point x="451" y="86" type="curve" smooth="yes"/>
      <point x="459" y="99"/>
      <point x="463" y="121"/>
      <point x="464" y="153" type="curve" smooth="yes"/>
      <point x="464" y="174" type="line" smooth="yes"/>
      <point x="464" y="221"/>
      <point x="451" y="260"/>
      <point x="425" y="293" type="curve" smooth="yes"/>
      <point x="403" y="319"/>
      <point x="380" y="332"/>
      <point x="356" y="332" type="curve" smooth="yes"/>
      <point x="348" y="332"/>
      <point x="336" y="327"/>
      <point x="319" y="315" type="curve" smooth="yes"/>
      <point x="268" y="280" type="line" smooth="yes"/>
      <point x="225" y="312" type="line" smooth="yes"/>
      <point x="212" y="321"/>
      <point x="200" y="326"/>
      <point x="188" y="328" type="curve" smooth="yes"/>
      <point x="165" y="328"/>
      <point x="144" y="316"/>
      <point x="123" y="292" type="curve" smooth="yes"/>
      <point x="101" y="264"/>
      <point x="90" y="227"/>
      <point x="90" y="180" type="curve" smooth="yes"/>
      <point x="90" y="145"/>
      <point x="93" y="116"/>
      <point x="100" y="92" type="curve" smooth="yes"/>
      <point x="106" y="69"/>
      <point x="119" y="52"/>
      <point x="141" y="41" type="curve" smooth="yes"/>
      <point x="142" y="49"/>
      <point x="143" y="56"/>
      <point x="146" y="62" type="curve" smooth="yes"/>
      <point x="148" y="68"/>
      <point x="152" y="75"/>
      <point x="158" y="85" type="curve" smooth="yes"/>
      <point x="168" y="99"/>
      <point x="178" y="107"/>
    </contour>
    <contour>
      <point x="166" y="33" type="line" smooth="yes"/>
      <point x="192" y="31" type="line" smooth="yes"/>
      <point x="208" y="31"/>
      <point x="215" y="37"/>
      <point x="213" y="49" type="curve" smooth="yes"/>
      <point x="211" y="63"/>
      <point x="206" y="70"/>
      <point x="196" y="71" type="curve" smooth="yes"/>
      <point x="185" y="66" type="line" smooth="yes"/>
      <point x="181" y="64"/>
      <point x="177" y="60"/>
      <point x="173" y="54" type="curve" smooth="yes"/>
    </contour>
  </outline>
</glyph>
<glyph name="u1A3D" format="2">
  <advance width="635"/>
  <unicode hex="1A3D"/>
  <anchor x="316.5" y="0" name="L"/>
  <anchor x="576" y="0" name="LR"/>
  <anchor x="316.5" y="416" name="U"/>
  <anchor x="576" y="416" name="UR"/>
  <outline>
    <contour>
      <point x="324" y="255" type="curve" smooth="yes"/>
      <point x="316" y="243"/>
      <point x="309" y="237"/>
      <point x="301" y="236" type="curve" smooth="yes"/>
      <point x="300" y="238"/>
      <point x="300" y="240"/>
      <point x="299" y="242" type="curve" smooth="yes"/>
      <point x="299" y="246"/>
      <point x="301" y="252"/>
      <point x="307" y="262" type="curve" smooth="yes"/>
      <point x="322" y="291"/>
      <point x="335" y="311"/>
      <point x="348" y="322" type="curve" smooth="yes"/>
      <point x="370" y="344"/>
      <point x="397" y="355"/>
      <point x="431" y="355" type="curve" smooth="yes"/>
      <point x="471" y="355"/>
      <point x="506" y="335"/>
      <point x="538" y="295" type="curve" smooth="yes"/>
      <point x="564" y="259"/>
      <point x="577" y="222"/>
      <point x="578" y="184" type="curve" smooth="yes"/>
      <point x="578" y="163"/>
      <point x="576" y="142"/>
      <point x="570" y="121" type="curve" smooth="yes"/>
      <point x="565" y="101"/>
      <point x="556" y="84"/>
      <point x="542" y="68" type="curve" smooth="yes"/>
      <point x="527" y="53" type="line" smooth="yes"/>
      <point x="519" y="45"/>
      <point x="510" y="40"/>
      <point x="498" y="37" type="curve" smooth="yes"/>
      <point x="489" y="33"/>
      <point x="485" y="29"/>
      <point x="484" y="25" type="curve" smooth="yes"/>
      <point x="486" y="25"/>
      <point x="488" y="25"/>
      <point x="491" y="27" type="curve" smooth="yes"/>
      <point x="503" y="33" type="line" smooth="yes"/>
      <point x="542" y="52" type="line" smooth="yes"/>
      <point x="503" y="18" type="line" smooth="yes"/>
      <point x="491" y="7"/>
      <point x="477" y="2"/>
      <point x="460" y="1" type="curve" smooth="yes"/>
      <point x="447" y="0" type="line" smooth="yes"/>
      <point x="437" y="-1" type="line" smooth="yes"/>
      <point x="433" y="-1"/>
      <point x="431" y="2"/>
      <point x="430" y="9" type="curve" smooth="yes"/>
      <point x="436" y="30"/>
      <point x="440" y="42"/>
      <point x="444" y="45" type="curve" smooth="yes"/>
      <point x="463" y="50" type="line" smooth="yes"/>
      <point x="493" y="58"/>
      <point x="515" y="71"/>
      <point x="530" y="90" type="curve" smooth="yes"/>
      <point x="545" y="109"/>
      <point x="552" y="139"/>
      <point x="553" y="181" type="curve" smooth="yes"/>
      <point x="553" y="212"/>
      <point x="539" y="243"/>
      <point x="509" y="275" type="curve" smooth="yes"/>
      <point x="480" y="306"/>
      <point x="452" y="321"/>
      <point x="424" y="322" type="curve" smooth="yes"/>
      <point x="402" y="322"/>
      <point x="384" y="318"/>
      <point x="369" y="309" type="curve" smooth="yes"/>
      <point x="363" y="305"/>
      <point x="348" y="287"/>
    </contour>
    <contour>
      <point x="119" y="238" type="curve" smooth="yes"/>
      <point x="119" y="240"/>
      <point x="119" y="241"/>
      <point x="117" y="243" type="curve" smooth="yes"/>
      <point x="117" y="244"/>
      <point x="116" y="247"/>
      <point x="112" y="252" type="curve" smooth="yes"/>
      <point x="109" y="256"/>
      <point x="105" y="259"/>
      <point x="100" y="262" type="curve" smooth="yes"/>
      <point x="97" y="264"/>
      <point x="93" y="264"/>
      <point x="87" y="260" type="curve" smooth="yes"/>
      <point x="83" y="257"/>
      <point x="80" y="253"/>
      <point x="77" y="247" type="curve" smooth="yes"/>
      <point x="77" y="243"/>
      <point x="79" y="239"/>
      <point x="84" y="234" type="curve" smooth="yes"/>
      <point x="92" y="230" type="line" smooth="yes"/>
      <point x="106" y="229" type="line" smooth="yes"/>
      <point x="112" y="229"/>
      <point x="116" y="232"/>
    </contour>
    <contour>
      <point x="334" y="191" type="curve" smooth="yes"/>
      <point x="334" y="172"/>
      <point x="327" y="151"/>
      <point x="312" y="127" type="curve" smooth="yes"/>
      <point x="292" y="95"/>
      <point x="261" y="65"/>
      <point x="218" y="36" type="curve" smooth="yes"/>
      <point x="187" y="23" type="line" smooth="yes"/>
      <point x="159" y="18" type="line" smooth="yes"/>
      <point x="149" y="19" type="line" smooth="yes"/>
      <point x="142" y="17" type="line" smooth="yes"/>
      <point x="145" y="13"/>
      <point x="149" y="11"/>
      <point x="154" y="11" type="curve" smooth="yes"/>
      <point x="162" y="11"/>
      <point x="173" y="13"/>
      <point x="189" y="18" type="curve" smooth="yes"/>
      <point x="196" y="19"/>
      <point x="206" y="22"/>
      <point x="219" y="29" type="curve" smooth="yes"/>
      <point x="209" y="16" type="line" smooth="yes"/>
      <point x="192" y="4"/>
      <point x="175" y="-2"/>
      <point x="158" y="-2" type="curve" smooth="yes"/>
      <point x="123" y="-2"/>
      <point x="105" y="3"/>
      <point x="102" y="15" type="curve" smooth="yes"/>
      <point x="104" y="19"/>
      <point x="110" y="26"/>
      <point x="121" y="36" type="curve" smooth="yes"/>
      <point x="131" y="46"/>
      <point x="139" y="51"/>
      <point x="145" y="51" type="curve" smooth="yes"/>
      <point x="161" y="49" type="line" smooth="yes"/>
      <point x="167" y="49"/>
      <point x="171" y="49"/>
      <point x="175" y="51" type="curve" smooth="yes"/>
      <point x="202" y="62" type="line" smooth="yes"/>
      <point x="241" y="80"/>
      <point x="267" y="98"/>
      <point x="281" y="117" type="curve" smooth="yes"/>
      <point x="295" y="135"/>
      <point x="302" y="155"/>
      <point x="302" y="179" type="curve" smooth="yes"/>
      <point x="302" y="217"/>
      <point x="290" y="251"/>
      <point x="265" y="281" type="curve" smooth="yes"/>
      <point x="241" y="311"/>
      <point x="213" y="326"/>
      <point x="181" y="326" type="curve" smooth="yes"/>
      <point x="161" y="326"/>
      <point x="145" y="323"/>
      <point x="133" y="317" type="curve" smooth="yes"/>
      <point x="122" y="312"/>
      <point x="111" y="300"/>
      <point x="99" y="281" type="curve" smooth="yes"/>
      <point x="111" y="284" type="line" smooth="yes"/>
      <point x="121" y="284" type="line" smooth="yes"/>
      <point x="139" y="277"/>
      <point x="148" y="265"/>
      <point x="148" y="248" type="curve" smooth="yes"/>
      <point x="148" y="240"/>
      <point x="143" y="232"/>
      <point x="133" y="223" type="curve" smooth="yes"/>
      <point x="123" y="217"/>
      <point x="110" y="214"/>
      <point x="94" y="213" type="curve" smooth="yes"/>
      <point x="82" y="213"/>
      <point x="72" y="215"/>
      <point x="64" y="221" type="curve" smooth="yes"/>
      <point x="57" y="226"/>
      <point x="54" y="235"/>
      <point x="53" y="249" type="curve" smooth="yes"/>
      <point x="53" y="269"/>
      <point x="64" y="290"/>
      <point x="88" y="314" type="curve" smooth="yes"/>
      <point x="116" y="341"/>
      <point x="149" y="354"/>
      <point x="189" y="355" type="curve" smooth="yes"/>
      <point x="235" y="355"/>
      <point x="271" y="338"/>
      <point x="298" y="302" type="curve" smooth="yes"/>
      <point x="322" y="271"/>
      <point x="334" y="234"/>
    </contour>
  </outline>
</glyph>
<glyph name="u1A40" format="2">
  <advance width="593"/>
  <unicode hex="1A40"/>
  <anchor x="285" y="0" name="L"/>
  <anchor x="504" y="0" name="LR"/>
  <anchor x="284.5" y="416" name="U"/>
  <anchor x="494" y="686" name="UR"/>
  <outline>
    <contour>
      <point x="502" y="165" type="line" smooth="yes"/>
      <point x="502" y="120"/>
      <point x="493" y="83"/>
      <point x="473" y="52" type="curve" smooth="yes"/>
      <point x="451" y="18"/>
      <point x="420" y="1"/>
      <point x="380" y="0" type="curve" smooth="yes"/>
      <point x="352" y="0"/>
      <point x="327" y="9"/>
      <point x="305" y="27" type="curve" smooth="yes"/>
      <point x="283" y="54" type="line" smooth="yes"/>
      <point x="269" y="42"/>
      <point x="258" y="33"/>
      <point x="248" y="27" type="curve" smooth="yes"/>
      <point x="216" y="9"/>
      <point x="184" y="0"/>
      <point x="150" y="-1" type="curve" smooth="yes"/>
      <point x="122" y="-1"/>
      <point x="100" y="6"/>
      <point x="84" y="22" type="curve" smooth="yes"/>
      <point x="66" y="39"/>
      <point x="57" y="62"/>
      <point x="56" y="93" type="curve" smooth="yes"/>
      <point x="56" y="113"/>
      <point x="64" y="130"/>
      <point x="82" y="146" type="curve" smooth="yes"/>
      <point x="105" y="165" type="line" smooth="yes"/>
      <point x="69" y="187"/>
      <point x="51" y="218"/>
      <point x="51" y="260" type="curve" smooth="yes"/>
      <point x="51" y="287"/>
      <point x="60" y="309"/>
      <point x="78" y="328" type="curve" smooth="yes"/>
      <point x="96" y="346"/>
      <point x="121" y="355"/>
      <point x="154" y="356" type="curve" smooth="yes"/>
      <point x="174" y="356"/>
      <point x="191" y="348"/>
      <point x="205" y="331" type="curve" smooth="yes"/>
      <point x="219" y="315"/>
      <point x="226" y="296"/>
      <point x="227" y="272" type="curve" smooth="yes"/>
      <point x="227" y="258"/>
      <point x="218" y="244"/>
      <point x="198" y="230" type="curve" smooth="yes"/>
      <point x="180" y="217"/>
      <point x="163" y="211"/>
      <point x="145" y="210" type="curve" smooth="yes"/>
      <point x="133" y="210"/>
      <point x="125" y="214"/>
      <point x="120" y="223" type="curve" smooth="yes"/>
      <point x="116" y="245" type="line" smooth="yes"/>
      <point x="116" y="259"/>
      <point x="121" y="272"/>
      <point x="132" y="285" type="curve" smooth="yes"/>
      <point x="138" y="291"/>
      <point x="144" y="295"/>
      <point x="150" y="297" type="curve" smooth="yes"/>
      <point x="169" y="301" type="line" smooth="yes"/>
      <point x="185" y="301" type="line" smooth="yes"/>
      <point x="172" y="316" type="line" smooth="yes"/>
      <point x="161" y="325"/>
      <point x="150" y="330"/>
      <point x="138" y="332" type="curve" smooth="yes"/>
      <point x="120" y="332"/>
      <point x="105" y="326"/>
      <point x="92" y="313" type="curve" smooth="yes"/>
      <point x="81" y="301"/>
      <point x="76" y="286"/>
      <point x="75" y="268" type="curve" smooth="yes"/>
      <point x="75" y="257"/>
      <point x="78" y="246"/>
      <point x="84" y="234" type="curve" smooth="yes"/>
      <point x="93" y="217"/>
      <point x="108" y="200"/>
      <point x="130" y="181" type="curve" smooth="yes"/>
      <point x="158" y="161" type="line" smooth="yes"/>
      <point x="141" y="153"/>
      <point x="127" y="144"/>
      <point x="115" y="134" type="curve" smooth="yes"/>
      <point x="99" y="120"/>
      <point x="91" y="106"/>
      <point x="91" y="91" type="curve" smooth="yes"/>
      <point x="94" y="73" type="line" smooth="yes"/>
      <point x="96" y="65"/>
      <point x="103" y="57"/>
      <point x="116" y="47" type="curve" smooth="yes"/>
      <point x="124" y="41"/>
      <point x="137" y="36"/>
      <point x="157" y="31" type="curve" smooth="yes"/>
      <point x="171" y="29" type="line" smooth="yes"/>
      <point x="193" y="29"/>
      <point x="218" y="39"/>
      <point x="246" y="61" type="curve" smooth="yes"/>
      <point x="254" y="66"/>
      <point x="266" y="77"/>
      <point x="283" y="94" type="curve" smooth="yes"/>
      <point x="312" y="61" type="line" smooth="yes"/>
      <point x="338" y="39"/>
      <point x="360" y="28"/>
      <point x="378" y="27" type="curve" smooth="yes"/>
      <point x="406" y="27"/>
      <point x="428" y="44"/>
      <point x="444" y="78" type="curve" smooth="yes"/>
      <point x="456" y="106"/>
      <point x="462" y="140"/>
      <point x="462" y="182" type="curve" smooth="yes"/>
      <point x="463" y="195" type="line" smooth="yes"/>
      <point x="463" y="206" type="line" smooth="yes"/>
      <point x="463" y="229"/>
      <point x="461" y="252"/>
      <point x="457" y="277" type="curve" smooth="yes"/>
      <point x="453" y="301"/>
      <point x="449" y="319"/>
      <point x="444" y="332" type="curve" smooth="yes"/>
      <point x="424" y="408" type="line" smooth="yes"/>
      <point x="420" y="432"/>
      <point x="418" y="454"/>
      <point x="418" y="475" type="curve" smooth="yes"/>
      <point x="418" y="511"/>
      <point x="424" y="544"/>
      <point x="437" y="574" type="curve" smooth="yes"/>
      <point x="445" y="593"/>
      <point x="458" y="615"/>
      <point x="476" y="640" type="curve" smooth="yes"/>
      <point x="487" y="654"/>
      <point x="503" y="661"/>
      <point x="526" y="662" type="curve" smooth="yes"/>
      <point x="538" y="662"/>
      <point x="548" y="659"/>
      <point x="556" y="653" type="curve" smooth="yes"/>
      <point x="564" y="649"/>
      <point x="569" y="640"/>
      <point x="572" y="624" type="curve" smooth="yes"/>
      <point x="565" y="618" type="line" smooth="yes"/>
      <point x="516" y="632" type="line" smooth="yes"/>
      <point x="509" y="632"/>
      <point x="502" y="631"/>
      <point x="495" y="627" type="curve" smooth="yes"/>
      <point x="489" y="624"/>
      <point x="482" y="615"/>
      <point x="473" y="600" type="curve" smooth="yes"/>
      <point x="471" y="595"/>
      <point x="469" y="588"/>
      <point x="465" y="578" type="curve" smooth="yes"/>
      <point x="463" y="569"/>
      <point x="461" y="563"/>
      <point x="459" y="558" type="curve" smooth="yes"/>
      <point x="457" y="544"/>
      <point x="456" y="527"/>
      <point x="456" y="505" type="curve" smooth="yes"/>
      <point x="456" y="466" type="line" smooth="yes"/>
      <point x="456" y="445"/>
      <point x="460" y="419"/>
      <point x="469" y="388" type="curve" smooth="yes"/>
      <point x="490" y="316" type="line" smooth="yes"/>
      <point x="493" y="304"/>
      <point x="496" y="286"/>
      <point x="500" y="261" type="curve" smooth="yes"/>
      <point x="504" y="196" type="line" smooth="yes"/>
      <point x="504" y="179" type="line" smooth="yes"/>
    </contour>
    <contour>
      <point x="196" y="278" type="line" smooth="yes"/>
      <point x="179" y="277" type="line" smooth="yes"/>
      <point x="173" y="277"/>
      <point x="168" y="276"/>
      <point x="164" y="272" type="curve" smooth="yes"/>
      <point x="152" y="259" type="line" smooth="yes"/>
      <point x="149" y="255"/>
      <point x="148" y="251"/>
      <point x="147" y="245" type="curve" smooth="yes"/>
      <point x="147" y="241"/>
      <point x="148" y="238"/>
      <point x="150" y="236" type="curve" smooth="yes"/>
      <point x="152" y="235"/>
      <point x="156" y="235"/>
      <point x="163" y="234" type="curve" smooth="yes"/>
      <point x="167" y="235"/>
      <point x="174" y="239"/>
      <point x="184" y="247" type="curve" smooth="yes"/>
      <point x="192" y="252"/>
      <point x="196" y="259"/>
      <point x="198" y="270" type="curve" smooth="yes"/>
    </contour>
  </outline>
</glyph>
<glyph name="u1A49" format="2">
  <advance width="673"/>
  <unicode hex="1A49"/>
  <anchor x="344.5" y="0" name="L"/>
  <anchor x="612" y="0" name="LR"/>
  <anchor x="344.5" y="416" name="U"/>
  <anchor x="612" y="416" name="UR"/>
  <outline>
    <contour>
      <point x="91" y="310" type="curve" smooth="yes"/>
      <point x="96" y="292"/>
      <point x="102" y="283"/>
      <point x="111" y="283" type="curve" smooth="yes"/>
      <point x="120" y="283"/>
      <point x="126" y="286"/>
      <point x="131" y="292" type="curve" smooth="yes"/>
      <point x="127" y="311" type="line" smooth="yes"/>
      <point x="125" y="321"/>
      <point x="121" y="326"/>
      <point x="113" y="327" type="curve" smooth="yes"/>
      <point x="107" y="327"/>
      <point x="102" y="326"/>
      <point x="97" y="323" type="curve" smooth="yes"/>
      <point x="93" y="321"/>
      <point x="91" y="317"/>
    </contour>
    <contour>
      <point x="57" y="157" type="curve" smooth="yes"/>
      <point x="57" y="175"/>
      <point x="68" y="192"/>
      <point x="92" y="210" type="curve" smooth="yes"/>
      <point x="147" y="250" type="line" smooth="yes"/>
      <point x="149" y="252"/>
      <point x="150" y="256"/>
      <point x="151" y="262" type="curve" smooth="yes"/>
      <point x="151" y="267"/>
      <point x="151" y="271"/>
      <point x="149" y="274" type="curve" smooth="yes"/>
      <point x="145" y="278" type="line" smooth="yes"/>
      <point x="130" y="261"/>
      <point x="114" y="254"/>
      <point x="96" y="255" type="curve" smooth="yes"/>
      <point x="92" y="255"/>
      <point x="85" y="262"/>
      <point x="74" y="277" type="curve" smooth="yes"/>
      <point x="66" y="289"/>
      <point x="62" y="300"/>
      <point x="60" y="310" type="curve" smooth="yes"/>
      <point x="63" y="318" type="line" smooth="yes"/>
      <point x="65" y="320"/>
      <point x="69" y="323"/>
      <point x="76" y="329" type="curve" smooth="yes"/>
      <point x="82" y="333"/>
      <point x="88" y="337"/>
      <point x="95" y="342" type="curve" smooth="yes"/>
      <point x="107" y="350"/>
      <point x="117" y="354"/>
      <point x="125" y="356" type="curve" smooth="yes"/>
      <point x="137" y="356"/>
      <point x="149" y="346"/>
      <point x="162" y="325" type="curve" smooth="yes"/>
      <point x="174" y="305"/>
      <point x="180" y="286"/>
      <point x="180" y="268" type="curve" smooth="yes"/>
      <point x="180" y="256"/>
      <point x="165" y="240"/>
      <point x="135" y="219" type="curve" smooth="yes"/>
      <point x="105" y="199"/>
      <point x="90" y="178"/>
      <point x="90" y="156" type="curve" smooth="yes"/>
      <point x="90" y="120"/>
      <point x="100" y="90"/>
      <point x="122" y="66" type="curve" smooth="yes"/>
      <point x="144" y="42"/>
      <point x="169" y="30"/>
      <point x="199" y="30" type="curve" smooth="yes"/>
      <point x="222" y="30"/>
      <point x="249" y="45"/>
      <point x="280" y="76" type="curve" smooth="yes"/>
      <point x="311" y="107"/>
      <point x="326" y="135"/>
      <point x="327" y="161" type="curve" smooth="yes"/>
      <point x="323" y="196" type="line" smooth="yes"/>
      <point x="317" y="230"/>
      <point x="314" y="251"/>
      <point x="314" y="260" type="curve" smooth="yes"/>
      <point x="314" y="272"/>
      <point x="315" y="281"/>
      <point x="319" y="289" type="curve" smooth="yes"/>
      <point x="329" y="313"/>
      <point x="349" y="331"/>
      <point x="380" y="343" type="curve" smooth="yes"/>
      <point x="404" y="351"/>
      <point x="429" y="355"/>
      <point x="456" y="356" type="curve" smooth="yes"/>
      <point x="500" y="356"/>
      <point x="538" y="336"/>
      <point x="572" y="294" type="curve" smooth="yes"/>
      <point x="600" y="258"/>
      <point x="614" y="219"/>
      <point x="615" y="177" type="curve" smooth="yes"/>
      <point x="615" y="147"/>
      <point x="604" y="115"/>
      <point x="580" y="81" type="curve" smooth="yes"/>
      <point x="557" y="49"/>
      <point x="531" y="31"/>
      <point x="500" y="25" type="curve" smooth="yes"/>
      <point x="512" y="24" type="line" smooth="yes"/>
      <point x="518" y="24"/>
      <point x="525" y="26"/>
      <point x="534" y="30" type="curve" smooth="yes"/>
      <point x="542" y="34"/>
      <point x="552" y="40"/>
      <point x="565" y="50" type="curve" smooth="yes"/>
      <point x="569" y="52"/>
      <point x="574" y="56"/>
      <point x="580" y="64" type="curve" smooth="yes"/>
      <point x="570" y="40"/>
      <point x="561" y="24"/>
      <point x="553" y="16" type="curve" smooth="yes"/>
      <point x="545" y="10"/>
      <point x="532" y="5"/>
      <point x="512" y="0" type="curve" smooth="yes"/>
      <point x="500" y="-2" type="line" smooth="yes"/>
      <point x="496" y="-2"/>
      <point x="493" y="-1"/>
      <point x="489" y="3" type="curve" smooth="yes"/>
      <point x="479" y="14" type="line" smooth="yes"/>
      <point x="461" y="41" type="line" smooth="yes"/>
      <point x="463" y="43"/>
      <point x="465" y="44"/>
      <point x="467" y="46" type="curve" smooth="yes"/>
      <point x="474" y="46"/>
      <point x="483" y="49"/>
      <point x="495" y="55" type="curve" smooth="yes"/>
      <point x="529" y="80" type="line" smooth="yes"/>
      <point x="555" y="102"/>
      <point x="572" y="123"/>
      <point x="581" y="145" type="curve" smooth="yes"/>
      <point x="587" y="187" type="line" smooth="yes"/>
      <point x="588" y="205" type="line" smooth="yes"/>
      <point x="588" y="243"/>
      <point x="574" y="273"/>
      <point x="546" y="295" type="curve" smooth="yes"/>
      <point x="522" y="313"/>
      <point x="492" y="322"/>
      <point x="454" y="322" type="curve" smooth="yes"/>
      <point x="437" y="322"/>
      <point x="417" y="318"/>
      <point x="393" y="309" type="curve" smooth="yes"/>
      <point x="371" y="301"/>
      <point x="357" y="290"/>
      <point x="350" y="276" type="curve" smooth="yes"/>
      <point x="348" y="269"/>
      <point x="346" y="262"/>
      <point x="344" y="255" type="curve" smooth="yes"/>
      <point x="343" y="249"/>
      <point x="343" y="242"/>
      <point x="342" y="232" type="curve" smooth="yes"/>
      <point x="342" y="215"/>
      <point x="344" y="198"/>
      <point x="349" y="179" type="curve" smooth="yes"/>
      <point x="350" y="171"/>
      <point x="352" y="163"/>
      <point x="357" y="155" type="curve" smooth="yes"/>
      <point x="357" y="137"/>
      <point x="354" y="120"/>
      <point x="346" y="103" type="curve" smooth="yes"/>
      <point x="340" y="87"/>
      <point x="329" y="70"/>
      <point x="311" y="52" type="curve" smooth="yes"/>
      <point x="279" y="18"/>
      <point x="248" y="1"/>
      <point x="217" y="0" type="curve" smooth="yes"/>
      <point x="181" y="0"/>
      <point x="147" y="14"/>
      <point x="113" y="43" type="curve" smooth="yes"/>
      <point x="76" y="75"/>
      <point x="58" y="113"/>
    </contour>
  </outline>
</glyph>
<glyph name="u1A4D" format="2">
  <advance width="538"/>
  <unicode hex="1A4D"/>
  <anchor x="239.5" y="-244" name="L"/>
  <anchor x="479" y="-249" name="LR"/>
  <anchor x="269.5" y="416" name="U"/>
  <anchor x="498" y="416" name="UR"/>
  <outline>
    <contour>
      <point x="295" y="-183" type="curve" smooth="yes"/>
      <point x="283" y="-190"/>
      <point x="277" y="-199"/>
      <point x="276" y="-212" type="curve" smooth="yes"/>
      <point x="276" y="-220"/>
      <point x="278" y="-227"/>
      <point x="283" y="-233" type="curve" smooth="yes"/>
      <point x="287" y="-239"/>
      <point x="292" y="-242"/>
      <point x="299" y="-243" type="curve" smooth="yes"/>
      <point x="328" y="-243"/>
      <point x="342" y="-231"/>
      <point x="343" y="-206" type="curve" smooth="yes"/>
      <point x="343" y="-188"/>
      <point x="337" y="-174"/>
      <point x="325" y="-162" type="curve" smooth="yes"/>
      <point x="314" y="-153"/>
      <point x="298" y="-149"/>
      <point x="277" y="-148" type="curve" smooth="yes"/>
      <point x="267" y="-148"/>
      <point x="250" y="-162"/>
      <point x="225" y="-191" type="curve" smooth="yes"/>
      <point x="214" y="-205"/>
      <point x="201" y="-212"/>
      <point x="185" y="-212" type="curve" smooth="yes"/>
      <point x="169" y="-212"/>
      <point x="156" y="-206"/>
      <point x="145" y="-193" type="curve" smooth="yes"/>
      <point x="136" y="-181"/>
      <point x="132" y="-167"/>
      <point x="131" y="-151" type="curve" smooth="yes"/>
      <point x="131" y="-127"/>
      <point x="135" y="-110"/>
      <point x="145" y="-100" type="curve" smooth="yes"/>
      <point x="155" y="-90"/>
      <point x="172" y="-80"/>
      <point x="197" y="-70" type="curve" smooth="yes"/>
      <point x="202" y="-69"/>
      <point x="207" y="-67"/>
      <point x="213" y="-63" type="curve" smooth="yes"/>
      <point x="230" y="-52" type="line" smooth="yes"/>
      <point x="236" y="-49"/>
      <point x="239" y="-44"/>
      <point x="240" y="-35" type="curve" smooth="yes"/>
      <point x="240" y="-29"/>
      <point x="238" y="-24"/>
      <point x="233" y="-18" type="curve" smooth="yes"/>
      <point x="227" y="-18"/>
      <point x="222" y="-18"/>
      <point x="217" y="-19" type="curve" smooth="yes"/>
      <point x="209" y="-22" type="line" smooth="yes"/>
      <point x="211" y="-33" type="line" smooth="yes"/>
      <point x="211" y="-37"/>
      <point x="210" y="-40"/>
      <point x="206" y="-44" type="curve" smooth="yes"/>
      <point x="183" y="-53" type="line" smooth="yes"/>
      <point x="157" y="-59"/>
      <point x="137" y="-69"/>
      <point x="123" y="-85" type="curve" smooth="yes"/>
      <point x="109" y="-101"/>
      <point x="102" y="-124"/>
      <point x="102" y="-155" type="curve" smooth="yes"/>
      <point x="102" y="-178"/>
      <point x="109" y="-198"/>
      <point x="125" y="-216" type="curve" smooth="yes"/>
      <point x="140" y="-234"/>
      <point x="160" y="-243"/>
      <point x="187" y="-243" type="curve" smooth="yes"/>
      <point x="207" y="-243"/>
      <point x="224" y="-232"/>
      <point x="240" y="-208" type="curve" smooth="yes"/>
      <point x="256" y="-186"/>
      <point x="268" y="-174"/>
      <point x="278" y="-172" type="curve" smooth="yes"/>
      <point x="291" y="-172"/>
      <point x="301" y="-174"/>
      <point x="308" y="-180" type="curve" smooth="yes"/>
      <point x="315" y="-186"/>
      <point x="319" y="-193"/>
      <point x="320" y="-201" type="curve" smooth="yes"/>
      <point x="320" y="-211"/>
      <point x="316" y="-217"/>
      <point x="307" y="-219" type="curve" smooth="yes"/>
      <point x="301" y="-219"/>
      <point x="298" y="-216"/>
      <point x="297" y="-210" type="curve" smooth="yes"/>
      <point x="297" y="-204"/>
      <point x="299" y="-200"/>
      <point x="305" y="-196" type="curve" smooth="yes"/>
      <point x="305" y="-193"/>
      <point x="305" y="-191"/>
      <point x="303" y="-188" type="curve" smooth="yes"/>
      <point x="302" y="-187"/>
      <point x="300" y="-186"/>
    </contour>
    <contour>
      <point x="211" y="-29" type="curve" smooth="yes"/>
      <point x="221" y="-25" type="line" smooth="yes"/>
      <point x="234" y="-20" type="line" smooth="yes"/>
      <point x="249" y="-16"/>
      <point x="263" y="-14"/>
      <point x="276" y="-14" type="curve" smooth="yes"/>
      <point x="292" y="-14"/>
      <point x="315" y="-18"/>
      <point x="346" y="-26" type="curve" smooth="yes"/>
      <point x="368" y="-32"/>
      <point x="386" y="-48"/>
      <point x="401" y="-75" type="curve" smooth="yes"/>
      <point x="413" y="-99"/>
      <point x="419" y="-121"/>
      <point x="420" y="-143" type="curve" smooth="yes"/>
      <point x="420" y="-175"/>
      <point x="418" y="-200"/>
      <point x="414" y="-218" type="curve" smooth="yes"/>
      <point x="412" y="-234"/>
      <point x="406" y="-251"/>
      <point x="395" y="-271" type="curve" smooth="yes"/>
      <point x="386" y="-290"/>
      <point x="375" y="-309"/>
      <point x="360" y="-329" type="curve" smooth="yes"/>
      <point x="367" y="-325" type="line" smooth="yes"/>
      <point x="387" y="-307"/>
      <point x="400" y="-294"/>
      <point x="407" y="-284" type="curve" smooth="yes"/>
      <point x="425" y="-258"/>
      <point x="437" y="-232"/>
      <point x="443" y="-205" type="curve" smooth="yes"/>
      <point x="446" y="-187"/>
      <point x="447" y="-162"/>
      <point x="448" y="-129" type="curve" smooth="yes"/>
      <point x="448" y="-105"/>
      <point x="441" y="-80"/>
      <point x="426" y="-53" type="curve" smooth="yes"/>
      <point x="412" y="-27"/>
      <point x="390" y="-9"/>
      <point x="360" y="1" type="curve" smooth="yes"/>
      <point x="328" y="8" type="line" smooth="yes"/>
      <point x="294" y="10" type="line" smooth="yes"/>
      <point x="271" y="10"/>
      <point x="250" y="8"/>
      <point x="231" y="3" type="curve" smooth="yes"/>
      <point x="222" y="1"/>
      <point x="216" y="0"/>
      <point x="212" y="-2" type="curve" smooth="yes"/>
      <point x="209" y="-3"/>
      <point x="206" y="-4"/>
      <point x="203" y="-7" type="curve" smooth="yes"/>
      <point x="209" y="-20" type="line" smooth="yes"/>
      <point x="210" y="-21"/>
      <point x="210" y="-24"/>
    </contour>
    <contour>
      <point x="189" y="110" type="curve" smooth="yes"/>
      <point x="206" y="112"/>
      <point x="220" y="107"/>
      <point x="233" y="95" type="curve" smooth="yes"/>
      <point x="243" y="83"/>
      <point x="248" y="68"/>
      <point x="249" y="48" type="curve" smooth="yes"/>
      <point x="249" y="36"/>
      <point x="241" y="25"/>
      <point x="223" y="14" type="curve" smooth="yes"/>
      <point x="207" y="4"/>
      <point x="192" y="-1"/>
      <point x="176" y="-2" type="curve" smooth="yes"/>
      <point x="134" y="-2"/>
      <point x="103" y="16"/>
      <point x="81" y="54" type="curve" smooth="yes"/>
      <point x="65" y="85"/>
      <point x="57" y="126"/>
      <point x="56" y="178" type="curve" smooth="yes"/>
      <point x="56" y="217"/>
      <point x="69" y="256"/>
      <point x="96" y="296" type="curve" smooth="yes"/>
      <point x="123" y="336"/>
      <point x="156" y="356"/>
      <point x="195" y="356" type="curve" smooth="yes"/>
      <point x="206" y="356"/>
      <point x="219" y="352"/>
      <point x="235" y="344" type="curve" smooth="yes"/>
      <point x="276" y="317" type="line" smooth="yes"/>
      <point x="289" y="327"/>
      <point x="303" y="336"/>
      <point x="319" y="344" type="curve" smooth="yes"/>
      <point x="334" y="352"/>
      <point x="348" y="356"/>
      <point x="361" y="356" type="curve" smooth="yes"/>
      <point x="403" y="356"/>
      <point x="437" y="340"/>
      <point x="463" y="307" type="curve" smooth="yes"/>
      <point x="489" y="275"/>
      <point x="502" y="233"/>
      <point x="502" y="179" type="curve" smooth="yes"/>
      <point x="502" y="146"/>
      <point x="499" y="119"/>
      <point x="493" y="98" type="curve" smooth="yes"/>
      <point x="488" y="78"/>
      <point x="479" y="61"/>
      <point x="465" y="45" type="curve" smooth="yes"/>
      <point x="462" y="42"/>
      <point x="455" y="38"/>
      <point x="443" y="32" type="curve" smooth="yes"/>
      <point x="414" y="20" type="line" smooth="yes"/>
      <point x="406" y="16" type="line" smooth="yes"/>
      <point x="398" y="15" type="line" smooth="yes"/>
      <point x="433" y="28" type="line" smooth="yes"/>
      <point x="458" y="35" type="line" smooth="yes"/>
      <point x="477" y="37" type="line" smooth="yes"/>
      <point x="454" y="13" type="line" smooth="yes"/>
      <point x="442" y="3"/>
      <point x="426" y="-2"/>
      <point x="405" y="-2" type="curve" smooth="yes"/>
      <point x="391" y="-2"/>
      <point x="381" y="-1"/>
      <point x="375" y="3" type="curve" smooth="yes"/>
      <point x="370" y="6"/>
      <point x="363" y="15"/>
      <point x="354" y="30" type="curve" smooth="yes"/>
      <point x="358" y="40"/>
      <point x="362" y="46"/>
      <point x="367" y="48" type="curve" smooth="yes"/>
      <point x="372" y="50"/>
      <point x="380" y="52"/>
      <point x="391" y="54" type="curve" smooth="yes"/>
      <point x="402" y="54"/>
      <point x="410" y="55"/>
      <point x="417" y="57" type="curve" smooth="yes"/>
      <point x="431" y="63"/>
      <point x="442" y="72"/>
      <point x="451" y="86" type="curve" smooth="yes"/>
      <point x="459" y="99"/>
      <point x="463" y="121"/>
      <point x="464" y="153" type="curve" smooth="yes"/>
      <point x="464" y="174" type="line" smooth="yes"/>
      <point x="464" y="221"/>
      <point x="451" y="260"/>
      <point x="425" y="293" type="curve" smooth="yes"/>
      <point x="403" y="319"/>
      <point x="380" y="332"/>
      <point x="356" y="332" type="curve" smooth="yes"/>
      <point x="348" y="332"/>
      <point x="336" y="327"/>
      <point x="319" y="315" type="curve" smooth="yes"/>
      <point x="268" y="280" type="line" smooth="yes"/>
      <point x="225" y="312" type="line" smooth="yes"/>
      <point x="212" y="321"/>
      <point x="200" y="326"/>
      <point x="188" y="328" type="curve" smooth="yes"/>
      <point x="165" y="328"/>
      <point x="144" y="316"/>
      <point x="123" y="292" type="curve" smooth="yes"/>
      <point x="101" y="264"/>
      <point x="90" y="227"/>
      <point x="90" y="180" type="curve" smooth="yes"/>
      <point x="90" y="145"/>
      <point x="93" y="116"/>
      <point x="100" y="92" type="curve" smooth="yes"/>
      <point x="106" y="69"/>
      <point x="119" y="52"/>
      <point x="141" y="41" type="curve" smooth="yes"/>
      <point x="142" y="49"/>
      <point x="143" y="56"/>
      <point x="146" y="62" type="curve" smooth="yes"/>
      <point x="148" y="68"/>
      <point x="152" y="75"/>
      <point x="158" y="85" type="curve" smooth="yes"/>
      <point x="168" y="99"/>
      <point x="178" y="107"/>
    </contour>
    <contour>
      <point x="166" y="33" type="line" smooth="yes"/>
      <point x="192" y="31" type="line" smooth="yes"/>
      <point x="208" y="31"/>
      <point x="215" y="37"/>
      <point x="213" y="49" type="curve" smooth="yes"/>
      <point x="211" y="63"/>
      <point x="206" y="70"/>
      <point x="196" y="71" type="curve" smooth="yes"/>
      <point x="185" y="66" type="line" smooth="yes"/>
      <point x="181" y="64"/>
      <point x="177" y="60"/>
      <point x="173" y="54" type="curve" smooth="yes"/>
    </contour>
  </outline>
</glyph>
<glyph name="u1A58" format="2">
  <advance width="0"/>
  <unicode hex="1A58"/>
  <anchor x="-39" y="416" name="_UR"/>
  <outline>
    <contour>
      <point x="182" y="493" type="line" smooth="yes"/>
      <point x="174" y="485"/>
      <point x="169" y="476"/>
      <point x="167" y="466" type="curve" smooth="yes"/>
      <point x="165" y="456"/>
      <point x="162" y="450"/>
      <point x="157" y="447" type="curve" smooth="yes"/>
      <point x="153" y="445"/>
      <point x="146" y="443"/>
      <point x="134" y="441" type="curve" smooth="yes"/>
      <point x="122" y="441"/>
      <point x="115" y="440"/>
      <point x="111" y="437" type="curve" smooth="yes"/>
      <point x="100" y="418" type="line" smooth="yes"/>
      <point x="96" y="412"/>
      <point x="86" y="409"/>
      <point x="70" y="408" type="curve" smooth="yes"/>
      <point x="62" y="408"/>
      <point x="55" y="409"/>
      <point x="47" y="413" type="curve" smooth="yes"/>
      <point x="28" y="428" type="line" smooth="yes"/>
      <point x="21" y="423" type="line" smooth="yes"/>
      <point x="9" y="417" type="line" smooth="yes"/>
      <point x="-7" y="413" type="line" smooth="yes"/>
      <point x="-18" y="416" type="line" smooth="yes"/>
      <point x="-22" y="416"/>
      <point x="-25" y="418"/>
      <point x="-29" y="424" type="curve" smooth="yes"/>
      <point x="-39" y="435" type="line" smooth="yes"/>
      <point x="-52" y="444" type="line" smooth="yes"/>
      <point x="-58" y="448"/>
      <point x="-65" y="450"/>
      <point x="-73" y="452" type="curve" smooth="yes"/>
      <point x="-85" y="452"/>
      <point x="-95" y="448"/>
      <point x="-104" y="440" type="curve" smooth="yes"/>
      <point x="-109" y="436"/>
      <point x="-111" y="429"/>
      <point x="-112" y="417" type="curve" smooth="yes"/>
      <point x="-108" y="406" type="line" smooth="yes"/>
      <point x="-106" y="404"/>
      <point x="-104" y="403"/>
      <point x="-100" y="402" type="curve" smooth="yes"/>
      <point x="-98" y="403"/>
      <point x="-97" y="404"/>
      <point x="-96" y="405" type="curve" smooth="yes"/>
      <point x="-93" y="407"/>
      <point x="-89" y="410"/>
      <point x="-84" y="416" type="curve" smooth="yes"/>
      <point x="-80" y="421"/>
      <point x="-75" y="424"/>
      <point x="-68" y="427" type="curve" smooth="yes"/>
      <point x="-64" y="428"/>
      <point x="-59" y="425"/>
      <point x="-51" y="416" type="curve" smooth="yes"/>
      <point x="-45" y="408"/>
      <point x="-42" y="398"/>
      <point x="-41" y="384" type="curve" smooth="yes"/>
      <point x="-52" y="393" type="line" smooth="yes"/>
      <point x="-61" y="398" type="line" smooth="yes"/>
      <point x="-66" y="398"/>
      <point x="-71" y="394"/>
      <point x="-77" y="385" type="curve" smooth="yes"/>
      <point x="-82" y="377"/>
      <point x="-87" y="373"/>
      <point x="-94" y="372" type="curve" smooth="yes"/>
      <point x="-104" y="372"/>
      <point x="-113" y="374"/>
      <point x="-122" y="379" type="curve" smooth="yes"/>
      <point x="-130" y="385"/>
      <point x="-135" y="392"/>
      <point x="-138" y="402" type="curve" smooth="yes"/>
      <point x="-142" y="419" type="line" smooth="yes"/>
      <point x="-142" y="429"/>
      <point x="-140" y="438"/>
      <point x="-134" y="447" type="curve" smooth="yes"/>
      <point x="-129" y="455"/>
      <point x="-123" y="462"/>
      <point x="-115" y="468" type="curve" smooth="yes"/>
      <point x="-102" y="475" type="line" smooth="yes"/>
      <point x="-93" y="479"/>
      <point x="-84" y="481"/>
      <point x="-73" y="481" type="curve" smooth="yes"/>
      <point x="-57" y="477" type="line" smooth="yes"/>
      <point x="-52" y="477"/>
      <point x="-47" y="476"/>
      <point x="-42" y="473" type="curve" smooth="yes"/>
      <point x="-26" y="461" type="line" smooth="yes"/>
      <point x="-21" y="456"/>
      <point x="-15" y="452"/>
      <point x="-8" y="448" type="curve" smooth="yes"/>
      <point x="0" y="448" type="line" smooth="yes"/>
      <point x="10" y="454" type="line" smooth="yes"/>
      <point x="6" y="463" type="line" smooth="yes"/>
      <point x="0" y="478"/>
      <point x="-3" y="490"/>
      <point x="-3" y="501" type="curve" smooth="yes"/>
      <point x="-3" y="511"/>
      <point x="1" y="519"/>
      <point x="9" y="526" type="curve" smooth="yes"/>
      <point x="17" y="532"/>
      <point x="26" y="535"/>
      <point x="38" y="535" type="curve" smooth="yes"/>
      <point x="46" y="535"/>
      <point x="53" y="534"/>
      <point x="60" y="531" type="curve" smooth="yes"/>
      <point x="66" y="529"/>
      <point x="72" y="524"/>
      <point x="78" y="516" type="curve" smooth="yes"/>
      <point x="84" y="508"/>
      <point x="87" y="501"/>
      <point x="87" y="494" type="curve" smooth="yes"/>
      <point x="86" y="476" type="line" smooth="yes"/>
      <point x="86" y="470"/>
      <point x="83" y="464"/>
      <point x="76" y="457" type="curve" smooth="yes"/>
      <point x="55" y="446" type="line" smooth="yes"/>
      <point x="63" y="440" type="line" smooth="yes"/>
      <point x="72" y="438" type="line" smooth="yes"/>
      <point x="77" y="438"/>
      <point x="82" y="442"/>
      <point x="88" y="450" type="curve" smooth="yes"/>
      <point x="92" y="458"/>
      <point x="95" y="463"/>
      <point x="99" y="466" type="curve" smooth="yes"/>
      <point x="111" y="469" type="line" smooth="yes"/>
      <point x="132" y="466" type="line" smooth="yes"/>
      <point x="143" y="469" type="line" smooth="yes"/>
      <point x="147" y="471"/>
      <point x="151" y="476"/>
      <point x="155" y="484" type="curve" smooth="yes"/>
      <point x="159" y="492"/>
      <point x="163" y="497"/>
      <point x="169" y="500" type="curve" smooth="yes"/>
      <point x="187" y="504" type="line" smooth="yes"/>
      <point x="208" y="503" type="line" smooth="yes"/>
    </contour>
    <contour>
      <point x="38" y="509" type="curve" smooth="yes"/>
      <point x="31" y="509"/>
      <point x="27" y="506"/>
      <point x="24" y="500" type="curve" smooth="yes"/>
      <point x="24" y="490" type="line" smooth="yes"/>
      <point x="31" y="475" type="line" smooth="yes"/>
      <point x="36" y="466" type="line" smooth="yes"/>
      <point x="55" y="477" type="line" smooth="yes"/>
      <point x="60" y="490" type="line" smooth="yes"/>
      <point x="60" y="496"/>
      <point x="58" y="500"/>
      <point x="53" y="504" type="curve" smooth="yes"/>
      <point x="49" y="507"/>
      <point x="44" y="508"/>
    </contour>
  </outline>
</glyph>
<glyph name="u1A62" format="2">
  <advance width="0"/>
  <unicode hex="1A62"/>
  <anchor x="-208.5" y="562" name="UD"/>
  <anchor x="-208.5" y="416" name="_U"/>
  <anchor x="-208.5" y="416" name="_UD"/>
  <outline>
    <contour>
      <point x="29" y="604" type="line" smooth="yes"/>
      <point x="29" y="610" type="line" smooth="yes"/>
      <point x="-265" y="464" type="line" smooth="yes"/>
      <point x="-284" y="453" type="line" smooth="yes"/>
      <point x="-265" y="422" type="line" smooth="yes"/>
    </contour>
  </outline>
</glyph>
<glyph name="u1A6C" format="2">
  <advance width="1"/>
  <unicode hex="1A6C"/>
  <anchor x="-277.5" y="-214" name="LD"/>
  <anchor x="-27" y="-211" name="LRD"/>
  <anchor x="-277.5" y="0" name="_L"/>
  <anchor x="-277.5" y="0" name="_LD"/>
  <outline>
    <contour>
      <point x="-404" y="-34" type="curve" smooth="yes"/>
      <point x="-418" y="-32" type="line" smooth="yes"/>
      <point x="-436" y="-32"/>
      <point x="-452" y="-41"/>
      <point x="-467" y="-59" type="curve" smooth="yes"/>
      <point x="-482" y="-77"/>
      <point x="-489" y="-97"/>
      <point x="-490" y="-121" type="curve" smooth="yes"/>
      <point x="-490" y="-146"/>
      <point x="-480" y="-168"/>
      <point x="-460" y="-188" type="curve" smooth="yes"/>
      <point x="-440" y="-206"/>
      <point x="-417" y="-215"/>
      <point x="-389" y="-215" type="curve" smooth="yes"/>
      <point x="-357" y="-215"/>
      <point x="-330" y="-208"/>
      <point x="-307" y="-193" type="curve" smooth="yes"/>
      <point x="-285" y="-179"/>
      <point x="-270" y="-159"/>
      <point x="-260" y="-133" type="curve" smooth="yes"/>
      <point x="-228" y="-147" type="line" smooth="yes"/>
      <point x="-195" y="-158" type="line" smooth="yes"/>
      <point x="-161" y="-162" type="line" smooth="yes"/>
      <point x="-122" y="-162"/>
      <point x="-83" y="-149"/>
      <point x="-44" y="-122" type="curve" smooth="yes"/>
      <point x="-3" y="-83" type="line" smooth="yes"/>
      <point x="-30" y="-97"/>
      <point x="-57" y="-109"/>
      <point x="-84" y="-119" type="curve" smooth="yes"/>
      <point x="-110" y="-129"/>
      <point x="-133" y="-134"/>
      <point x="-154" y="-134" type="curve" smooth="yes"/>
      <point x="-173" y="-133" type="line" smooth="yes"/>
      <point x="-187" y="-131"/>
      <point x="-206" y="-124"/>
      <point x="-232" y="-111" type="curve" smooth="yes"/>
      <point x="-264" y="-93" type="line" smooth="yes"/>
      <point x="-278" y="-133"/>
      <point x="-293" y="-159"/>
      <point x="-311" y="-173" type="curve" smooth="yes"/>
      <point x="-325" y="-183"/>
      <point x="-351" y="-188"/>
      <point x="-389" y="-188" type="curve" smooth="yes"/>
      <point x="-407" y="-188"/>
      <point x="-423" y="-182"/>
      <point x="-437" y="-170" type="curve" smooth="yes"/>
      <point x="-451" y="-159"/>
      <point x="-458" y="-145"/>
      <point x="-458" y="-127" type="curve" smooth="yes"/>
      <point x="-458" y="-105"/>
      <point x="-453" y="-88"/>
      <point x="-442" y="-74" type="curve" smooth="yes"/>
      <point x="-432" y="-61"/>
      <point x="-421" y="-55"/>
      <point x="-407" y="-54" type="curve" smooth="yes"/>
      <point x="-398" y="-54"/>
      <point x="-391" y="-59"/>
      <point x="-385" y="-69" type="curve" smooth="yes"/>
      <point x="-383" y="-73"/>
      <point x="-384" y="-81"/>
      <point x="-390" y="-93" type="curve" smooth="yes"/>
      <point x="-394" y="-106" type="line" smooth="yes"/>
      <point x="-392" y="-110"/>
      <point x="-391" y="-112"/>
      <point x="-389" y="-114" type="curve" smooth="yes"/>
      <point x="-383" y="-118"/>
      <point x="-377" y="-118"/>
      <point x="-370" y="-112" type="curve" smooth="yes"/>
      <point x="-364" y="-107"/>
      <point x="-359" y="-99"/>
      <point x="-354" y="-87" type="curve" smooth="yes"/>
      <point x="-353" y="-77" type="line" smooth="yes"/>
      <point x="-353" y="-65"/>
      <point x="-357" y="-56"/>
      <point x="-366" y="-49" type="curve" smooth="yes"/>
      <point x="-375" y="-43"/>
      <point x="-387" y="-38"/>
    </contour>
  </outline>
</glyph>
<glyph name="u1A6E" format="2">
  <advance width="452"/>
  <unicode hex="1A6E"/>
  <outline>
    <contour>
      <point x="202" y="31" type="curve" smooth="yes"/>
      <point x="206" y="31"/>
      <point x="210" y="33"/>
      <point x="215" y="37" type="curve" smooth="yes"/>
      <point x="219" y="41"/>
      <point x="221" y="46"/>
      <point x="222" y="53" type="curve" smooth="yes"/>
      <point x="222" y="58"/>
      <point x="218" y="64"/>
      <point x="209" y="73" type="curve" smooth="yes"/>
      <point x="204" y="77"/>
      <point x="199" y="79"/>
      <point x="192" y="79" type="curve" smooth="yes"/>
      <point x="188" y="79"/>
      <point x="185" y="76"/>
      <point x="183" y="69" type="curve" smooth="yes"/>
      <point x="181" y="63"/>
      <point x="181" y="57"/>
      <point x="182" y="51" type="curve" smooth="yes"/>
      <point x="185" y="38"/>
      <point x="191" y="32"/>
    </contour>
    <contour>
      <point x="171" y="35" type="line" smooth="yes"/>
      <point x="168" y="40"/>
      <point x="166" y="47"/>
      <point x="163" y="58" type="curve" smooth="yes"/>
      <point x="161" y="72"/>
      <point x="165" y="86"/>
      <point x="175" y="100" type="curve" smooth="yes"/>
      <point x="185" y="114"/>
      <point x="194" y="121"/>
      <point x="204" y="121" type="curve" smooth="yes"/>
      <point x="212" y="121"/>
      <point x="222" y="114"/>
      <point x="234" y="98" type="curve" smooth="yes"/>
      <point x="246" y="84"/>
      <point x="252" y="70"/>
      <point x="252" y="56" type="curve" smooth="yes"/>
      <point x="252" y="48"/>
      <point x="246" y="37"/>
      <point x="233" y="22" type="curve" smooth="yes"/>
      <point x="221" y="8"/>
      <point x="211" y="1"/>
      <point x="201" y="-1" type="curve" smooth="yes"/>
      <point x="175" y="-1"/>
      <point x="143" y="13"/>
      <point x="103" y="42" type="curve" smooth="yes"/>
      <point x="55" y="76"/>
      <point x="31" y="114"/>
      <point x="31" y="156" type="curve" smooth="yes"/>
      <point x="31" y="200"/>
      <point x="52" y="244"/>
      <point x="95" y="289" type="curve" smooth="yes"/>
      <point x="138" y="333"/>
      <point x="178" y="355"/>
      <point x="216" y="356" type="curve" smooth="yes"/>
      <point x="245" y="356"/>
      <point x="275" y="347"/>
      <point x="306" y="329" type="curve" smooth="yes"/>
      <point x="336" y="312"/>
      <point x="362" y="288"/>
      <point x="384" y="256" type="curve" smooth="yes"/>
      <point x="403" y="227"/>
      <point x="414" y="200"/>
      <point x="418" y="174" type="curve" smooth="yes"/>
      <point x="394" y="204" type="line" smooth="yes"/>
      <point x="376" y="226"/>
      <point x="361" y="242"/>
      <point x="347" y="254" type="curve" smooth="yes"/>
      <point x="307" y="288"/>
      <point x="283" y="307"/>
      <point x="273" y="312" type="curve" smooth="yes"/>
      <point x="255" y="320"/>
      <point x="236" y="324"/>
      <point x="215" y="325" type="curve" smooth="yes"/>
      <point x="183" y="325"/>
      <point x="153" y="310"/>
      <point x="125" y="279" type="curve" smooth="yes"/>
      <point x="91" y="243"/>
      <point x="74" y="196"/>
      <point x="74" y="137" type="curve" smooth="yes"/>
      <point x="74" y="115"/>
      <point x="90" y="91"/>
      <point x="124" y="63" type="curve" smooth="yes"/>
    </contour>
  </outline>
</glyph>
<glyph name="u1A71" format="2">
  <advance width="276"/>
  <unicode hex="1A71"/>
  <outline>
    <contour>
      <point x="205" y="500" type="curve" smooth="yes"/>
      <point x="228" y="500" type="line" smooth="yes"/>
      <point x="245" y="500" type="line" smooth="yes"/>
      <point x="270" y="500" type="line" smooth="yes"/>
      <point x="276" y="500"/>
      <point x="282" y="500"/>
      <point x="289" y="500" type="curve" smooth="yes"/>
      <point x="297" y="501"/>
      <point x="303" y="501"/>
      <point x="307" y="502" type="curve" smooth="yes"/>
      <point x="357" y="505" type="line" smooth="yes"/>
      <point x="369" y="505"/>
      <point x="378" y="507"/>
      <point x="384" y="511" type="curve" smooth="yes"/>
      <point x="390" y="515"/>
      <point x="393" y="520"/>
      <point x="394" y="526" type="curve" smooth="yes"/>
      <point x="394" y="530"/>
      <point x="393" y="534"/>
      <point x="390" y="539" type="curve" smooth="yes"/>
      <point x="388" y="544"/>
      <point x="382" y="548"/>
      <point x="370" y="551" type="curve" smooth="yes"/>
      <point x="359" y="554"/>
      <point x="352" y="556"/>
      <point x="347" y="557" type="curve" smooth="yes"/>
      <point x="343" y="557"/>
      <point x="337" y="557"/>
      <point x="327" y="558" type="curve" smooth="yes"/>
      <point x="301" y="558"/>
      <point x="275" y="555"/>
      <point x="247" y="548" type="curve" smooth="yes"/>
      <point x="235" y="546"/>
      <point x="221" y="544"/>
      <point x="203" y="541" type="curve" smooth="yes"/>
      <point x="187" y="539"/>
      <point x="171" y="538"/>
      <point x="153" y="538" type="curve" smooth="yes"/>
      <point x="120" y="538"/>
      <point x="96" y="542"/>
      <point x="79" y="551" type="curve" smooth="yes"/>
      <point x="64" y="559"/>
      <point x="38" y="581"/>
      <point x="1" y="618" type="curve" smooth="yes"/>
      <point x="-1" y="620"/>
      <point x="0" y="623"/>
      <point x="4" y="629" type="curve" smooth="yes"/>
      <point x="8" y="633"/>
      <point x="12" y="633"/>
      <point x="17" y="630" type="curve" smooth="yes"/>
      <point x="33" y="612"/>
      <point x="52" y="597"/>
      <point x="76" y="584" type="curve" smooth="yes"/>
      <point x="99" y="572"/>
      <point x="124" y="566"/>
      <point x="151" y="566" type="curve" smooth="yes"/>
      <point x="178" y="566"/>
      <point x="205" y="569"/>
      <point x="233" y="576" type="curve" smooth="yes"/>
      <point x="245" y="578"/>
      <point x="259" y="580"/>
      <point x="275" y="583" type="curve" smooth="yes"/>
      <point x="291" y="585"/>
      <point x="306" y="586"/>
      <point x="321" y="586" type="curve" smooth="yes"/>
      <point x="350" y="586"/>
      <point x="370" y="585"/>
      <point x="383" y="581" type="curve" smooth="yes"/>
      <point x="404" y="575"/>
      <point x="418" y="563"/>
      <point x="427" y="544" type="curve" smooth="yes"/>
      <point x="431" y="526" type="line" smooth="yes"/>
      <point x="431" y="515"/>
      <point x="425" y="505"/>
      <point x="412" y="494" type="curve" smooth="yes"/>
      <point x="401" y="487"/>
      <point x="384" y="482"/>
      <point x="361" y="478" type="curve" smooth="yes"/>
      <point x="263" y="466" type="line" smooth="yes"/>
      <point x="173" y="464" type="line" smooth="yes"/>
      <point x="158" y="464"/>
      <point x="147" y="457"/>
      <point x="138" y="443" type="curve" smooth="yes"/>
      <point x="131" y="430"/>
      <point x="128" y="413"/>
      <point x="127" y="390" type="curve" smooth="yes"/>
      <point x="126" y="178" type="line" smooth="yes"/>
      <point x="126" y="170"/>
      <point x="126" y="163"/>
      <point x="127" y="155" type="curve" smooth="yes"/>
      <point x="127" y="148"/>
      <point x="128" y="140"/>
      <point x="132" y="130" type="curve" smooth="yes"/>
      <point x="134" y="121"/>
      <point x="141" y="117"/>
      <point x="155" y="116" type="curve" smooth="yes"/>
      <point x="158" y="110" type="line" smooth="yes"/>
      <point x="156" y="104" type="line" smooth="yes"/>
      <point x="123" y="87" type="line" smooth="yes"/>
      <point x="116" y="82"/>
      <point x="113" y="73"/>
      <point x="112" y="58" type="curve" smooth="yes"/>
      <point x="112" y="46"/>
      <point x="118" y="39"/>
      <point x="131" y="36" type="curve" smooth="yes"/>
      <point x="167" y="33" type="line" smooth="yes"/>
      <point x="180" y="33"/>
      <point x="190" y="34"/>
      <point x="197" y="38" type="curve" smooth="yes"/>
      <point x="204" y="42"/>
      <point x="208" y="48"/>
      <point x="209" y="56" type="curve" smooth="yes"/>
      <point x="209" y="66"/>
      <point x="205" y="71"/>
      <point x="197" y="71" type="curve" smooth="yes"/>
      <point x="191" y="71"/>
      <point x="188" y="69"/>
      <point x="186" y="63" type="curve" smooth="yes"/>
      <point x="190" y="50" type="line" smooth="yes"/>
      <point x="190" y="48"/>
      <point x="190" y="47"/>
      <point x="190" y="45" type="curve" smooth="yes"/>
      <point x="190" y="44"/>
      <point x="190" y="43"/>
      <point x="192" y="40" type="curve" smooth="yes"/>
      <point x="182" y="38"/>
      <point x="174" y="39"/>
      <point x="168" y="45" type="curve" smooth="yes"/>
      <point x="164" y="50"/>
      <point x="162" y="57"/>
      <point x="160" y="68" type="curve" smooth="yes"/>
      <point x="160" y="75"/>
      <point x="163" y="82"/>
      <point x="169" y="90" type="curve" smooth="yes"/>
      <point x="175" y="97"/>
      <point x="184" y="100"/>
      <point x="196" y="101" type="curve" smooth="yes"/>
      <point x="216" y="101"/>
      <point x="230" y="95"/>
      <point x="238" y="83" type="curve" smooth="yes"/>
      <point x="242" y="76"/>
      <point x="244" y="67"/>
      <point x="245" y="56" type="curve" smooth="yes"/>
      <point x="245" y="40"/>
      <point x="237" y="27"/>
      <point x="221" y="15" type="curve" smooth="yes"/>
      <point x="206" y="5"/>
      <point x="189" y="0"/>
      <point x="168" y="-1" type="curve" smooth="yes"/>
      <point x="142" y="-1"/>
      <point x="122" y="2"/>
      <point x="108" y="8" type="curve" smooth="yes"/>
      <point x="88" y="16"/>
      <point x="78" y="32"/>
      <point x="78" y="56" type="curve" smooth="yes"/>
      <point x="78" y="76"/>
      <point x="85" y="91"/>
      <point x="99" y="101" type="curve" smooth="yes"/>
      <point x="120" y="110" type="line" smooth="yes"/>
      <point x="114" y="113"/>
      <point x="109" y="116"/>
      <point x="105" y="121" type="curve" smooth="yes"/>
      <point x="95" y="133"/>
      <point x="90" y="152"/>
      <point x="90" y="178" type="curve" smooth="yes"/>
      <point x="91" y="382" type="line" smooth="yes"/>
      <point x="91" y="412"/>
      <point x="106" y="440"/>
      <point x="137" y="467" type="curve" smooth="yes"/>
      <point x="163" y="489"/>
      <point x="185" y="500"/>
    </contour>
  </outline>
</glyph>
<glyph name="u1A72" format="2">
  <advance width="286"/>
  <unicode hex="1A72"/>
  <outline>
    <contour>
      <point x="180" y="475" type="curve" smooth="yes"/>
      <point x="221" y="482" type="line" smooth="yes"/>
      <point x="272" y="491" type="line" smooth="yes"/>
      <point x="287" y="493"/>
      <point x="296" y="495"/>
      <point x="300" y="497" type="curve" smooth="yes"/>
      <point x="304" y="499"/>
      <point x="306" y="502"/>
      <point x="306" y="508" type="curve" smooth="yes"/>
      <point x="306" y="512"/>
      <point x="305" y="516"/>
      <point x="301" y="522" type="curve" smooth="yes"/>
      <point x="299" y="529"/>
      <point x="290" y="536"/>
      <point x="274" y="543" type="curve" smooth="yes"/>
      <point x="259" y="550"/>
      <point x="246" y="553"/>
      <point x="234" y="554" type="curve" smooth="yes"/>
      <point x="183" y="555" type="line" smooth="yes"/>
      <point x="134" y="559" type="line" smooth="yes"/>
      <point x="115" y="559"/>
      <point x="100" y="558"/>
      <point x="87" y="554" type="curve" smooth="yes"/>
      <point x="63" y="548"/>
      <point x="51" y="537"/>
      <point x="51" y="520" type="curve" smooth="yes"/>
      <point x="51" y="507"/>
      <point x="53" y="498"/>
      <point x="57" y="491" type="curve" smooth="yes"/>
      <point x="61" y="487"/>
      <point x="67" y="485"/>
      <point x="76" y="485" type="curve" smooth="yes"/>
      <point x="85" y="485"/>
      <point x="92" y="490"/>
      <point x="98" y="500" type="curve" smooth="yes"/>
      <point x="98" y="501"/>
      <point x="99" y="502"/>
      <point x="103" y="505" type="curve" smooth="yes"/>
      <point x="113" y="500"/>
      <point x="118" y="495"/>
      <point x="118" y="488" type="curve" smooth="yes"/>
      <point x="118" y="482"/>
      <point x="114" y="476"/>
      <point x="104" y="470" type="curve" smooth="yes"/>
      <point x="96" y="464"/>
      <point x="86" y="461"/>
      <point x="74" y="461" type="curve" smooth="yes"/>
      <point x="41" y="461"/>
      <point x="25" y="479"/>
      <point x="24" y="517" type="curve" smooth="yes"/>
      <point x="24" y="541"/>
      <point x="33" y="558"/>
      <point x="51" y="570" type="curve" smooth="yes"/>
      <point x="69" y="582"/>
      <point x="93" y="588"/>
      <point x="124" y="588" type="curve" smooth="yes"/>
      <point x="148" y="588" type="line" smooth="yes"/>
      <point x="177" y="589" type="line" smooth="yes"/>
      <point x="198" y="589"/>
      <point x="221" y="587"/>
      <point x="247" y="583" type="curve" smooth="yes"/>
      <point x="273" y="579"/>
      <point x="290" y="575"/>
      <point x="300" y="571" type="curve" smooth="yes"/>
      <point x="316" y="564"/>
      <point x="328" y="551"/>
      <point x="336" y="531" type="curve" smooth="yes"/>
      <point x="340" y="512" type="line" smooth="yes"/>
      <point x="340" y="499"/>
      <point x="334" y="488"/>
      <point x="321" y="477" type="curve" smooth="yes"/>
      <point x="309" y="468"/>
      <point x="293" y="464"/>
      <point x="272" y="463" type="curve" smooth="yes"/>
      <point x="252" y="462" type="line" smooth="yes"/>
      <point x="245" y="460"/>
      <point x="228" y="457"/>
      <point x="201" y="451" type="curve" smooth="yes"/>
      <point x="179" y="449"/>
      <point x="164" y="441"/>
      <point x="154" y="426" type="curve" smooth="yes"/>
      <point x="146" y="413"/>
      <point x="142" y="396"/>
      <point x="142" y="375" type="curve" smooth="yes"/>
      <point x="142" y="178" type="line" smooth="yes"/>
      <point x="142" y="170"/>
      <point x="142" y="163"/>
      <point x="143" y="155" type="curve" smooth="yes"/>
      <point x="143" y="148"/>
      <point x="144" y="140"/>
      <point x="148" y="130" type="curve" smooth="yes"/>
      <point x="150" y="121"/>
      <point x="157" y="117"/>
      <point x="171" y="116" type="curve" smooth="yes"/>
      <point x="174" y="110" type="line" smooth="yes"/>
      <point x="172" y="104" type="line" smooth="yes"/>
      <point x="139" y="87" type="line" smooth="yes"/>
      <point x="132" y="82"/>
      <point x="129" y="73"/>
      <point x="128" y="58" type="curve" smooth="yes"/>
      <point x="128" y="46"/>
      <point x="134" y="39"/>
      <point x="147" y="36" type="curve" smooth="yes"/>
      <point x="183" y="33" type="line" smooth="yes"/>
      <point x="196" y="33"/>
      <point x="206" y="34"/>
      <point x="213" y="38" type="curve" smooth="yes"/>
      <point x="220" y="42"/>
      <point x="224" y="48"/>
      <point x="225" y="56" type="curve" smooth="yes"/>
      <point x="225" y="66"/>
      <point x="221" y="71"/>
      <point x="213" y="71" type="curve" smooth="yes"/>
      <point x="207" y="71"/>
      <point x="204" y="69"/>
      <point x="202" y="63" type="curve" smooth="yes"/>
      <point x="206" y="50" type="line" smooth="yes"/>
      <point x="206" y="48"/>
      <point x="206" y="47"/>
      <point x="206" y="45" type="curve" smooth="yes"/>
      <point x="206" y="44"/>
      <point x="206" y="43"/>
      <point x="208" y="40" type="curve" smooth="yes"/>
      <point x="198" y="38"/>
      <point x="190" y="39"/>
      <point x="184" y="45" type="curve" smooth="yes"/>
      <point x="180" y="50"/>
      <point x="178" y="57"/>
      <point x="176" y="68" type="curve" smooth="yes"/>
      <point x="176" y="75"/>
      <point x="179" y="82"/>
      <point x="185" y="90" type="curve" smooth="yes"/>
      <point x="191" y="97"/>
      <point x="200" y="100"/>
      <point x="212" y="101" type="curve" smooth="yes"/>
      <point x="232" y="101"/>
      <point x="246" y="95"/>
      <point x="254" y="83" type="curve" smooth="yes"/>
      <point x="258" y="76"/>
      <point x="260" y="67"/>
      <point x="261" y="56" type="curve" smooth="yes"/>
      <point x="261" y="40"/>
      <point x="253" y="27"/>
      <point x="237" y="15" type="curve" smooth="yes"/>
      <point x="222" y="5"/>
      <point x="205" y="0"/>
      <point x="184" y="-1" type="curve" smooth="yes"/>
      <point x="158" y="-1"/>
      <point x="138" y="2"/>
      <point x="124" y="8" type="curve" smooth="yes"/>
      <point x="104" y="16"/>
      <point x="94" y="32"/>
      <point x="94" y="56" type="curve" smooth="yes"/>
      <point x="94" y="76"/>
      <point x="101" y="91"/>
      <point x="115" y="101" type="curve" smooth="yes"/>
      <point x="136" y="110" type="line" smooth="yes"/>
      <point x="130" y="113"/>
      <point x="125" y="116"/>
      <point x="121" y="121" type="curve" smooth="yes"/>
      <point x="111" y="133"/>
      <point x="106" y="152"/>
      <point x="106" y="178" type="curve" smooth="yes"/>
      <point x="106" y="373" type="line" smooth="yes"/>
      <point x="106" y="403"/>
      <point x="114" y="427"/>
      <point x="132" y="447" type="curve" smooth="yes"/>
      <point x="144" y="460"/>
      <point x="160" y="469"/>
    </contour>
  </outline>
</glyph>
<glyph name="u1A73" format="2">
  <advance width="0"/>
  <unicode hex="1A73"/>
  <anchor x="-268.5" y="642" name="UD"/>
  <anchor x="-268.5" y="416" name="_U"/>
  <anchor x="-268.5" y="416" name="_UD"/>
  <outline>
    <contour>
      <point x="-270" y="550" type="curve" smooth="yes"/>
      <point x="-274" y="541"/>
      <point x="-293" y="520"/>
      <point x="-327" y="486" type="curve" smooth="yes"/>
      <point x="-365" y="450"/>
      <point x="-402" y="422"/>
      <point x="-440" y="400" type="curve" smooth="yes"/>
      <point x="-445" y="398"/>
      <point x="-455" y="401"/>
      <point x="-472" y="409" type="curve" smooth="yes"/>
      <point x="-474" y="422" type="line" smooth="yes"/>
      <point x="-448" y="436"/>
      <point x="-421" y="453"/>
      <point x="-392" y="475" type="curve" smooth="yes"/>
      <point x="-359" y="498"/>
      <point x="-337" y="516"/>
      <point x="-325" y="529" type="curve" smooth="yes"/>
      <point x="-311" y="545"/>
      <point x="-303" y="556"/>
      <point x="-301" y="563" type="curve" smooth="yes"/>
      <point x="-299" y="570"/>
      <point x="-298" y="581"/>
      <point x="-298" y="597" type="curve" smooth="yes"/>
      <point x="-298" y="602"/>
      <point x="-295" y="606"/>
      <point x="-289" y="611" type="curve" smooth="yes"/>
      <point x="-284" y="615"/>
      <point x="-277" y="617"/>
      <point x="-268" y="617" type="curve" smooth="yes"/>
      <point x="-263" y="617"/>
      <point x="-258" y="616"/>
      <point x="-251" y="612" type="curve" smooth="yes"/>
      <point x="-245" y="609"/>
      <point x="-242" y="604"/>
      <point x="-241" y="597" type="curve" smooth="yes"/>
      <point x="-241" y="572"/>
      <point x="-233" y="550"/>
      <point x="-215" y="529" type="curve" smooth="yes"/>
      <point x="-210" y="523"/>
      <point x="-203" y="516"/>
      <point x="-192" y="508" type="curve" smooth="yes"/>
      <point x="-182" y="501"/>
      <point x="-168" y="491"/>
      <point x="-150" y="477" type="curve" smooth="yes"/>
      <point x="-117" y="453"/>
      <point x="-90" y="435"/>
      <point x="-67" y="422" type="curve" smooth="yes"/>
      <point x="-68" y="410" type="line" smooth="yes"/>
      <point x="-81" y="402"/>
      <point x="-92" y="399"/>
      <point x="-101" y="400" type="curve" smooth="yes"/>
      <point x="-119" y="410"/>
      <point x="-137" y="421"/>
      <point x="-155" y="435" type="curve" smooth="yes"/>
      <point x="-173" y="449"/>
      <point x="-192" y="466"/>
      <point x="-213" y="486" type="curve" smooth="yes"/>
      <point x="-247" y="518"/>
      <point x="-266" y="539"/>
    </contour>
  </outline>
</glyph>
<glyph name="u1A75" format="2">
  <advance width="0"/>
  <unicode hex="1A75"/>
  <anchor x="-208.5" y="562" name="UD"/>
  <anchor x="-208.5" y="416" name="_U"/>
  <anchor x="-208.5" y="416" name="_UD"/>
  <outline>
    <contour>
      <point x="-207" y="416" type="line" smooth="yes"/>
      <point x="-213" y="416" type="line" smooth="yes"/>
      <point x="-241" y="528" type="line" smooth="yes"/>
      <point x="-237" y="532"/>
      <point x="-234" y="535"/>
      <point x="-230" y="537" type="curve" smooth="yes"/>
      <point x="-210" y="543" type="line" smooth="yes"/>
      <point x="-197" y="543"/>
      <point x="-186" y="538"/>
      <point x="-176" y="528" type="curve" smooth="yes"/>
    </contour>
  </outline>
</glyph>
<glyph name="u1A77" format="2">
  <advance width="63"/>
  <unicode hex="1A77"/>
  <outline>
    <contour>
      <point x="-163" y="385" type="curve"/>
      <point x="-170" y="392" type="line"/>
      <point x="-142" y="398"/>
      <point x="-142" y="398"/>
      <point x="-109" y="428" type="curve" smooth="yes"/>
      <point x="-76" y="458"/>
      <point x="-76" y="458"/>
      <point x="-76" y="479" type="curve"/>
      <point x="-51" y="484" type="line"/>
      <point x="-51" y="462"/>
      <point x="-51" y="462"/>
      <point x="-17" y="430" type="curve" smooth="yes"/>
      <point x="17" y="398"/>
      <point x="17" y="398"/>
      <point x="46" y="392" type="curve"/>
      <point x="39" y="385" type="line"/>
      <point x="5" y="393"/>
      <point x="5" y="393"/>
      <point x="-21.5" y="407" type="curve" smooth="yes"/>
      <point x="-48" y="421"/>
      <point x="-48" y="421"/>
      <point x="-63" y="445" type="curve"/>
      <point x="-75" y="424"/>
      <point x="-75" y="424"/>
      <point x="-102.5" y="408" type="curve" smooth="yes"/>
      <point x="-130" y="392"/>
      <point x="-130" y="392"/>
    </contour>
  </outline>
</glyph>
<glyph name="u1A83" format="2">
  <advance width="371"/>
  <unicode hex="1A83"/>
  <outline>
    <contour>
      <point x="336" y="-321" type="curve"/>
      <point x="307" y="-336" type="line"/>
      <point x="250" y="-279"/>
      <point x="250" y="-279"/>
      <point x="187" y="-177" type="curve"/>
      <point x="145" y="-102" type="line"/>
      <point x="101" y="-16" type="line"/>
      <point x="68" y="58" type="line"/>
      <point x="92" y="76" type="line"/>
      <point x="103" y="66" type="line" smooth="yes"/>
      <point x="135" y="42"/>
      <point x="135" y="42"/>
      <point x="183" y="42" type="curve" smooth="yes"/>
      <point x="228" y="42"/>
      <point x="228" y="42"/>
      <point x="251.5" y="75.5" type="curve" smooth="yes"/>
      <point x="275" y="109"/>
      <point x="275" y="109"/>
      <point x="275" y="159" type="curve" smooth="yes"/>
      <point x="275" y="207"/>
      <point x="275" y="207"/>
      <point x="245" y="239" type="curve" smooth="yes"/>
      <point x="214" y="267"/>
      <point x="214" y="267"/>
      <point x="157" y="267" type="curve" smooth="yes"/>
      <point x="126" y="267"/>
      <point x="126" y="267"/>
      <point x="103" y="250" type="curve" smooth="yes"/>
      <point x="80" y="235"/>
      <point x="80" y="235"/>
      <point x="80" y="216" type="curve" smooth="yes"/>
      <point x="80" y="205"/>
      <point x="80" y="205"/>
      <point x="90" y="198" type="curve" smooth="yes"/>
      <point x="93" y="195"/>
      <point x="93" y="195"/>
      <point x="96" y="198" type="curve" smooth="yes"/>
      <point x="101" y="205" type="line" smooth="yes"/>
      <point x="107" y="208"/>
      <point x="107" y="208"/>
      <point x="112.5" y="205" type="curve" smooth="yes"/>
      <point x="118" y="202"/>
      <point x="118" y="202"/>
      <point x="121" y="191" type="curve"/>
      <point x="118" y="183" type="line"/>
      <point x="109" y="171"/>
      <point x="109" y="171"/>
      <point x="93" y="171" type="curve" smooth="yes"/>
      <point x="87" y="171"/>
      <point x="87" y="171"/>
      <point x="76" y="177" type="curve" smooth="yes"/>
      <point x="53" y="194"/>
      <point x="53" y="194"/>
      <point x="53" y="219" type="curve" smooth="yes"/>
      <point x="53" y="245"/>
      <point x="53" y="245"/>
      <point x="83" y="269" type="curve" smooth="yes"/>
      <point x="113" y="293"/>
      <point x="113" y="293"/>
      <point x="162" y="293" type="curve" smooth="yes"/>
      <point x="237" y="293"/>
      <point x="237" y="293"/>
      <point x="273" y="256" type="curve" smooth="yes"/>
      <point x="305" y="222"/>
      <point x="305" y="222"/>
      <point x="305" y="160" type="curve" smooth="yes"/>
      <point x="305" y="107"/>
      <point x="305" y="107"/>
      <point x="277" y="66" type="curve" smooth="yes"/>
      <point x="244" y="16"/>
      <point x="244" y="16"/>
      <point x="183" y="16" type="curve"/>
      <point x="144" y="19" type="line" smooth="yes"/>
      <point x="129" y="22"/>
      <point x="129" y="22"/>
      <point x="112" y="32" type="curve"/>
      <point x="120" y="-22"/>
      <point x="120" y="-22"/>
      <point x="205" y="-159" type="curve" smooth="yes"/>
      <point x="290" y="-296"/>
      <point x="290" y="-296"/>
    </contour>
  </outline>
</glyph>
<glyph name="u1A85" format="2">
  <advance width="380"/>
  <unicode hex="1A85"/>
  <outline>
    <contour>
      <point x="362" y="-98" type="line" smooth="yes"/>
      <point x="362" y="-118"/>
      <point x="362" y="-118"/>
      <point x="299" y="-172" type="curve" smooth="yes"/>
      <point x="278" y="-191"/>
      <point x="278" y="-191"/>
      <point x="242" y="-215" type="curve" smooth="yes"/>
      <point x="179" y="-255" type="line"/>
      <point x="115" y="-287" type="line"/>
      <point x="106" y="-289" type="line" smooth="yes"/>
      <point x="92" y="-289"/>
      <point x="92" y="-289"/>
      <point x="80" y="-283" type="curve"/>
      <point x="81" y="-276" type="line"/>
      <point x="107" y="-266" type="line"/>
      <point x="123" y="-259" type="line"/>
      <point x="167" y="-238" type="line" smooth="yes"/>
      <point x="190" y="-226"/>
      <point x="190" y="-226"/>
      <point x="215.5" y="-208" type="curve" smooth="yes"/>
      <point x="241" y="-190"/>
      <point x="241" y="-190"/>
      <point x="272" y="-164" type="curve" smooth="yes"/>
      <point x="328" y="-117"/>
      <point x="328" y="-117"/>
      <point x="331" y="-98" type="curve" smooth="yes"/>
      <point x="332" y="203" type="line" smooth="yes"/>
      <point x="332" y="232"/>
      <point x="332" y="232"/>
      <point x="318" y="249.5" type="curve" smooth="yes"/>
      <point x="304" y="267"/>
      <point x="304" y="267"/>
      <point x="273" y="267" type="curve" smooth="yes"/>
      <point x="243" y="267"/>
      <point x="243" y="267"/>
      <point x="225" y="229" type="curve"/>
      <point x="214" y="191" type="line"/>
      <point x="190" y="191" type="line"/>
      <point x="183" y="214" type="line"/>
      <point x="162" y="266"/>
      <point x="162" y="266"/>
      <point x="126" y="266" type="curve" smooth="yes"/>
      <point x="96" y="266"/>
      <point x="96" y="266"/>
      <point x="83" y="238" type="curve" smooth="yes"/>
      <point x="77" y="223"/>
      <point x="77" y="223"/>
      <point x="77" y="187" type="curve" smooth="yes"/>
      <point x="77" y="162"/>
      <point x="77" y="162"/>
      <point x="92.5" y="142.5" type="curve" smooth="yes"/>
      <point x="108" y="123"/>
      <point x="108" y="123"/>
      <point x="140" y="123" type="curve" smooth="yes"/>
      <point x="167" y="126" type="line" smooth="yes"/>
      <point x="179" y="128"/>
      <point x="179" y="128"/>
      <point x="179" y="112" type="curve" smooth="yes"/>
      <point x="179" y="97"/>
      <point x="179" y="97"/>
      <point x="165" y="94" type="curve" smooth="yes"/>
      <point x="144" y="92" type="line"/>
      <point x="97" y="92"/>
      <point x="97" y="92"/>
      <point x="71" y="117" type="curve" smooth="yes"/>
      <point x="46" y="145"/>
      <point x="46" y="145"/>
      <point x="46" y="185" type="curve" smooth="yes"/>
      <point x="46" y="228"/>
      <point x="46" y="228"/>
      <point x="65" y="257" type="curve" smooth="yes"/>
      <point x="88" y="292"/>
      <point x="88" y="292"/>
      <point x="130" y="292" type="curve" smooth="yes"/>
      <point x="158" y="292"/>
      <point x="158" y="292"/>
      <point x="179" y="275.5" type="curve" smooth="yes"/>
      <point x="200" y="259"/>
      <point x="200" y="259"/>
      <point x="204" y="237" type="curve"/>
      <point x="213" y="258" type="line" smooth="yes"/>
      <point x="217" y="267"/>
      <point x="217" y="267"/>
      <point x="224" y="273" type="curve" smooth="yes"/>
      <point x="241" y="292"/>
      <point x="241" y="292"/>
      <point x="269" y="292" type="curve" smooth="yes"/>
      <point x="314" y="292"/>
      <point x="314" y="292"/>
      <point x="338" y="271" type="curve" smooth="yes"/>
      <point x="362" y="250"/>
      <point x="362" y="250"/>
      <point x="362" y="205" type="curve" smooth="yes"/>
    </contour>
  </outline>
</glyph>
<glyph name="u1A94" format="2">
  <advance width="458"/>
  <unicode hex="1A94"/>
  <outline>
    <contour>
      <point x="485" y="-228" type="curve" smooth="yes"/>
      <point x="392" y="-277" type="line"/>
      <point x="344" y="-296"/>
      <point x="344" y="-296"/>
      <point x="287" y="-296" type="curve" smooth="yes"/>
      <point x="239" y="-296"/>
      <point x="239" y="-296"/>
      <point x="200" y="-290" type="curve" smooth="yes"/>
      <point x="161" y="-284"/>
      <point x="161" y="-284"/>
      <point x="128" y="-263" type="curve" smooth="yes"/>
      <point x="102" y="-244"/>
      <point x="102" y="-244"/>
      <point x="81" y="-201" type="curve" smooth="yes"/>
      <point x="70" y="-171"/>
      <point x="70" y="-171"/>
      <point x="62" y="-133" type="curve"/>
      <point x="62" y="212" type="line" smooth="yes"/>
      <point x="62" y="249"/>
      <point x="62" y="249"/>
      <point x="82" y="270.5" type="curve" smooth="yes"/>
      <point x="102" y="292"/>
      <point x="102" y="292"/>
      <point x="137" y="292" type="curve" smooth="yes"/>
      <point x="184" y="292"/>
      <point x="184" y="292"/>
      <point x="205" y="262" type="curve" smooth="yes"/>
      <point x="214" y="248"/>
      <point x="214" y="248"/>
      <point x="220" y="210" type="curve" smooth="yes"/>
      <point x="235" y="126" type="line"/>
      <point x="247" y="54" type="line" smooth="yes"/>
      <point x="250" y="28"/>
      <point x="250" y="28"/>
      <point x="297" y="28" type="curve" smooth="yes"/>
      <point x="324" y="28"/>
      <point x="324" y="28"/>
      <point x="339" y="37" type="curve" smooth="yes"/>
      <point x="354" y="46"/>
      <point x="354" y="46"/>
      <point x="357" y="62" type="curve" smooth="yes"/>
      <point x="358" y="83" type="line"/>
      <point x="360" y="99" type="line" smooth="yes"/>
      <point x="360" y="115"/>
      <point x="360" y="115"/>
      <point x="355" y="128" type="curve" smooth="yes"/>
      <point x="346" y="140"/>
      <point x="346" y="140"/>
      <point x="321" y="150" type="curve" smooth="yes"/>
      <point x="294" y="157" type="line"/>
      <point x="292" y="167" type="line" smooth="yes"/>
      <point x="292" y="176"/>
      <point x="292" y="176"/>
      <point x="296" y="177" type="curve" smooth="yes"/>
      <point x="342" y="182" type="line" smooth="yes"/>
      <point x="362" y="188"/>
      <point x="362" y="188"/>
      <point x="366" y="198" type="curve" smooth="yes"/>
      <point x="370" y="233" type="line" smooth="yes"/>
      <point x="370" y="247"/>
      <point x="370" y="247"/>
      <point x="361.5" y="257" type="curve" smooth="yes"/>
      <point x="353" y="267"/>
      <point x="353" y="267"/>
      <point x="337" y="267" type="curve" smooth="yes"/>
      <point x="329" y="267"/>
      <point x="329" y="267"/>
      <point x="320" y="261" type="curve" smooth="yes"/>
      <point x="315" y="256"/>
      <point x="315" y="256"/>
      <point x="313" y="248" type="curve"/>
      <point x="316" y="237" type="line" smooth="yes"/>
      <point x="319" y="231"/>
      <point x="319" y="231"/>
      <point x="316" y="228" type="curve" smooth="yes"/>
      <point x="303" y="223" type="line" smooth="yes"/>
      <point x="293" y="223"/>
      <point x="293" y="223"/>
      <point x="287" y="232" type="curve"/>
      <point x="284" y="251" type="line" smooth="yes"/>
      <point x="284" y="270"/>
      <point x="284" y="270"/>
      <point x="302.5" y="282" type="curve" smooth="yes"/>
      <point x="321" y="294"/>
      <point x="321" y="294"/>
      <point x="343" y="294" type="curve" smooth="yes"/>
      <point x="373" y="294"/>
      <point x="373" y="294"/>
      <point x="388" y="273" type="curve" smooth="yes"/>
      <point x="397" y="258"/>
      <point x="397" y="258"/>
      <point x="397" y="235" type="curve" smooth="yes"/>
      <point x="397" y="211"/>
      <point x="397" y="211"/>
      <point x="394" y="197" type="curve" smooth="yes"/>
      <point x="391" y="183"/>
      <point x="391" y="183"/>
      <point x="378" y="173" type="curve"/>
      <point x="355" y="164" type="line"/>
      <point x="347" y="162" type="line"/>
      <point x="374" y="152" type="line" smooth="yes"/>
      <point x="378" y="147"/>
      <point x="378" y="147"/>
      <point x="385" y="128" type="curve"/>
      <point x="389" y="99" type="line"/>
      <point x="386" y="69" type="line"/>
      <point x="382" y="51" type="line"/>
      <point x="382" y="31"/>
      <point x="382" y="31"/>
      <point x="359" y="15.5" type="curve" smooth="yes"/>
      <point x="336" y="0"/>
      <point x="336" y="0"/>
      <point x="298" y="0" type="curve" smooth="yes"/>
      <point x="265" y="0"/>
      <point x="265" y="0"/>
      <point x="244" y="13" type="curve" smooth="yes"/>
      <point x="223" y="26"/>
      <point x="223" y="26"/>
      <point x="217" y="53" type="curve" smooth="yes"/>
      <point x="204" y="131" type="line"/>
      <point x="190" y="207" type="line" smooth="yes"/>
      <point x="187" y="231"/>
      <point x="187" y="231"/>
      <point x="176" y="243" type="curve" smooth="yes"/>
      <point x="162" y="263"/>
      <point x="162" y="263"/>
      <point x="134" y="263" type="curve" smooth="yes"/>
      <point x="95" y="263"/>
      <point x="95" y="263"/>
      <point x="95" y="212" type="curve" smooth="yes"/>
      <point x="95" y="-131" type="line" smooth="yes"/>
      <point x="95" y="-160"/>
      <point x="95" y="-160"/>
      <point x="109.5" y="-191.5" type="curve" smooth="yes"/>
      <point x="124" y="-223"/>
      <point x="124" y="-223"/>
      <point x="149" y="-241" type="curve" smooth="yes"/>
      <point x="168" y="-256"/>
      <point x="168" y="-256"/>
      <point x="207" y="-264" type="curve" smooth="yes"/>
      <point x="242" y="-268" type="line"/>
      <point x="286" y="-269" type="line" smooth="yes"/>
      <point x="343" y="-269"/>
      <point x="343" y="-269"/>
      <point x="383" y="-252" type="curve" smooth="yes"/>
      <point x="473" y="-206" type="line" smooth="yes"/>
      <point x="479" y="-203"/>
      <point x="479" y="-203"/>
      <point x="486" y="-206" type="curve" smooth="yes"/>
      <point x="492" y="-209"/>
      <point x="492" y="-209"/>
      <point x="492" y="-217" type="curve" smooth="yes"/>
      <point x="491" y="-219"/>
      <point x="491" y="-219"/>
      <point x="490" y="-221.5" type="curve" smooth="yes"/>
      <point x="489" y="-224"/>
      <point x="489" y="-224"/>
    </contour>
  </outline>
</glyph>
<glyph name="u1AA0" format="2">
  <advance width="485"/>
  <unicode hex="1AA0"/>
  <outline>
    <contour>
      <point x="412" y="171" type="curve" smooth="yes"/>
      <point x="412" y="101"/>
      <point x="412" y="101"/>
      <point x="358" y="50.5" type="curve" smooth="yes"/>
      <point x="304" y="0"/>
      <point x="304" y="0"/>
      <point x="225" y="0" type="curve" smooth="yes"/>
      <point x="155" y="0"/>
      <point x="155" y="0"/>
      <point x="103.5" y="50.5" type="curve" smooth="yes"/>
      <point x="52" y="101"/>
      <point x="52" y="101"/>
      <point x="52" y="171" type="curve" smooth="yes"/>
      <point x="52" y="247"/>
      <point x="52" y="247"/>
      <point x="100.5" y="301.5" type="curve" smooth="yes"/>
      <point x="149" y="356"/>
      <point x="149" y="356"/>
      <point x="222" y="356" type="curve" smooth="yes"/>
      <point x="303" y="356"/>
      <point x="303" y="356"/>
      <point x="357.5" y="302.5" type="curve" smooth="yes"/>
      <point x="412" y="249"/>
      <point x="412" y="249"/>
    </contour>
    <contour>
      <point x="211" y="161" type="line"/>
      <point x="77" y="161" type="line"/>
      <point x="83" y="109"/>
      <point x="83" y="109"/>
      <point x="121" y="70" type="curve" smooth="yes"/>
      <point x="159" y="31"/>
      <point x="159" y="31"/>
      <point x="211" y="24" type="curve"/>
    </contour>
    <contour>
      <point x="236" y="161" type="line"/>
      <point x="236" y="24" type="line"/>
      <point x="297" y="24"/>
      <point x="297" y="24"/>
      <point x="342" y="68" type="curve" smooth="yes"/>
      <point x="387" y="112"/>
      <point x="387" y="112"/>
      <point x="387" y="161" type="curve"/>
    </contour>
    <contour>
      <point x="388" y="186" type="line"/>
      <point x="388" y="246"/>
      <point x="388" y="246"/>
      <point x="339" y="289.5" type="curve" smooth="yes"/>
      <point x="290" y="333"/>
      <point x="290" y="333"/>
      <point x="236" y="333" type="curve"/>
      <point x="236" y="186" type="line"/>
    </contour>
    <contour>
      <point x="211" y="332" type="line"/>
      <point x="153" y="325"/>
      <point x="153" y="325"/>
      <point x="114.5" y="282.5" type="curve" smooth="yes"/>
      <point x="76" y="240"/>
      <point x="76" y="240"/>
      <point x="76" y="186" type="curve"/>
      <point x="211" y="186" type="line"/>
    </contour>
  </outline>
</glyph>
<glyph name="u1AA1" format="2">
  <advance width="485"/>
  <unicode hex="1AA1"/>
  <outline>
    <contour>
      <point x="211" y="161" type="line"/>
      <point x="77" y="161" type="line"/>
      <point x="83" y="109"/>
      <point x="83" y="109"/>
      <point x="121" y="70" type="curve" smooth="yes"/>
      <point x="159" y="31"/>
      <point x="159" y="31"/>
      <point x="211" y="24" type="curve"/>
    </contour>
    <contour>
      <point x="236" y="161" type="line"/>
      <point x="236" y="24" type="line"/>
      <point x="297" y="24"/>
      <point x="297" y="24"/>
      <point x="342" y="68" type="curve" smooth="yes"/>
      <point x="387" y="112"/>
      <point x="387" y="112"/>
      <point x="387" y="161" type="curve"/>
    </contour>
    <contour>
      <point x="211" y="332" type="line"/>
      <point x="153" y="325"/>
      <point x="153" y="325"/>
      <point x="114.5" y="282.5" type="curve" smooth="yes"/>
      <point x="76" y="240"/>
      <point x="76" y="240"/>
      <point x="76" y="186" type="curve"/>
      <point x="211" y="186" type="line"/>
    </contour>
    <contour>
      <point x="225" y="0" type="curve" smooth="yes"/>
      <point x="155" y="0"/>
      <point x="155" y="0"/>
      <point x="103.5" y="50.5" type="curve" smooth="yes"/>
      <point x="52" y="101"/>
      <point x="52" y="101"/>
      <point x="52" y="171" type="curve" smooth="yes"/>
      <point x="52" y="249"/>
      <point x="52" y="249"/>
      <point x="102" y="302.5" type="curve" smooth="yes"/>
      <point x="152" y="356"/>
      <point x="152" y="356"/>
      <point x="236" y="356" type="curve"/>
      <point x="236" y="186" type="line"/>
      <point x="412" y="186" type="line"/>
      <point x="412" y="103"/>
      <point x="412" y="103"/>
      <point x="358.5" y="51.5" type="curve" smooth="yes"/>
      <point x="305" y="0"/>
      <point x="305" y="0"/>
    </contour>
  </outline>
</glyph>
<glyph name="quoteright" format="2">
  <advance width="262"/>
  <unicode hex="2019"/>
  <outline>
    <contour>
      <point x="108" y="400" type="line"/>
      <point x="96" y="396" type="line"/>
      <point x="81" y="393" type="line" smooth="yes"/>
      <point x="66" y="393"/>
      <point x="66" y="393"/>
      <point x="58" y="404" type="curve"/>
      <point x="51" y="428" type="line" smooth="yes"/>
      <point x="51" y="438"/>
      <point x="51" y="438"/>
      <point x="59.5" y="446.5" type="curve" smooth="yes"/>
      <point x="68" y="455"/>
      <point x="68" y="455"/>
      <point x="84" y="459" type="curve" smooth="yes"/>
      <point x="100" y="459"/>
      <point x="100" y="459"/>
      <point x="111" y="452" type="curve" smooth="yes"/>
      <point x="116" y="450"/>
      <point x="116" y="450"/>
      <point x="128" y="433" type="curve"/>
      <point x="131" y="421" type="line"/>
      <point x="132" y="412" type="line"/>
      <point x="132" y="405" type="line"/>
      <point x="130" y="396" type="line"/>
      <point x="125" y="377" type="line" smooth="yes"/>
      <point x="119" y="352"/>
      <point x="119" y="352"/>
      <point x="91" y="324" type="curve" smooth="yes"/>
      <point x="70" y="303"/>
      <point x="70" y="303"/>
      <point x="62" y="303" type="curve"/>
      <point x="64" y="309" type="line"/>
      <point x="90" y="340"/>
      <point x="90" y="340"/>
      <point x="100" y="365" type="curve" smooth="yes"/>
      <point x="106" y="381" type="line"/>
      <point x="108" y="392" type="line"/>
    </contour>
  </outline>
</glyph>
<glyph name="quotedblright" format="2">
  <advance width="400"/>
  <unicode hex="201D"/>
  <outline>
    <contour>
      <point x="124" y="400" type="line"/>
      <point x="112" y="396" type="line"/>
      <point x="97" y="393" type="line" smooth="yes"/>
      <point x="85" y="393"/>
      <point x="85" y="393"/>
      <point x="73" y="406" type="curve" smooth="yes"/>
      <point x="67" y="414"/>
      <point x="67" y="414"/>
      <point x="67" y="428" type="curve" smooth="yes"/>
      <point x="67" y="437"/>
      <point x="67" y="437"/>
      <point x="75.5" y="446.5" type="curve" smooth="yes"/>
      <point x="84" y="456"/>
      <point x="84" y="456"/>
      <point x="100" y="459" type="curve" smooth="yes"/>
      <point x="113" y="459"/>
      <point x="113" y="459"/>
      <point x="123" y="454" type="curve" smooth="yes"/>
      <point x="135" y="450"/>
      <point x="135" y="450"/>
      <point x="144" y="433" type="curve"/>
      <point x="147" y="421" type="line"/>
      <point x="148" y="412" type="line"/>
      <point x="148" y="405" type="line"/>
      <point x="146" y="396" type="line"/>
      <point x="141" y="377" type="line" smooth="yes"/>
      <point x="135" y="352"/>
      <point x="135" y="352"/>
      <point x="107" y="324" type="curve" smooth="yes"/>
      <point x="86" y="303"/>
      <point x="86" y="303"/>
      <point x="78" y="303" type="curve"/>
      <point x="80" y="309" type="line"/>
      <point x="104" y="341"/>
      <point x="104" y="341"/>
      <point x="116" y="365" type="curve" smooth="yes"/>
      <point x="122" y="381" type="line"/>
      <point x="124" y="392" type="line"/>
    </contour>
    <contour>
      <point x="243" y="400" type="line"/>
      <point x="230" y="396" type="line"/>
      <point x="216" y="393" type="line" smooth="yes"/>
      <point x="204" y="393"/>
      <point x="204" y="393"/>
      <point x="191" y="406" type="curve"/>
      <point x="187" y="415" type="line"/>
      <point x="185" y="428" type="line" smooth="yes"/>
      <point x="185" y="437"/>
      <point x="185" y="437"/>
      <point x="193.5" y="446.5" type="curve" smooth="yes"/>
      <point x="202" y="456"/>
      <point x="202" y="456"/>
      <point x="219" y="459" type="curve" smooth="yes"/>
      <point x="231" y="459"/>
      <point x="231" y="459"/>
      <point x="242.5" y="453" type="curve" smooth="yes"/>
      <point x="254" y="447"/>
      <point x="254" y="447"/>
      <point x="263" y="433" type="curve"/>
      <point x="266" y="421" type="line"/>
      <point x="267" y="412" type="line"/>
      <point x="267" y="405" type="line"/>
      <point x="265" y="396" type="line"/>
      <point x="259" y="377" type="line" smooth="yes"/>
      <point x="253" y="349"/>
      <point x="253" y="349"/>
      <point x="225" y="324" type="curve" smooth="yes"/>
      <point x="205" y="303"/>
      <point x="205" y="303"/>
      <point x="196" y="303" type="curve"/>
      <point x="198" y="309" type="line"/>
      <point x="218" y="333"/>
      <point x="218" y="333"/>
      <point x="235" y="365" type="curve"/>
      <point x="240" y="381" type="line"/>
      <point x="243" y="392" type="line"/>
    </contour>
  </outline>
</glyph>
<glyph name="u1A20.sub" format="2">
  <advance width="1"/>
  <anchor x="-241.5" y="-306" name="LD"/>
  <anchor x="-39" y="-299" name="LRD"/>
  <anchor x="-235.5" y="0" name="_L"/>
  <anchor x="-235.5" y="0" name="_LD"/>
  <outline>
    <contour>
      <point x="-330" y="-218" type="curve" smooth="yes"/>
      <point x="-317" y="-218"/>
      <point x="-307" y="-220"/>
      <point x="-298" y="-226" type="curve" smooth="yes"/>
      <point x="-291" y="-232"/>
      <point x="-288" y="-241"/>
      <point x="-287" y="-254" type="curve" smooth="yes"/>
      <point x="-287" y="-268"/>
      <point x="-292" y="-279"/>
      <point x="-302" y="-288" type="curve" smooth="yes"/>
      <point x="-312" y="-297"/>
      <point x="-325" y="-301"/>
      <point x="-341" y="-302" type="curve" smooth="yes"/>
      <point x="-370" y="-302"/>
      <point x="-393" y="-289"/>
      <point x="-411" y="-262" type="curve" smooth="yes"/>
      <point x="-429" y="-236"/>
      <point x="-438" y="-207"/>
      <point x="-438" y="-173" type="curve" smooth="yes"/>
      <point x="-438" y="-141"/>
      <point x="-427" y="-112"/>
      <point x="-403" y="-86" type="curve" smooth="yes"/>
      <point x="-380" y="-61"/>
      <point x="-355" y="-49"/>
      <point x="-326" y="-48" type="curve" smooth="yes"/>
      <point x="-294" y="-48"/>
      <point x="-268" y="-61"/>
      <point x="-248" y="-87" type="curve" smooth="yes"/>
      <point x="-240" y="-97"/>
      <point x="-235" y="-107"/>
      <point x="-232" y="-119" type="curve" smooth="yes"/>
      <point x="-230" y="-129"/>
      <point x="-229" y="-141"/>
      <point x="-228" y="-157" type="curve" smooth="yes"/>
      <point x="-228" y="-291" type="line" smooth="yes"/>
      <point x="-241" y="-297" type="line" smooth="yes"/>
      <point x="-252" y="-301" type="line" smooth="yes"/>
      <point x="-252" y="-163" type="line" smooth="yes"/>
      <point x="-252" y="-141"/>
      <point x="-257" y="-122"/>
      <point x="-267" y="-106" type="curve" smooth="yes"/>
      <point x="-279" y="-86"/>
      <point x="-297" y="-76"/>
      <point x="-323" y="-76" type="curve" smooth="yes"/>
      <point x="-353" y="-76"/>
      <point x="-375" y="-81"/>
      <point x="-389" y="-93" type="curve" smooth="yes"/>
      <point x="-405" y="-107"/>
      <point x="-413" y="-133"/>
      <point x="-414" y="-172" type="curve" smooth="yes"/>
      <point x="-414" y="-197"/>
      <point x="-408" y="-220"/>
      <point x="-395" y="-241" type="curve" smooth="yes"/>
      <point x="-383" y="-261"/>
      <point x="-368" y="-271"/>
      <point x="-350" y="-272" type="curve" smooth="yes"/>
      <point x="-356" y="-270"/>
      <point x="-359" y="-264"/>
      <point x="-360" y="-253" type="curve" smooth="yes"/>
      <point x="-360" y="-245"/>
      <point x="-358" y="-237"/>
      <point x="-352" y="-229" type="curve" smooth="yes"/>
      <point x="-349" y="-223"/>
      <point x="-342" y="-220"/>
    </contour>
    <contour>
      <point x="-340" y="-269" type="curve" smooth="yes"/>
      <point x="-329" y="-271" type="line" smooth="yes"/>
      <point x="-319" y="-271"/>
      <point x="-314" y="-268"/>
      <point x="-314" y="-260" type="curve" smooth="yes"/>
      <point x="-314" y="-250"/>
      <point x="-320" y="-245"/>
      <point x="-333" y="-244" type="curve" smooth="yes"/>
      <point x="-338" y="-247" type="line" smooth="yes"/>
      <point x="-342" y="-251"/>
      <point x="-344" y="-256"/>
      <point x="-344" y="-262" type="curve" smooth="yes"/>
      <point x="-344" y="-266"/>
      <point x="-343" y="-268"/>
    </contour>
    <contour>
      <point x="-105" y="-248" type="curve" smooth="yes"/>
      <point x="-90" y="-237"/>
      <point x="-80" y="-227"/>
      <point x="-73" y="-217" type="curve" smooth="yes"/>
      <point x="-69" y="-211"/>
      <point x="-67" y="-203"/>
      <point x="-65" y="-192" type="curve" smooth="yes"/>
      <point x="-66" y="-171" type="line" smooth="yes"/>
      <point x="-66" y="-139"/>
      <point x="-74" y="-115"/>
      <point x="-92" y="-98" type="curve" smooth="yes"/>
      <point x="-109" y="-83"/>
      <point x="-131" y="-76"/>
      <point x="-158" y="-75" type="curve" smooth="yes"/>
      <point x="-178" y="-75"/>
      <point x="-195" y="-83"/>
      <point x="-209" y="-101" type="curve" smooth="yes"/>
      <point x="-223" y="-118"/>
      <point x="-230" y="-137"/>
      <point x="-230" y="-158" type="curve" smooth="yes"/>
      <point x="-235" y="-172" type="line" smooth="yes"/>
      <point x="-235" y="-174"/>
      <point x="-236" y="-176"/>
      <point x="-238" y="-178" type="curve" smooth="yes"/>
      <point x="-239" y="-180"/>
      <point x="-240" y="-181"/>
      <point x="-241" y="-182" type="curve" smooth="yes"/>
      <point x="-243" y="-176"/>
      <point x="-244" y="-170"/>
      <point x="-244" y="-164" type="curve" smooth="yes"/>
      <point x="-244" y="-132"/>
      <point x="-235" y="-105"/>
      <point x="-215" y="-81" type="curve" smooth="yes"/>
      <point x="-196" y="-59"/>
      <point x="-174" y="-48"/>
      <point x="-147" y="-48" type="curve" smooth="yes"/>
      <point x="-117" y="-48"/>
      <point x="-91" y="-62"/>
      <point x="-67" y="-90" type="curve" smooth="yes"/>
      <point x="-48" y="-114"/>
      <point x="-39" y="-140"/>
      <point x="-38" y="-170" type="curve" smooth="yes"/>
      <point x="-38" y="-191"/>
      <point x="-47" y="-213"/>
      <point x="-67" y="-237" type="curve" smooth="yes"/>
      <point x="-87" y="-260"/>
      <point x="-107" y="-273"/>
      <point x="-128" y="-276" type="curve" smooth="yes"/>
      <point x="-125" y="-279"/>
      <point x="-123" y="-280"/>
      <point x="-120" y="-281" type="curve" smooth="yes"/>
      <point x="-118" y="-281"/>
      <point x="-115" y="-280"/>
      <point x="-111" y="-276" type="curve" smooth="yes"/>
      <point x="-81" y="-254" type="line" smooth="yes"/>
      <point x="-72" y="-249" type="line" smooth="yes"/>
      <point x="-78" y="-264"/>
      <point x="-86" y="-276"/>
      <point x="-98" y="-286" type="curve" smooth="yes"/>
      <point x="-110" y="-295"/>
      <point x="-119" y="-300"/>
      <point x="-125" y="-301" type="curve" smooth="yes"/>
      <point x="-143" y="-296" type="line" smooth="yes"/>
      <point x="-155" y="-292"/>
      <point x="-162" y="-289"/>
      <point x="-164" y="-285" type="curve" smooth="yes"/>
      <point x="-155" y="-273" type="line" smooth="yes"/>
      <point x="-139" y="-262" type="line" smooth="yes"/>
      <point x="-123" y="-257" type="line" smooth="yes"/>
      <point x="-119" y="-257"/>
      <point x="-113" y="-254"/>
    </contour>
  </outline>
</glyph>
<glyph name="u1A26.sub" format="2">
  <advance width="1"/>
  <anchor x="-200" y="-303" name="LD"/>
  <anchor x="-65" y="-369" name="LRD"/>
  <anchor x="-217.5" y="0" name="_L"/>
  <anchor x="-217.5" y="0" name="_LD"/>
  <outline>
    <contour>
      <point x="-204" y="-241" type="curve" smooth="yes"/>
      <point x="-216" y="-248"/>
      <point x="-222" y="-257"/>
      <point x="-223" y="-270" type="curve" smooth="yes"/>
      <point x="-223" y="-278"/>
      <point x="-221" y="-285"/>
      <point x="-215" y="-291" type="curve" smooth="yes"/>
      <point x="-211" y="-296"/>
      <point x="-206" y="-299"/>
      <point x="-200" y="-301" type="curve" smooth="yes"/>
      <point x="-171" y="-301"/>
      <point x="-157" y="-289"/>
      <point x="-156" y="-264" type="curve" smooth="yes"/>
      <point x="-156" y="-246"/>
      <point x="-161" y="-232"/>
      <point x="-173" y="-220" type="curve" smooth="yes"/>
      <point x="-185" y="-211"/>
      <point x="-201" y="-207"/>
      <point x="-222" y="-206" type="curve" smooth="yes"/>
      <point x="-232" y="-206"/>
      <point x="-249" y="-220"/>
      <point x="-274" y="-249" type="curve" smooth="yes"/>
      <point x="-285" y="-263"/>
      <point x="-298" y="-270"/>
      <point x="-314" y="-270" type="curve" smooth="yes"/>
      <point x="-330" y="-270"/>
      <point x="-343" y="-264"/>
      <point x="-353" y="-251" type="curve" smooth="yes"/>
      <point x="-363" y="-239"/>
      <point x="-368" y="-225"/>
      <point x="-368" y="-209" type="curve" smooth="yes"/>
      <point x="-368" y="-187"/>
      <point x="-364" y="-171"/>
      <point x="-354" y="-159" type="curve" smooth="yes"/>
      <point x="-345" y="-149"/>
      <point x="-328" y="-139"/>
      <point x="-302" y="-128" type="curve" smooth="yes"/>
      <point x="-286" y="-121" type="line" smooth="yes"/>
      <point x="-268" y="-110" type="line" smooth="yes"/>
      <point x="-262" y="-107"/>
      <point x="-259" y="-102"/>
      <point x="-259" y="-93" type="curve" smooth="yes"/>
      <point x="-259" y="-87"/>
      <point x="-261" y="-82"/>
      <point x="-266" y="-76" type="curve" smooth="yes"/>
      <point x="-272" y="-76"/>
      <point x="-277" y="-76"/>
      <point x="-282" y="-77" type="curve" smooth="yes"/>
      <point x="-290" y="-80" type="line" smooth="yes"/>
      <point x="-288" y="-91" type="line" smooth="yes"/>
      <point x="-288" y="-95"/>
      <point x="-289" y="-98"/>
      <point x="-293" y="-102" type="curve" smooth="yes"/>
      <point x="-316" y="-111" type="line" smooth="yes"/>
      <point x="-342" y="-117"/>
      <point x="-362" y="-127"/>
      <point x="-376" y="-143" type="curve" smooth="yes"/>
      <point x="-390" y="-159"/>
      <point x="-397" y="-182"/>
      <point x="-397" y="-213" type="curve" smooth="yes"/>
      <point x="-397" y="-236"/>
      <point x="-390" y="-256"/>
      <point x="-374" y="-274" type="curve" smooth="yes"/>
      <point x="-359" y="-292"/>
      <point x="-339" y="-301"/>
      <point x="-312" y="-301" type="curve" smooth="yes"/>
      <point x="-292" y="-301"/>
      <point x="-274" y="-290"/>
      <point x="-258" y="-266" type="curve" smooth="yes"/>
      <point x="-243" y="-244"/>
      <point x="-231" y="-232"/>
      <point x="-221" y="-230" type="curve" smooth="yes"/>
      <point x="-208" y="-230"/>
      <point x="-198" y="-233"/>
      <point x="-189" y="-239" type="curve" smooth="yes"/>
      <point x="-183" y="-245"/>
      <point x="-180" y="-251"/>
      <point x="-179" y="-259" type="curve" smooth="yes"/>
      <point x="-179" y="-269"/>
      <point x="-183" y="-275"/>
      <point x="-192" y="-277" type="curve" smooth="yes"/>
      <point x="-198" y="-277"/>
      <point x="-201" y="-274"/>
      <point x="-202" y="-268" type="curve" smooth="yes"/>
      <point x="-202" y="-262"/>
      <point x="-200" y="-258"/>
      <point x="-194" y="-254" type="curve" smooth="yes"/>
      <point x="-194" y="-251"/>
      <point x="-194" y="-249"/>
      <point x="-196" y="-246" type="curve" smooth="yes"/>
      <point x="-197" y="-245"/>
      <point x="-199" y="-244"/>
    </contour>
    <contour>
      <point x="-288" y="-87" type="curve" smooth="yes"/>
      <point x="-278" y="-83" type="line" smooth="yes"/>
      <point x="-265" y="-78" type="line" smooth="yes"/>
      <point x="-250" y="-74"/>
      <point x="-236" y="-72"/>
      <point x="-223" y="-72" type="curve" smooth="yes"/>
      <point x="-207" y="-72"/>
      <point x="-184" y="-76"/>
      <point x="-153" y="-84" type="curve" smooth="yes"/>
      <point x="-131" y="-90"/>
      <point x="-113" y="-106"/>
      <point x="-98" y="-133" type="curve" smooth="yes"/>
      <point x="-86" y="-157"/>
      <point x="-80" y="-179"/>
      <point x="-79" y="-201" type="curve" smooth="yes"/>
      <point x="-79" y="-213" type="line" smooth="yes"/>
      <point x="-79" y="-242"/>
      <point x="-80" y="-264"/>
      <point x="-84" y="-279" type="curve" smooth="yes"/>
      <point x="-88" y="-294"/>
      <point x="-94" y="-311"/>
      <point x="-104" y="-330" type="curve" smooth="yes"/>
      <point x="-113" y="-348"/>
      <point x="-124" y="-367"/>
      <point x="-139" y="-387" type="curve" smooth="yes"/>
      <point x="-132" y="-383" type="line" smooth="yes"/>
      <point x="-126" y="-377"/>
      <point x="-120" y="-371"/>
      <point x="-113" y="-365" type="curve" smooth="yes"/>
      <point x="-105" y="-357"/>
      <point x="-98" y="-350"/>
      <point x="-92" y="-342" type="curve" smooth="yes"/>
      <point x="-74" y="-316"/>
      <point x="-62" y="-290"/>
      <point x="-56" y="-263" type="curve" smooth="yes"/>
      <point x="-53" y="-245"/>
      <point x="-52" y="-220"/>
      <point x="-51" y="-187" type="curve" smooth="yes"/>
      <point x="-51" y="-163"/>
      <point x="-58" y="-138"/>
      <point x="-73" y="-111" type="curve" smooth="yes"/>
      <point x="-87" y="-85"/>
      <point x="-109" y="-67"/>
      <point x="-139" y="-57" type="curve" smooth="yes"/>
      <point x="-171" y="-50" type="line" smooth="yes"/>
      <point x="-205" y="-48" type="line" smooth="yes"/>
      <point x="-226" y="-48"/>
      <point x="-246" y="-50"/>
      <point x="-266" y="-54" type="curve" smooth="yes"/>
      <point x="-286" y="-58"/>
      <point x="-296" y="-61"/>
      <point x="-296" y="-65" type="curve" smooth="yes"/>
      <point x="-289" y="-78" type="line" smooth="yes"/>
      <point x="-287" y="-80"/>
      <point x="-287" y="-83"/>
    </contour>
  </outline>
</glyph>
<glyph name="u1A32.sub" format="2">
  <advance width="1"/>
  <anchor x="-277.5" y="-295" name="LD"/>
  <anchor x="-37" y="-289" name="LRD"/>
  <anchor x="-282.5" y="0" name="_L"/>
  <anchor x="-282.5" y="0" name="_LD"/>
  <outline>
    <contour>
      <point x="-303" y="-180" type="curve" smooth="yes"/>
      <point x="-303" y="-150"/>
      <point x="-313" y="-125"/>
      <point x="-335" y="-104" type="curve" smooth="yes"/>
      <point x="-357" y="-85"/>
      <point x="-381" y="-76"/>
      <point x="-407" y="-75" type="curve" smooth="yes"/>
      <point x="-436" y="-75"/>
      <point x="-460" y="-82"/>
      <point x="-479" y="-97" type="curve" smooth="yes"/>
      <point x="-497" y="-112"/>
      <point x="-506" y="-137"/>
      <point x="-507" y="-172" type="curve" smooth="yes"/>
      <point x="-507" y="-199"/>
      <point x="-496" y="-223"/>
      <point x="-473" y="-246" type="curve" smooth="yes"/>
      <point x="-451" y="-268"/>
      <point x="-424" y="-279"/>
      <point x="-390" y="-279" type="curve" smooth="yes"/>
      <point x="-356" y="-279"/>
      <point x="-333" y="-271"/>
      <point x="-321" y="-254" type="curve" smooth="yes"/>
      <point x="-309" y="-238"/>
      <point x="-303" y="-214"/>
    </contour>
    <contour>
      <point x="-412" y="-299" type="curve" smooth="yes"/>
      <point x="-447" y="-299"/>
      <point x="-475" y="-287"/>
      <point x="-498" y="-262" type="curve" smooth="yes"/>
      <point x="-520" y="-238"/>
      <point x="-531" y="-209"/>
      <point x="-531" y="-174" type="curve" smooth="yes"/>
      <point x="-531" y="-140"/>
      <point x="-519" y="-111"/>
      <point x="-494" y="-85" type="curve" smooth="yes"/>
      <point x="-470" y="-61"/>
      <point x="-439" y="-49"/>
      <point x="-400" y="-48" type="curve" smooth="yes"/>
      <point x="-360" y="-48"/>
      <point x="-329" y="-59"/>
      <point x="-305" y="-82" type="curve" smooth="yes"/>
      <point x="-284" y="-105"/>
      <point x="-274" y="-136"/>
      <point x="-273" y="-175" type="curve" smooth="yes"/>
      <point x="-273" y="-223"/>
      <point x="-289" y="-257"/>
      <point x="-323" y="-279" type="curve" smooth="yes"/>
      <point x="-345" y="-292"/>
      <point x="-374" y="-298"/>
    </contour>
    <contour>
      <point x="-159" y="-276" type="curve" smooth="yes"/>
      <point x="-127" y="-276"/>
      <point x="-104" y="-268"/>
      <point x="-89" y="-251" type="curve" smooth="yes"/>
      <point x="-75" y="-235"/>
      <point x="-68" y="-210"/>
      <point x="-68" y="-176" type="curve" smooth="yes"/>
      <point x="-68" y="-142"/>
      <point x="-78" y="-117"/>
      <point x="-98" y="-101" type="curve" smooth="yes"/>
      <point x="-118" y="-85"/>
      <point x="-144" y="-77"/>
      <point x="-177" y="-77" type="curve" smooth="yes"/>
      <point x="-200" y="-77"/>
      <point x="-221" y="-85"/>
      <point x="-241" y="-103" type="curve" smooth="yes"/>
      <point x="-261" y="-121"/>
      <point x="-271" y="-139"/>
      <point x="-271" y="-158" type="curve" smooth="yes"/>
      <point x="-271" y="-162"/>
      <point x="-272" y="-167"/>
      <point x="-275" y="-175" type="curve" smooth="yes"/>
      <point x="-277" y="-181"/>
      <point x="-279" y="-186"/>
      <point x="-283" y="-190" type="curve" smooth="yes"/>
      <point x="-283" y="-190"/>
      <point x="-283" y="-190"/>
      <point x="-285" y="-192" type="curve" smooth="yes"/>
      <point x="-286" y="-191"/>
      <point x="-286" y="-190"/>
      <point x="-287" y="-188" type="curve" smooth="yes"/>
      <point x="-289" y="-183"/>
      <point x="-290" y="-178"/>
      <point x="-290" y="-172" type="curve" smooth="yes"/>
      <point x="-290" y="-141"/>
      <point x="-280" y="-114"/>
      <point x="-260" y="-89" type="curve" smooth="yes"/>
      <point x="-237" y="-62"/>
      <point x="-206" y="-49"/>
      <point x="-166" y="-48" type="curve" smooth="yes"/>
      <point x="-128" y="-48"/>
      <point x="-97" y="-61"/>
      <point x="-71" y="-87" type="curve" smooth="yes"/>
      <point x="-47" y="-113"/>
      <point x="-35" y="-143"/>
      <point x="-34" y="-177" type="curve" smooth="yes"/>
      <point x="-34" y="-209"/>
      <point x="-45" y="-237"/>
      <point x="-69" y="-262" type="curve" smooth="yes"/>
      <point x="-92" y="-287"/>
      <point x="-121" y="-299"/>
      <point x="-158" y="-300" type="curve" smooth="yes"/>
      <point x="-177" y="-300"/>
      <point x="-192" y="-298"/>
      <point x="-204" y="-294" type="curve" smooth="yes"/>
      <point x="-216" y="-290"/>
      <point x="-222" y="-282"/>
      <point x="-222" y="-269" type="curve" smooth="yes"/>
      <point x="-216" y="-263"/>
      <point x="-209" y="-260"/>
      <point x="-200" y="-259" type="curve" smooth="yes"/>
      <point x="-194" y="-259"/>
      <point x="-187" y="-261"/>
      <point x="-178" y="-267" type="curve" smooth="yes"/>
      <point x="-170" y="-273"/>
      <point x="-164" y="-276"/>
    </contour>
  </outline>
</glyph>
<glyph name="u1A34.sub" format="2">
  <advance width="1"/>
  <anchor x="-207.5" y="-303" name="LD"/>
  <anchor x="-53" y="-298" name="LRD"/>
  <anchor x="-207.5" y="0" name="_L"/>
  <anchor x="-207.5" y="0" name="_LD"/>
  <outline>
    <contour>
      <point x="-245" y="-145" type="curve" smooth="yes"/>
      <point x="-245" y="-156" type="line" smooth="yes"/>
      <point x="-236" y="-173" type="line" smooth="yes"/>
      <point x="-233" y="-176"/>
      <point x="-229" y="-176"/>
      <point x="-224" y="-175" type="curve" smooth="yes"/>
      <point x="-221" y="-172"/>
      <point x="-219" y="-167"/>
      <point x="-217" y="-160" type="curve" smooth="yes"/>
      <point x="-217" y="-154"/>
      <point x="-220" y="-149"/>
      <point x="-228" y="-145" type="curve" smooth="yes"/>
      <point x="-235" y="-141"/>
      <point x="-240" y="-141"/>
    </contour>
    <contour>
      <point x="-227" y="-121" type="curve" smooth="yes"/>
      <point x="-211" y="-126" type="line" smooth="yes"/>
      <point x="-202" y="-130"/>
      <point x="-197" y="-137"/>
      <point x="-195" y="-147" type="curve" smooth="yes"/>
      <point x="-195" y="-159"/>
      <point x="-198" y="-170"/>
      <point x="-204" y="-182" type="curve" smooth="yes"/>
      <point x="-210" y="-194"/>
      <point x="-216" y="-200"/>
      <point x="-224" y="-200" type="curve" smooth="yes"/>
      <point x="-237" y="-200"/>
      <point x="-247" y="-195"/>
      <point x="-255" y="-183" type="curve" smooth="yes"/>
      <point x="-263" y="-172"/>
      <point x="-267" y="-159"/>
      <point x="-267" y="-143" type="curve" smooth="yes"/>
      <point x="-267" y="-129"/>
      <point x="-258" y="-117"/>
      <point x="-238" y="-106" type="curve" smooth="yes"/>
      <point x="-219" y="-98"/>
      <point x="-199" y="-94"/>
      <point x="-177" y="-93" type="curve" smooth="yes"/>
      <point x="-166" y="-94"/>
      <point x="-156" y="-96"/>
      <point x="-146" y="-99" type="curve" smooth="yes"/>
      <point x="-137" y="-101"/>
      <point x="-128" y="-105"/>
      <point x="-118" y="-113" type="curve" smooth="yes"/>
      <point x="-102" y="-124"/>
      <point x="-94" y="-138"/>
      <point x="-93" y="-156" type="curve" smooth="yes"/>
      <point x="-93" y="-168"/>
      <point x="-96" y="-178"/>
      <point x="-104" y="-187" type="curve" smooth="yes"/>
      <point x="-116" y="-197" type="line" smooth="yes"/>
      <point x="-104" y="-199"/>
      <point x="-95" y="-205"/>
      <point x="-89" y="-215" type="curve" smooth="yes"/>
      <point x="-87" y="-220"/>
      <point x="-85" y="-225"/>
      <point x="-83" y="-230" type="curve" smooth="yes"/>
      <point x="-82" y="-234"/>
      <point x="-82" y="-239"/>
      <point x="-81" y="-247" type="curve" smooth="yes"/>
      <point x="-81" y="-269"/>
      <point x="-99" y="-284"/>
      <point x="-137" y="-294" type="curve" smooth="yes"/>
      <point x="-148" y="-296"/>
      <point x="-162" y="-297"/>
      <point x="-179" y="-299" type="curve" smooth="yes"/>
      <point x="-196" y="-300"/>
      <point x="-216" y="-300"/>
      <point x="-240" y="-301" type="curve" smooth="yes"/>
      <point x="-280" y="-301"/>
      <point x="-309" y="-295"/>
      <point x="-329" y="-282" type="curve" smooth="yes"/>
      <point x="-351" y="-268"/>
      <point x="-362" y="-245"/>
      <point x="-363" y="-211" type="curve" smooth="yes"/>
      <point x="-363" y="-139" type="line" smooth="yes"/>
      <point x="-363" y="-115"/>
      <point x="-354" y="-95"/>
      <point x="-336" y="-77" type="curve" smooth="yes"/>
      <point x="-319" y="-63"/>
      <point x="-302" y="-55"/>
      <point x="-284" y="-51" type="curve" smooth="yes"/>
      <point x="-249" y="-48" type="line" smooth="yes"/>
      <point x="-234" y="-48" type="line" smooth="yes"/>
      <point x="-190" y="-49" type="line" smooth="yes"/>
      <point x="-175" y="-49"/>
      <point x="-164" y="-49"/>
      <point x="-156" y="-51" type="curve" smooth="yes"/>
      <point x="-136" y="-51"/>
      <point x="-118" y="-54"/>
      <point x="-102" y="-60" type="curve" smooth="yes"/>
      <point x="-86" y="-66"/>
      <point x="-72" y="-76"/>
      <point x="-60" y="-92" type="curve" smooth="yes"/>
      <point x="-52" y="-100"/>
      <point x="-46" y="-113"/>
      <point x="-40" y="-132" type="curve" smooth="yes"/>
      <point x="-36" y="-150"/>
      <point x="-34" y="-171"/>
      <point x="-33" y="-196" type="curve" smooth="yes"/>
      <point x="-37" y="-206" type="line" smooth="yes"/>
      <point x="-40" y="-192"/>
      <point x="-43" y="-181"/>
      <point x="-46" y="-172" type="curve" smooth="yes"/>
      <point x="-48" y="-164"/>
      <point x="-52" y="-155"/>
      <point x="-58" y="-145" type="curve" smooth="yes"/>
      <point x="-63" y="-135"/>
      <point x="-71" y="-125"/>
      <point x="-83" y="-113" type="curve" smooth="yes"/>
      <point x="-94" y="-103"/>
      <point x="-105" y="-95"/>
      <point x="-117" y="-89" type="curve" smooth="yes"/>
      <point x="-158" y="-78" type="line" smooth="yes"/>
      <point x="-200" y="-73" type="line" smooth="yes"/>
      <point x="-241" y="-71" type="line" smooth="yes"/>
      <point x="-256" y="-71" type="line" smooth="yes"/>
      <point x="-285" y="-74" type="line" smooth="yes"/>
      <point x="-295" y="-74"/>
      <point x="-305" y="-80"/>
      <point x="-315" y="-92" type="curve" smooth="yes"/>
      <point x="-325" y="-104"/>
      <point x="-330" y="-119"/>
      <point x="-330" y="-139" type="curve" smooth="yes"/>
      <point x="-330" y="-214" type="line" smooth="yes"/>
      <point x="-330" y="-235"/>
      <point x="-322" y="-250"/>
      <point x="-306" y="-261" type="curve" smooth="yes"/>
      <point x="-290" y="-269"/>
      <point x="-268" y="-273"/>
      <point x="-240" y="-274" type="curve" smooth="yes"/>
      <point x="-219" y="-274" type="line" smooth="yes"/>
      <point x="-198" y="-275" type="line" smooth="yes"/>
      <point x="-173" y="-275"/>
      <point x="-152" y="-273"/>
      <point x="-135" y="-269" type="curve" smooth="yes"/>
      <point x="-119" y="-265"/>
      <point x="-111" y="-257"/>
      <point x="-110" y="-244" type="curve" smooth="yes"/>
      <point x="-110" y="-233"/>
      <point x="-116" y="-222"/>
      <point x="-129" y="-211" type="curve" smooth="yes"/>
      <point x="-131" y="-209"/>
      <point x="-140" y="-204"/>
      <point x="-156" y="-194" type="curve" smooth="yes"/>
      <point x="-140" y="-184" type="line" smooth="yes"/>
      <point x="-130" y="-176"/>
      <point x="-125" y="-166"/>
      <point x="-124" y="-153" type="curve" smooth="yes"/>
      <point x="-124" y="-143"/>
      <point x="-129" y="-134"/>
      <point x="-139" y="-126" type="curve" smooth="yes"/>
      <point x="-143" y="-123"/>
      <point x="-148" y="-121"/>
      <point x="-156" y="-118" type="curve" smooth="yes"/>
      <point x="-162" y="-116"/>
      <point x="-169" y="-115"/>
      <point x="-179" y="-115" type="curve" smooth="yes"/>
      <point x="-191" y="-114" type="line" smooth="yes"/>
      <point x="-199" y="-114" type="line" smooth="yes"/>
      <point x="-210" y="-114"/>
      <point x="-219" y="-116"/>
    </contour>
  </outline>
</glyph>
<glyph name="u1A38.sub" format="2">
  <advance width="188"/>
  <anchor x="-137.5" y="-218" name="LD"/>
  <anchor x="105" y="-216" name="LRD"/>
  <anchor x="82" y="406" name="URD"/>
  <anchor x="1" y="0" name="_LR"/>
  <outline>
    <contour>
      <point x="-323" y="-77" type="curve" smooth="yes"/>
      <point x="-337" y="-77"/>
      <point x="-344" y="-84"/>
      <point x="-344" y="-99" type="curve" smooth="yes"/>
      <point x="-344" y="-113"/>
      <point x="-338" y="-121"/>
      <point x="-324" y="-123" type="curve" smooth="yes"/>
      <point x="-316" y="-124"/>
      <point x="-309" y="-122"/>
      <point x="-303" y="-117" type="curve" smooth="yes"/>
      <point x="-299" y="-106" type="line" smooth="yes"/>
      <point x="-299" y="-100"/>
      <point x="-301" y="-94"/>
      <point x="-306" y="-86" type="curve" smooth="yes"/>
      <point x="-311" y="-80"/>
      <point x="-316" y="-77"/>
    </contour>
    <contour>
      <point x="-380" y="-107" type="curve" smooth="yes"/>
      <point x="-381" y="-99"/>
      <point x="-374" y="-87"/>
      <point x="-357" y="-70" type="curve" smooth="yes"/>
      <point x="-341" y="-55"/>
      <point x="-330" y="-48"/>
      <point x="-324" y="-47" type="curve" smooth="yes"/>
      <point x="-305" y="-47"/>
      <point x="-291" y="-53"/>
      <point x="-282" y="-67" type="curve" smooth="yes"/>
      <point x="-274" y="-80"/>
      <point x="-270" y="-96"/>
      <point x="-269" y="-117" type="curve" smooth="yes"/>
      <point x="-269" y="-127"/>
      <point x="-280" y="-134"/>
      <point x="-303" y="-138" type="curve" smooth="yes"/>
      <point x="-337" y="-140" type="line" smooth="yes"/>
      <point x="-319" y="-173" type="line" smooth="yes"/>
      <point x="-308" y="-187"/>
      <point x="-294" y="-194"/>
      <point x="-277" y="-194" type="curve" smooth="yes"/>
      <point x="-254" y="-194"/>
      <point x="-225" y="-178"/>
      <point x="-188" y="-146" type="curve" smooth="yes"/>
      <point x="-142" y="-101" type="line" smooth="yes"/>
      <point x="-118" y="-126"/>
      <point x="-102" y="-142"/>
      <point x="-92" y="-149" type="curve" smooth="yes"/>
      <point x="-67" y="-168"/>
      <point x="-44" y="-177"/>
      <point x="-21" y="-178" type="curve" smooth="yes"/>
      <point x="7" y="-178"/>
      <point x="31" y="-165"/>
      <point x="51" y="-138" type="curve" smooth="yes"/>
      <point x="69" y="-114"/>
      <point x="78" y="-88"/>
      <point x="78" y="-59" type="curve" smooth="yes"/>
      <point x="79" y="230" type="line" smooth="yes"/>
      <point x="79" y="252"/>
      <point x="74" y="274"/>
      <point x="64" y="297" type="curve" smooth="yes"/>
      <point x="48" y="327" type="line" smooth="yes"/>
      <point x="49" y="329"/>
      <point x="50" y="331"/>
      <point x="53" y="333" type="curve" smooth="yes"/>
      <point x="55" y="335"/>
      <point x="60" y="338"/>
      <point x="68" y="344" type="curve" smooth="yes"/>
      <point x="82" y="352"/>
      <point x="91" y="356"/>
      <point x="95" y="356" type="curve" smooth="yes"/>
      <point x="99" y="355"/>
      <point x="102" y="354"/>
      <point x="104" y="352" type="curve" smooth="yes"/>
      <point x="117" y="338" type="line" smooth="yes"/>
      <point x="119" y="312" type="line" smooth="yes"/>
      <point x="119" y="297"/>
      <point x="122" y="281"/>
      <point x="128" y="262" type="curve" smooth="yes"/>
      <point x="122" y="263" type="line" smooth="yes"/>
      <point x="113" y="272" type="line" smooth="yes"/>
      <point x="105" y="318" type="line" smooth="yes"/>
      <point x="103" y="332" type="line" smooth="yes"/>
      <point x="92" y="324" type="line" smooth="yes"/>
      <point x="105" y="277" type="line" smooth="yes"/>
      <point x="111" y="251" type="line" smooth="yes"/>
      <point x="112" y="-63" type="line" smooth="yes"/>
      <point x="112" y="-100"/>
      <point x="101" y="-133"/>
      <point x="78" y="-163" type="curve" smooth="yes"/>
      <point x="52" y="-197"/>
      <point x="18" y="-214"/>
      <point x="-25" y="-214" type="curve" smooth="yes"/>
      <point x="-37" y="-214"/>
      <point x="-55" y="-206"/>
      <point x="-80" y="-189" type="curve" smooth="yes"/>
      <point x="-105" y="-173"/>
      <point x="-123" y="-158"/>
      <point x="-136" y="-142" type="curve" smooth="yes"/>
      <point x="-148" y="-158"/>
      <point x="-159" y="-170"/>
      <point x="-171" y="-180" type="curve" smooth="yes"/>
      <point x="-203" y="-206"/>
      <point x="-238" y="-219"/>
      <point x="-276" y="-219" type="curve" smooth="yes"/>
      <point x="-297" y="-219"/>
      <point x="-318" y="-208"/>
      <point x="-339" y="-184" type="curve" smooth="yes"/>
      <point x="-360" y="-162"/>
      <point x="-373" y="-137"/>
    </contour>
  </outline>
</glyph>
<glyph name="u1A3F.sub" format="2">
  <advance width="188"/>
  <anchor x="-80.5" y="-200" name="LD"/>
  <anchor x="103" y="-199" name="LRD"/>
  <anchor x="103" y="420" name="URD"/>
  <anchor x="0" y="0" name="_LR"/>
  <outline>
    <contour>
      <point x="127" y="262" type="curve" smooth="yes"/>
      <point x="121" y="263" type="line" smooth="yes"/>
      <point x="112" y="272" type="line" smooth="yes"/>
      <point x="104" y="318" type="line" smooth="yes"/>
      <point x="102" y="332" type="line" smooth="yes"/>
      <point x="91" y="324" type="line" smooth="yes"/>
      <point x="102" y="289" type="line" smooth="yes"/>
      <point x="110" y="269"/>
      <point x="114" y="257"/>
      <point x="114" y="251" type="curve" smooth="yes"/>
      <point x="112" y="-62" type="line" smooth="yes"/>
      <point x="112" y="-106"/>
      <point x="93" y="-140"/>
      <point x="53" y="-164" type="curve" smooth="yes"/>
      <point x="18" y="-184"/>
      <point x="-26" y="-194"/>
      <point x="-80" y="-195" type="curve" smooth="yes"/>
      <point x="-131" y="-195"/>
      <point x="-166" y="-192"/>
      <point x="-187" y="-184" type="curve" smooth="yes"/>
      <point x="-216" y="-174"/>
      <point x="-234" y="-153"/>
      <point x="-243" y="-120" type="curve" smooth="yes"/>
      <point x="-240" y="-102" type="line" smooth="yes"/>
      <point x="-238" y="-96"/>
      <point x="-238" y="-91"/>
      <point x="-239" y="-85" type="curve" smooth="yes"/>
      <point x="-242" y="-77" type="line" smooth="yes"/>
      <point x="-245" y="-79" type="line" smooth="yes"/>
      <point x="-242" y="-100" type="line" smooth="yes"/>
      <point x="-242" y="-106"/>
      <point x="-244" y="-113"/>
      <point x="-250" y="-122" type="curve" smooth="yes"/>
      <point x="-255" y="-128" type="line" smooth="yes"/>
      <point x="-252" y="-100" type="line" smooth="yes"/>
      <point x="-252" y="-94"/>
      <point x="-252" y="-89"/>
      <point x="-254" y="-84" type="curve" smooth="yes"/>
      <point x="-258" y="-69" type="line" smooth="yes"/>
      <point x="-258" y="-67"/>
      <point x="-257" y="-65"/>
      <point x="-255" y="-63" type="curve" smooth="yes"/>
      <point x="-254" y="-62"/>
      <point x="-252" y="-60"/>
      <point x="-248" y="-57" type="curve" smooth="yes"/>
      <point x="-233" y="-50" type="line" smooth="yes"/>
      <point x="-220" y="-55" type="line" smooth="yes"/>
      <point x="-210" y="-66" type="line" smooth="yes"/>
      <point x="-211" y="-86" type="line" smooth="yes"/>
      <point x="-214" y="-110" type="line" smooth="yes"/>
      <point x="-214" y="-136"/>
      <point x="-198" y="-154"/>
      <point x="-164" y="-166" type="curve" smooth="yes"/>
      <point x="-144" y="-172"/>
      <point x="-115" y="-175"/>
      <point x="-75" y="-175" type="curve" smooth="yes"/>
      <point x="-40" y="-175"/>
      <point x="-9" y="-167"/>
      <point x="20" y="-149" type="curve" smooth="yes"/>
      <point x="54" y="-128"/>
      <point x="71" y="-99"/>
      <point x="72" y="-61" type="curve" smooth="yes"/>
      <point x="75" y="247" type="line" smooth="yes"/>
      <point x="75" y="253"/>
      <point x="73" y="262"/>
      <point x="68" y="276" type="curve" smooth="yes"/>
      <point x="49" y="324" type="line" smooth="yes"/>
      <point x="49" y="325"/>
      <point x="49" y="326"/>
      <point x="51" y="327" type="curve" smooth="yes"/>
      <point x="54" y="331"/>
      <point x="59" y="336"/>
      <point x="68" y="342" type="curve" smooth="yes"/>
      <point x="80" y="350"/>
      <point x="88" y="354"/>
      <point x="94" y="356" type="curve" smooth="yes"/>
      <point x="98" y="355"/>
      <point x="101" y="354"/>
      <point x="103" y="352" type="curve" smooth="yes"/>
      <point x="116" y="338" type="line" smooth="yes"/>
      <point x="118" y="312" type="line" smooth="yes"/>
      <point x="118" y="297"/>
      <point x="121" y="281"/>
    </contour>
  </outline>
</glyph>
<glyph name="u1A3F.sub.low" format="2">
  <advance width="188"/>
  <anchor x="-80.5" y="-200" name="LD"/>
  <anchor x="112" y="-194" name="LRD"/>
  <anchor x="102" y="729" name="URD"/>
  <anchor x="1" y="-2" name="_LR"/>
  <outline>
    <contour>
      <point x="127" y="562" type="curve" smooth="yes"/>
      <point x="121" y="563" type="line" smooth="yes"/>
      <point x="112" y="572" type="line" smooth="yes"/>
      <point x="104" y="618" type="line" smooth="yes"/>
      <point x="102" y="632" type="line" smooth="yes"/>
      <point x="91" y="624" type="line" smooth="yes"/>
      <point x="102" y="589" type="line" smooth="yes"/>
      <point x="110" y="569"/>
      <point x="114" y="557"/>
      <point x="114" y="551" type="curve" smooth="yes"/>
      <point x="112" y="-62" type="line" smooth="yes"/>
      <point x="112" y="-106"/>
      <point x="93" y="-140"/>
      <point x="53" y="-164" type="curve" smooth="yes"/>
      <point x="18" y="-184"/>
      <point x="-26" y="-194"/>
      <point x="-80" y="-195" type="curve" smooth="yes"/>
      <point x="-131" y="-195"/>
      <point x="-166" y="-192"/>
      <point x="-187" y="-184" type="curve" smooth="yes"/>
      <point x="-216" y="-174"/>
      <point x="-234" y="-153"/>
      <point x="-243" y="-120" type="curve" smooth="yes"/>
      <point x="-240" y="-102" type="line" smooth="yes"/>
      <point x="-238" y="-96"/>
      <point x="-238" y="-91"/>
      <point x="-239" y="-85" type="curve" smooth="yes"/>
      <point x="-242" y="-77" type="line" smooth="yes"/>
      <point x="-245" y="-79" type="line" smooth="yes"/>
      <point x="-242" y="-100" type="line" smooth="yes"/>
      <point x="-242" y="-106"/>
      <point x="-244" y="-113"/>
      <point x="-250" y="-122" type="curve" smooth="yes"/>
      <point x="-255" y="-128" type="line" smooth="yes"/>
      <point x="-252" y="-100" type="line" smooth="yes"/>
      <point x="-252" y="-94"/>
      <point x="-252" y="-89"/>
      <point x="-254" y="-84" type="curve" smooth="yes"/>
      <point x="-258" y="-69" type="line" smooth="yes"/>
      <point x="-258" y="-67"/>
      <point x="-257" y="-65"/>
      <point x="-255" y="-63" type="curve" smooth="yes"/>
      <point x="-254" y="-62"/>
      <point x="-252" y="-60"/>
      <point x="-248" y="-57" type="curve" smooth="yes"/>
      <point x="-233" y="-50" type="line" smooth="yes"/>
      <point x="-220" y="-55" type="line" smooth="yes"/>
      <point x="-210" y="-66" type="line" smooth="yes"/>
      <point x="-211" y="-86" type="line" smooth="yes"/>
      <point x="-214" y="-110" type="line" smooth="yes"/>
      <point x="-214" y="-136"/>
      <point x="-198" y="-154"/>
      <point x="-164" y="-166" type="curve" smooth="yes"/>
      <point x="-144" y="-172"/>
      <point x="-115" y="-175"/>
      <point x="-75" y="-175" type="curve" smooth="yes"/>
      <point x="-40" y="-175"/>
      <point x="-9" y="-167"/>
      <point x="20" y="-149" type="curve" smooth="yes"/>
      <point x="54" y="-128"/>
      <point x="71" y="-99"/>
      <point x="72" y="-61" type="curve" smooth="yes"/>
      <point x="75" y="547" type="line" smooth="yes"/>
      <point x="75" y="553"/>
      <point x="73" y="562"/>
      <point x="68" y="576" type="curve" smooth="yes"/>
      <point x="49" y="624" type="line" smooth="yes"/>
      <point x="49" y="625"/>
      <point x="49" y="626"/>
      <point x="51" y="627" type="curve" smooth="yes"/>
      <point x="54" y="631"/>
      <point x="59" y="636"/>
      <point x="68" y="642" type="curve" smooth="yes"/>
      <point x="80" y="650"/>
      <point x="88" y="654"/>
      <point x="94" y="656" type="curve" smooth="yes"/>
      <point x="98" y="655"/>
      <point x="101" y="654"/>
      <point x="103" y="652" type="curve" smooth="yes"/>
      <point x="116" y="638" type="line" smooth="yes"/>
      <point x="118" y="612" type="line" smooth="yes"/>
      <point x="118" y="597"/>
      <point x="121" y="581"/>
    </contour>
  </outline>
</glyph>
<glyph name="u1A45.sub" format="2">
  <advance width="1"/>
  <anchor x="-170.5" y="-304" name="LD"/>
  <anchor x="-35" y="-301" name="LRD"/>
  <anchor x="-167.5" y="0" name="_L"/>
  <anchor x="-167.5" y="0" name="_LD"/>
  <outline>
    <contour>
      <point x="-287" y="-180" type="curve" smooth="yes"/>
      <point x="-287" y="-201"/>
      <point x="-276" y="-222"/>
      <point x="-253" y="-243" type="curve" smooth="yes"/>
      <point x="-231" y="-263"/>
      <point x="-205" y="-273"/>
      <point x="-173" y="-274" type="curve" smooth="yes"/>
      <point x="-130" y="-274"/>
      <point x="-100" y="-268"/>
      <point x="-82" y="-254" type="curve" smooth="yes"/>
      <point x="-66" y="-242"/>
      <point x="-58" y="-218"/>
      <point x="-57" y="-182" type="curve" smooth="yes"/>
      <point x="-57" y="-157"/>
      <point x="-69" y="-133"/>
      <point x="-93" y="-109" type="curve" smooth="yes"/>
      <point x="-117" y="-87"/>
      <point x="-145" y="-76"/>
      <point x="-177" y="-76" type="curve" smooth="yes"/>
      <point x="-213" y="-76"/>
      <point x="-241" y="-87"/>
      <point x="-262" y="-110" type="curve" smooth="yes"/>
      <point x="-278" y="-130"/>
      <point x="-286" y="-153"/>
    </contour>
    <contour>
      <point x="-312" y="-177" type="curve" smooth="yes"/>
      <point x="-312" y="-141"/>
      <point x="-298" y="-111"/>
      <point x="-268" y="-87" type="curve" smooth="yes"/>
      <point x="-239" y="-64"/>
      <point x="-205" y="-53"/>
      <point x="-164" y="-52" type="curve" smooth="yes"/>
      <point x="-129" y="-52"/>
      <point x="-97" y="-64"/>
      <point x="-68" y="-88" type="curve" smooth="yes"/>
      <point x="-40" y="-112"/>
      <point x="-26" y="-142"/>
      <point x="-26" y="-180" type="curve" smooth="yes"/>
      <point x="-26" y="-214"/>
      <point x="-40" y="-243"/>
      <point x="-68" y="-268" type="curve" smooth="yes"/>
      <point x="-96" y="-292"/>
      <point x="-130" y="-304"/>
      <point x="-170" y="-304" type="curve" smooth="yes"/>
      <point x="-207" y="-304"/>
      <point x="-240" y="-292"/>
      <point x="-269" y="-268" type="curve" smooth="yes"/>
      <point x="-297" y="-244"/>
      <point x="-311" y="-214"/>
    </contour>
  </outline>
</glyph>
<glyph name="u1A48.sub.low" format="2">
  <advance width="191"/>
  <anchor x="-163" y="-301" name="LD"/>
  <anchor x="116" y="-284" name="LRD"/>
  <anchor x="82" y="660" name="URD"/>
  <anchor x="-39" y="0" name="_LR"/>
  <outline>
    <contour>
      <point x="-400" y="-208" type="line" smooth="yes"/>
      <point x="-403" y="-208"/>
      <point x="-404" y="-212"/>
      <point x="-405" y="-220" type="curve" smooth="yes"/>
      <point x="-404" y="-223"/>
      <point x="-401" y="-226"/>
      <point x="-395" y="-229" type="curve" smooth="yes"/>
      <point x="-378" y="-233" type="line" smooth="yes"/>
      <point x="-371" y="-233"/>
      <point x="-368" y="-230"/>
      <point x="-367" y="-222" type="curve" smooth="yes"/>
      <point x="-367" y="-219"/>
      <point x="-367" y="-216"/>
      <point x="-368" y="-212" type="curve" smooth="yes"/>
      <point x="-369" y="-209"/>
      <point x="-376" y="-208"/>
      <point x="-391" y="-207" type="curve" smooth="yes"/>
    </contour>
    <contour>
      <point x="128" y="-144" type="line" smooth="yes"/>
      <point x="128" y="-192"/>
      <point x="114" y="-230"/>
      <point x="85" y="-258" type="curve" smooth="yes"/>
      <point x="57" y="-286"/>
      <point x="23" y="-300"/>
      <point x="-18" y="-300" type="curve" smooth="yes"/>
      <point x="-70" y="-300"/>
      <point x="-111" y="-289"/>
      <point x="-141" y="-266" type="curve" smooth="yes"/>
      <point x="-163" y="-249"/>
      <point x="-174" y="-232"/>
      <point x="-175" y="-214" type="curve" smooth="yes"/>
      <point x="-175" y="-206"/>
      <point x="-173" y="-200"/>
      <point x="-169" y="-195" type="curve" smooth="yes"/>
      <point x="-165" y="-191"/>
      <point x="-161" y="-189"/>
      <point x="-155" y="-187" type="curve" smooth="yes"/>
      <point x="-149" y="-187"/>
      <point x="-146" y="-190"/>
      <point x="-145" y="-198" type="curve" smooth="yes"/>
      <point x="-145" y="-212" type="line" smooth="yes"/>
      <point x="-144" y="-220" type="line" smooth="yes"/>
      <point x="-134" y="-233" type="line" smooth="yes"/>
      <point x="-127" y="-244"/>
      <point x="-112" y="-252"/>
      <point x="-87" y="-259" type="curve" smooth="yes"/>
      <point x="-63" y="-265"/>
      <point x="-39" y="-268"/>
      <point x="-15" y="-268" type="curve" smooth="yes"/>
      <point x="11" y="-268"/>
      <point x="34" y="-259"/>
      <point x="54" y="-239" type="curve" smooth="yes"/>
      <point x="78" y="-216"/>
      <point x="90" y="-185"/>
      <point x="91" y="-145" type="curve" smooth="yes"/>
      <point x="91" y="453" type="line" smooth="yes"/>
      <point x="91" y="468"/>
      <point x="86" y="481"/>
      <point x="74" y="493" type="curve" smooth="yes"/>
      <point x="64" y="505"/>
      <point x="48" y="516"/>
      <point x="26" y="526" type="curve" smooth="yes"/>
      <point x="35" y="536"/>
      <point x="44" y="544"/>
      <point x="55" y="552" type="curve" smooth="yes"/>
      <point x="68" y="561"/>
      <point x="80" y="565"/>
      <point x="93" y="566" type="curve" smooth="yes"/>
      <point x="101" y="566"/>
      <point x="107" y="563"/>
      <point x="112" y="555" type="curve" smooth="yes"/>
      <point x="117" y="549"/>
      <point x="122" y="534"/>
      <point x="127" y="509" type="curve" smooth="yes"/>
      <point x="139" y="483" type="line" smooth="yes"/>
      <point x="125" y="495" type="line" smooth="yes"/>
      <point x="115" y="507"/>
      <point x="107" y="520"/>
      <point x="100" y="536" type="curve" smooth="yes"/>
      <point x="100" y="539"/>
      <point x="97" y="539"/>
      <point x="89" y="538" type="curve" smooth="yes"/>
      <point x="82" y="533" type="line" smooth="yes"/>
      <point x="86" y="533"/>
      <point x="94" y="526"/>
      <point x="108" y="510" type="curve" smooth="yes"/>
      <point x="121" y="496"/>
      <point x="127" y="481"/>
      <point x="128" y="465" type="curve" smooth="yes"/>
    </contour>
    <contour>
      <point x="-140" y="-163" type="curve" smooth="yes"/>
      <point x="-140" y="-205"/>
      <point x="-154" y="-239"/>
      <point x="-184" y="-265" type="curve" smooth="yes"/>
      <point x="-213" y="-291"/>
      <point x="-249" y="-304"/>
      <point x="-294" y="-304" type="curve" smooth="yes"/>
      <point x="-332" y="-304"/>
      <point x="-366" y="-293"/>
      <point x="-396" y="-269" type="curve" smooth="yes"/>
      <point x="-422" y="-249"/>
      <point x="-434" y="-232"/>
      <point x="-432" y="-216" type="curve" smooth="yes"/>
      <point x="-432" y="-208"/>
      <point x="-426" y="-201"/>
      <point x="-413" y="-193" type="curve" smooth="yes"/>
      <point x="-401" y="-187"/>
      <point x="-388" y="-184"/>
      <point x="-374" y="-184" type="curve" smooth="yes"/>
      <point x="-356" y="-187" type="line" smooth="yes"/>
      <point x="-346" y="-192"/>
      <point x="-341" y="-200"/>
      <point x="-341" y="-211" type="curve" smooth="yes"/>
      <point x="-341" y="-226"/>
      <point x="-347" y="-238"/>
      <point x="-360" y="-247" type="curve" smooth="yes"/>
      <point x="-370" y="-249" type="line" smooth="yes"/>
      <point x="-378" y="-249" type="line" smooth="yes"/>
      <point x="-382" y="-248" type="line" smooth="yes"/>
      <point x="-374" y="-259"/>
      <point x="-364" y="-266"/>
      <point x="-350" y="-271" type="curve" smooth="yes"/>
      <point x="-338" y="-275"/>
      <point x="-320" y="-277"/>
      <point x="-295" y="-277" type="curve" smooth="yes"/>
      <point x="-267" y="-277"/>
      <point x="-240" y="-266"/>
      <point x="-212" y="-244" type="curve" smooth="yes"/>
      <point x="-186" y="-223"/>
      <point x="-173" y="-201"/>
      <point x="-172" y="-177" type="curve" smooth="yes"/>
      <point x="-172" y="-155"/>
      <point x="-183" y="-135"/>
      <point x="-207" y="-115" type="curve" smooth="yes"/>
      <point x="-230" y="-96"/>
      <point x="-256" y="-87"/>
      <point x="-286" y="-86" type="curve" smooth="yes"/>
      <point x="-293" y="-86"/>
      <point x="-303" y="-87"/>
      <point x="-316" y="-91" type="curve" smooth="yes"/>
      <point x="-342" y="-97" type="line" smooth="yes"/>
      <point x="-346" y="-97"/>
      <point x="-351" y="-94"/>
      <point x="-359" y="-86" type="curve" smooth="yes"/>
      <point x="-376" y="-68" type="line" smooth="yes"/>
      <point x="-375" y="-66"/>
      <point x="-374" y="-65"/>
      <point x="-373" y="-64" type="curve" smooth="yes"/>
      <point x="-370" y="-62"/>
      <point x="-366" y="-60"/>
      <point x="-361" y="-56" type="curve" smooth="yes"/>
      <point x="-332" y="-48" type="line" smooth="yes"/>
      <point x="-323" y="-48"/>
      <point x="-316" y="-48"/>
      <point x="-309" y="-49" type="curve" smooth="yes"/>
      <point x="-304" y="-49"/>
      <point x="-291" y="-51"/>
      <point x="-269" y="-57" type="curve" smooth="yes"/>
      <point x="-248" y="-62"/>
      <point x="-234" y="-67"/>
      <point x="-225" y="-74" type="curve" smooth="yes"/>
      <point x="-283" y="-63" type="line" smooth="yes"/>
      <point x="-327" y="-58" type="line" smooth="yes"/>
      <point x="-331" y="-58"/>
      <point x="-335" y="-59"/>
      <point x="-340" y="-63" type="curve" smooth="yes"/>
      <point x="-342" y="-65" type="line" smooth="yes"/>
      <point x="-337" y="-70" type="line" smooth="yes"/>
      <point x="-320" y="-67" type="line" smooth="yes"/>
      <point x="-297" y="-64" type="line" smooth="yes"/>
      <point x="-292" y="-64"/>
      <point x="-288" y="-64"/>
      <point x="-285" y="-64" type="curve" smooth="yes"/>
      <point x="-283" y="-64"/>
      <point x="-276" y="-65"/>
      <point x="-264" y="-68" type="curve" smooth="yes"/>
      <point x="-209" y="-80"/>
      <point x="-176" y="-91"/>
      <point x="-163" y="-101" type="curve" smooth="yes"/>
      <point x="-148" y="-115"/>
      <point x="-141" y="-135"/>
    </contour>
  </outline>
</glyph>
<glyph name="u1A48.sub_u1A45.sub" format="2">
  <advance width="1"/>
  <anchor x="-256" y="-446" name="LD"/>
  <anchor x="-46" y="-434" name="LRD"/>
  <anchor x="-273" y="-2" name="_L"/>
  <outline>
    <contour>
      <point x="-396" y="-350" type="curve" smooth="yes"/>
      <point x="-396" y="-367"/>
      <point x="-382" y="-381"/>
      <point x="-352" y="-394" type="curve" smooth="yes"/>
      <point x="-322" y="-404"/>
      <point x="-290" y="-409"/>
      <point x="-256" y="-410" type="curve" smooth="yes"/>
      <point x="-231" y="-410" type="line" smooth="yes"/>
      <point x="-195" y="-410"/>
      <point x="-170" y="-407"/>
      <point x="-154" y="-400" type="curve" smooth="yes"/>
      <point x="-132" y="-390"/>
      <point x="-121" y="-371"/>
      <point x="-120" y="-342" type="curve" smooth="yes"/>
      <point x="-120" y="-328"/>
      <point x="-135" y="-315"/>
      <point x="-166" y="-301" type="curve" smooth="yes"/>
      <point x="-196" y="-290"/>
      <point x="-228" y="-285"/>
      <point x="-264" y="-284" type="curve" smooth="yes"/>
      <point x="-305" y="-284"/>
      <point x="-337" y="-289"/>
      <point x="-361" y="-299" type="curve" smooth="yes"/>
      <point x="-384" y="-309"/>
      <point x="-395" y="-326"/>
    </contour>
    <contour>
      <point x="-421" y="-347" type="curve" smooth="yes"/>
      <point x="-421" y="-322"/>
      <point x="-402" y="-300"/>
      <point x="-363" y="-280" type="curve" smooth="yes"/>
      <point x="-325" y="-262"/>
      <point x="-287" y="-253"/>
      <point x="-247" y="-252" type="curve" smooth="yes"/>
      <point x="-207" y="-252"/>
      <point x="-170" y="-260"/>
      <point x="-136" y="-277" type="curve" smooth="yes"/>
      <point x="-103" y="-294"/>
      <point x="-87" y="-317"/>
      <point x="-86" y="-346" type="curve" smooth="yes"/>
      <point x="-86" y="-376"/>
      <point x="-104" y="-400"/>
      <point x="-142" y="-419" type="curve" smooth="yes"/>
      <point x="-157" y="-426"/>
      <point x="-174" y="-432"/>
      <point x="-194" y="-437" type="curve" smooth="yes"/>
      <point x="-214" y="-441"/>
      <point x="-234" y="-443"/>
      <point x="-255" y="-444" type="curve" smooth="yes"/>
      <point x="-296" y="-444"/>
      <point x="-333" y="-436"/>
      <point x="-366" y="-419" type="curve" smooth="yes"/>
      <point x="-402" y="-401"/>
      <point x="-420" y="-377"/>
    </contour>
    <contour>
      <point x="-61" y="-72" type="curve" smooth="yes"/>
      <point x="-61" y="-64"/>
      <point x="-58" y="-53"/>
      <point x="-50" y="-38" type="curve" smooth="yes"/>
      <point x="-50" y="-31" type="line" smooth="yes"/>
      <point x="-78" y="-40" type="line" smooth="yes"/>
      <point x="-87" y="-44"/>
      <point x="-91" y="-48"/>
      <point x="-92" y="-52" type="curve" smooth="yes"/>
      <point x="-94" y="-70" type="line" smooth="yes"/>
      <point x="-98" y="-85" type="line" smooth="yes"/>
      <point x="-98" y="-90"/>
      <point x="-97" y="-94"/>
      <point x="-94" y="-98" type="curve" smooth="yes"/>
      <point x="-67" y="-134" type="line" smooth="yes"/>
      <point x="-63" y="-152" type="line" smooth="yes"/>
      <point x="-62" y="-162" type="line" smooth="yes"/>
      <point x="-62" y="-181"/>
      <point x="-69" y="-196"/>
      <point x="-83" y="-207" type="curve" smooth="yes"/>
      <point x="-97" y="-217"/>
      <point x="-123" y="-222"/>
      <point x="-162" y="-223" type="curve" smooth="yes"/>
      <point x="-174" y="-223"/>
      <point x="-190" y="-220"/>
      <point x="-210" y="-214" type="curve" smooth="yes"/>
      <point x="-229" y="-208"/>
      <point x="-240" y="-201"/>
      <point x="-245" y="-191" type="curve" smooth="yes"/>
      <point x="-252" y="-168" type="line" smooth="yes"/>
      <point x="-253" y="-149" type="line" smooth="yes"/>
      <point x="-252" y="-134" type="line" smooth="yes"/>
      <point x="-250" y="-126" type="line" smooth="yes"/>
      <point x="-250" y="-95"/>
      <point x="-255" y="-73"/>
      <point x="-267" y="-59" type="curve" smooth="yes"/>
      <point x="-285" y="-39"/>
      <point x="-320" y="-29"/>
      <point x="-372" y="-28" type="curve" smooth="yes"/>
      <point x="-402" y="-28"/>
      <point x="-428" y="-37"/>
      <point x="-452" y="-56" type="curve" smooth="yes"/>
      <point x="-475" y="-75"/>
      <point x="-486" y="-100"/>
      <point x="-487" y="-133" type="curve" smooth="yes"/>
      <point x="-487" y="-165"/>
      <point x="-480" y="-191"/>
      <point x="-465" y="-213" type="curve" smooth="yes"/>
      <point x="-451" y="-234"/>
      <point x="-432" y="-244"/>
      <point x="-408" y="-245" type="curve" smooth="yes"/>
      <point x="-394" y="-245"/>
      <point x="-382" y="-241"/>
      <point x="-370" y="-231" type="curve" smooth="yes"/>
      <point x="-360" y="-223"/>
      <point x="-355" y="-212"/>
      <point x="-354" y="-197" type="curve" smooth="yes"/>
      <point x="-354" y="-193"/>
      <point x="-357" y="-188"/>
      <point x="-365" y="-180" type="curve" smooth="yes"/>
      <point x="-372" y="-174"/>
      <point x="-382" y="-171"/>
      <point x="-395" y="-170" type="curve" smooth="yes"/>
      <point x="-403" y="-170"/>
      <point x="-410" y="-173"/>
      <point x="-417" y="-179" type="curve" smooth="yes"/>
      <point x="-424" y="-185"/>
      <point x="-427" y="-191"/>
      <point x="-428" y="-199" type="curve" smooth="yes"/>
      <point x="-428" y="-204"/>
      <point x="-426" y="-207"/>
      <point x="-421" y="-208" type="curve" smooth="yes"/>
      <point x="-438" y="-196"/>
      <point x="-449" y="-187"/>
      <point x="-454" y="-180" type="curve" smooth="yes"/>
      <point x="-461" y="-170"/>
      <point x="-464" y="-154"/>
      <point x="-465" y="-131" type="curve" smooth="yes"/>
      <point x="-465" y="-111"/>
      <point x="-457" y="-95"/>
      <point x="-440" y="-81" type="curve" smooth="yes"/>
      <point x="-424" y="-69"/>
      <point x="-402" y="-63"/>
      <point x="-373" y="-63" type="curve" smooth="yes"/>
      <point x="-348" y="-63"/>
      <point x="-326" y="-67"/>
      <point x="-307" y="-77" type="curve" smooth="yes"/>
      <point x="-289" y="-87"/>
      <point x="-280" y="-99"/>
      <point x="-279" y="-113" type="curve" smooth="yes"/>
      <point x="-282" y="-124" type="line" smooth="yes"/>
      <point x="-286" y="-133"/>
      <point x="-288" y="-142"/>
      <point x="-288" y="-151" type="curve" smooth="yes"/>
      <point x="-288" y="-159"/>
      <point x="-287" y="-166"/>
      <point x="-284" y="-173" type="curve" smooth="yes"/>
      <point x="-274" y="-200" type="line" smooth="yes"/>
      <point x="-268" y="-217"/>
      <point x="-252" y="-230"/>
      <point x="-226" y="-239" type="curve" smooth="yes"/>
      <point x="-218" y="-241"/>
      <point x="-209" y="-243"/>
      <point x="-198" y="-246" type="curve" smooth="yes"/>
      <point x="-188" y="-248"/>
      <point x="-178" y="-249"/>
      <point x="-167" y="-249" type="curve" smooth="yes"/>
      <point x="-134" y="-249"/>
      <point x="-104" y="-238"/>
      <point x="-75" y="-216" type="curve" smooth="yes"/>
      <point x="-48" y="-194"/>
      <point x="-35" y="-170"/>
      <point x="-34" y="-144" type="curve" smooth="yes"/>
      <point x="-34" y="-130"/>
      <point x="-40" y="-115"/>
      <point x="-52" y="-99" type="curve" smooth="yes"/>
      <point x="-58" y="-91"/>
      <point x="-61" y="-82"/>
    </contour>
    <contour>
      <point x="-381" y="-205" type="curve" smooth="yes"/>
      <point x="-381" y="-213"/>
      <point x="-386" y="-217"/>
      <point x="-397" y="-217" type="curve" smooth="yes"/>
      <point x="-407" y="-214" type="line" smooth="yes"/>
      <point x="-410" y="-210"/>
      <point x="-411" y="-207"/>
      <point x="-412" y="-204" type="curve" smooth="yes"/>
      <point x="-412" y="-194"/>
      <point x="-408" y="-189"/>
      <point x="-399" y="-187" type="curve" smooth="yes"/>
      <point x="-387" y="-187"/>
      <point x="-381" y="-193"/>
    </contour>
  </outline>
</glyph>
<glyph name="u1A75.high" format="2">
  <advance width="0"/>
  <anchor x="-166" y="734" name="UD"/>
  <anchor x="-163" y="554" name="_U"/>
  <anchor x="-166" y="554" name="_UD"/>
  <outline>
    <contour>
      <point x="-158" y="562" type="line" smooth="yes"/>
      <point x="-169" y="562" type="line" smooth="yes"/>
      <point x="-196" y="692" type="line" smooth="yes"/>
      <point x="-192" y="696"/>
      <point x="-188" y="698"/>
      <point x="-184" y="700" type="curve" smooth="yes"/>
      <point x="-161" y="704" type="line" smooth="yes"/>
      <point x="-154" y="704"/>
      <point x="-147" y="703"/>
      <point x="-138" y="700" type="curve" smooth="yes"/>
      <point x="-130" y="698"/>
      <point x="-126" y="696"/>
      <point x="-126" y="692" type="curve" smooth="yes"/>
    </contour>
  </outline>
</glyph>
